<mxfile host="app.diagrams.net" agent="Mozilla/5.0 (Windows NT 10.0; Win64; x64) AppleWebKit/537.36 (KHTML, like Gecko) Chrome/129.0.0.0 Safari/537.36" version="24.7.17">
  <diagram name="Page-1" id="voae_9ilaK7TmgdRVq9r">
    <mxGraphModel dx="2261" dy="746" grid="1" gridSize="10" guides="1" tooltips="1" connect="1" arrows="1" fold="1" page="1" pageScale="1" pageWidth="827" pageHeight="1169" math="0" shadow="0">
      <root>
        <mxCell id="0" />
        <mxCell id="1" parent="0" />
        <UserObject label="&lt;div style=&quot;font-size: 1px&quot;&gt;&lt;p style=&quot;text-align:center;margin-left:0;margin-right:0;margin-top:0px;margin-bottom:0px;text-indent:0;vertical-align:middle;direction:ltr;&quot;&gt;&lt;font style=&quot;font-size:30px;font-family:0;color:#a23735;direction:ltr;letter-spacing:0px;line-height:120%;opacity:1&quot;&gt;维修&lt;/font&gt;&lt;/p&gt;&lt;/div&gt;" tags="Background" id="1Utzvzuvet02USVJ52bi-1">
          <mxCell style="verticalAlign=middle;align=center;overflow=width;vsdxID=1;fillColor=none;gradientColor=none;shape=stencil(nZBLDoAgDERP0z3SI/i5B4koRAWC+Lu9kMaIxpW7mfZNkw5gOSvhJHA2B28Huek2KMAKONdGSa9DVIA1YNlZL3tvF9OSdyKRSU12TRd2yrGU4OzIXUPgqE0GFuw3evlP+Df6AKO4P6Ry8t27jTiiJrE+AQ==);strokeColor=#000000;strokeWidth=2;spacingTop=-3;spacingBottom=-3;spacingLeft=-3;spacingRight=-3;points=[];labelBackgroundColor=none;rounded=0;html=1;whiteSpace=wrap;" vertex="1" parent="1">
            <mxGeometry x="-70" y="14" width="357" height="65" as="geometry" />
          </mxCell>
        </UserObject>
        <UserObject label="" tags="Background" id="1Utzvzuvet02USVJ52bi-2">
          <mxCell style="vsdxID=2;fillColor=none;gradientColor=none;image;aspect=fixed;image=data:image/png,iVBORw0KGgoAAAANSUhEUgAABNEAAALiCAYAAAD3kkBHAAAgAElEQVR4Aezdz4rsTpoYbF/GLLw0Bb6KuQHfQK/mBopzDb6CYWiowszeGLyYgTrbb2iMx/RqSLwYml99i2boORyborvo2Zxvc9BHSAplSAplKlWpLEXqKTikUn9DT8SJt+JVZNa/q/wQIECAAAECBAgQIECAAAECBAgQIDAp8E//9E/Vv5vcagMBAgQIECBAgAABAgQIECBAgAABApUkmkZAgAABAgQIECBAgAABAgQIECBA4IyAJNoZIJsJECBAgAABAgQIECBAgAABAgQISKJpAwQIECBAgAABAgQIECBAgAABAgTOCEiinQGymQABAgQIECBAgAABAgQIECBAgIAkmjZAgAABAgQIECBAgAABAgQIECBA4IyAJNoZIJsJECBAgAABAgQIECBAgAABAgQISKJpAwQIECBAgAABAgQIECBAgAABAgTOCEiinQGymQABAgQIECBAgAABAgQIECBAgIAkmjZAgAABAgQIECBAgAABAgQIECBA4IyAJNoZIJsJECBAgAABAgQIECBAgAABAgQISKJpAwQIECBAgAABAgQIECBAgAABAgTOCFw9iXZ4eqgeng5nLpvb/Fa9fHmoHr++JRsP1fPDY/XyPVlVVdXb18eF1+ifxzsCBAgQIECAAAECBAgQIECAAAECcwSunkSrvr9Uj5nE17AwdbKtt18uiVZV1eG5ekj2k0AbSnpPgAABAgQIECBAgAABAgQIECCwtsB1kmh1ouuhenjI/XuuDlWYUdbf9lxPVnur3rpZZv0kWp0sGxwzPv94ltraYM5PgAABAgQIECBAgAABAgQIECCwP4HrJNGCW0ik9T7G2STFmmRZ/mOZfe5MEi09X52oCwm5+DPnnHFfrwQIECBAgAABAgQIECBAgAABAgSWC1wviRa/q+zLS/VW9RNiVT0TbXrWWPPRznSm2nP1Un/v2Uv9PWl1Ii5JooX9H7++ZL8vbTmFIwkQIECAAAECBAgQIECAAAECBAjkBa6QRGsSZuOPWh6TYvMSXv3EW/rdZ4enx+rla/hutCa5Nn92W/6mrSVAgAABAgQIECBAgAABAgQIECBwicAVkmiDy9V/WCD92GXYPv5OtC7pVs9cC/tkkmi+E22A6y0BAgQIECBAgAABAgQIECBAgMBnCNwwiXb8OGc6y+x405kkWvqdaMcd2yXfiTYisYIAAQIECBAgQIAAAQIECBAgQGAVgesk0Wb9dc7Lkmir3K2TEiBAgAABAgQIECBAgAABAgQIEFggcJ0kWnrh3Mc5B+vmzESLH+/sPvaZ+Wjn49e39MqWCRAgQIAAAQIECBAgQIAAAQIECKwicKUkWvvHBcL3m7UJs/qva8bvOwsz1eJy/Cueo49qxo9zHtq/yNm8b/6IwPjem7/QKYk2lrGGAAECBAgQIECAAAECBAgQIEDg2gJXSaKFhFaXJEtmnTUzzl7qpFg6ayw3E61eV882ix/7bBNzmRlocXZaes5rwzgfAQIECBAgQIAAAQIECBAgQIAAgShwlSRaPFn9miTR6vf196X1/1rnMInWS8J1JzMTraOwQIAAAQIECBAgQIAAAQIECBAg8KkC10uipX9coPvoZj4RNkyi5QXMRMu7WEuAAAECBAgQIECAAAECBAgQIHBrgesl0a5e8nwCLl7Gd6JFCa8ECBAgQIAAAQIECBAgQIAAAQJrC2w4ibb2rTs/AQIECBAgQIAAAQIECBAgQIAAgXkCkmjznOxFgAABAgQIECBAgAABAgQIECCwYwFJtB1XvlsnQIAAAQIECBAgQIAAAQIECBCYJyCJNs/JXgQIECBAgAABAgQIECBAgAABAjsWkETbceW7dQIECBAgQIAAAQIECBAgQIAAgXkCkmjznOxFgAABAgQIECBAgAABAgQIECCwYwFJtB1XvlsnQIAAAQIECBAgQIAAAQIECBCYJyCJNs/JXgQIECBAgAABAgQIECBAgAABAjsWkETbceW7dQIECBAgQIAAAQIECBAgQIAAgXkCkmjznOxFgAABAgQIECBAgAABAgQIECCwYwFJtB1XvlsnQIAAAQIECBAgQIAAAQIECBCYJyCJNs/JXgQIECBAgAABAgQIECBAgAABAjsWkETbceW7dQIECBAgQIAAAQIECBAgQIAAgXkCkmjznOxFgAABAgQIECBAgAABAgQIECCwYwFJtB1XvlsnQIAAAQIECBAgQIAAAQIECBCYJyCJNs/JXgQIECBAgAABAgQIECBAgAABAjsWkETbceW7dQIECBAgQIAAAQIECBAgQIAAgXkCkmjznOxFgAABAgQIECBAgAABAgQIECCwYwFJtB1XvlsnQIAAAQIECBAgQIAAAQIECBCYJ1An0f7P//k/lX8MtAFtQBvQBrQBbUAb0Aa0AW1AG9AGtAFtQBvQBrSBfBswE21estFeBAgQIECAAAECBAgQIECAAAECOxaQRNtx5bt1AgQIECBAgAABAgQIECBAgACBeQKSaPOc7EWAAAECBAgQIECAAAECBAgQILBjAUm0HVe+WydAgAABAgQIECBAgAABAgQIEJgnIIk2z8leBAgQIECAAAECBAgQIECAAAECOxaQRNtx5bt1AgQIECBAgAABAgQIECBAgACBeQKSaPOc7EWAAAECBAgQIECAAAECBAgQILBjAUm0HVe+WydAgAABAgQIECBAgAABAgQIEJgnIIk2z8leBAgQIECAAAECBAgQIECAAAECOxaQRNtx5bt1AgQIECBAgAABAgQIECBAgACBeQKSaPOc7EWAAAECBAgQIECAAAECBAgQILBjAUm0HVe+WydAgAABAgQIECBAgAABAgQIEJgnIIk2z8leBAgQIECAAAECBAgQIECAAAECOxaQRNtx5bt1AgQIECBAgAABAgQIECBAgACBeQKSaPOc7EWAAAECBAgQIECAAAECBAgQILBjAUm0HVe+WydAgAABAgQIECBAgAABAgQIEJgnIIk2z8leBAgQIECAAAECBAgQIECAAAECOxaQRNtx5bt1AgQIECBAgAABAgQIECBAgACBeQKSaPOc7EWAAAECBAgQIECAAAECBAgQILBjAUm0HVe+WydAgAABAgQIECBAgAABAgQIEJgnIIk2z8leBAgQIECAAAECBAgQIECAAAECOxaQRNtx5bt1AgQIECBAgAABAgQIECBAgACBeQKSaPOc7EWAAAECBAgQIECAAAECBAgQILBjAUm0HVe+WydAgAABAgQIECBAgAABAgQIEJgnIIk2z8leBAgQIECAAAECBAgQIECAAAECOxaQRNtx5bt1AgQIECBAgAABAgQIECBAgACBeQKSaPOc7EWAAAECBAgQIECAAAECBAgQILBjAUm0HVe+WydAgAABAgQIECBAgAABAgQIEJgnIIk2z+mme/348aP69u1b9fr6Wv3yyy/+MdAGdtwGQj8Q+oPQL/ghkBMQM8RJvytoA7ENiBm5XtK6VODf/u3fqn/913+t/uVf/qWI3y//4m+qqoR///7XVfWf/ntV/e//m2pbJkDgHgUk0TZWq2EwFH4Ben9/r37+/Lmx0ikOAQK3Fgj9QOgPQr8gkXZr/e1fT8zYfh0pIYFbCogZt9Qu71p//vOfqz/84Q/VH//4x2IKX0ICbVhGibRimpeCElgkIIm2iG29g8KMkzBg9kOAAIFUIPQLoX/wQyAVEDNSDcsECEQBMSNKeE0Fwgy0P/3pT+mqzS8PE1Rbf/8f/0szI23zsApIgMBiAUm0xXTrHBhmm5iBto6tsxIoWSD0C6F/8EMgFRAzUg3LBAhEATEjSnhNBcJHOEv72XrSLFe+8NFOPwQI3K+AJNrG6jZ8p4UfAgQI5AT0DzmVfa/TJvZd/+6ewCkB/cMpnX1uK7FN5JJUJazbZwtz1wT2ISCJtrF6LjG4bYxQcQjcrYD+4W6rdvGNaROL6RxI4O4F9A93X8UX32CJbaKEhFmujBdXjgMIEChGQBJtY1VVYnDbGKHiELhbAf3D3Vbt4hvTJhbTOZDA3QvoH+6+ii++wRLbRC5BVcK6iyvHAQQIFCMgibaxqioxuG2MUHEI3K2A/uFuq3bxjWkTi+kcSODuBfQPd1/FF99giW2ihIRZrowXV44DCBAoRkASbWNVVWJw2xih4hC4WwH9w91W7eIb0yYW0zmQwN0L6B/uvoovvsES20QuQVXCuosrxwEECBQjIIm2saoqMbhtjFBxCNytgP7hbqt28Y1pE4vpHEhgUwLv7++j8uTWjXY6sUL/cAJnp5tKbBMlJMxyZdxpE3PbBHYhsIEk2lv18uWhej4k3ofn6uHhuTpUh+r5y0v1lmxKF9++PlaPX/tbD08Po3XpMb3l7jq9tfk331+qx7pMVVXVyw/Vw8OJf0/pDeVPmVtbYnDL3Yd1BAhcX0D/0JiO+vm6T36sXr6HeBJix8RP6PMHfXOII8N1/aObGHWyvw+xYBCrhuc9xqvc+ULZ+1ed+06bmCtlPwLbE/jx40cV/oVk2W9+85t6Oa4Lr2Fd2BbXXXoH+odWbM7v7Q/9fjjEmbP9fjoOGMSAfl0dquc4huhvGL0bxo5mh/nHj044WHG1NvHHf6z++le/qn518t9fV//4x0EBFrzNJaguXfdf/3Thhf+/qvrPf1NVl14n3f/CK9qdAIGCBD4/iRYC2yDwpAOk48BjqBoGIv2AV9VJsXHQGybamjM1A5n8tvRamQFPUt5QviYBeDrhl57x1PLVgtupi9hGgECRAvqHUG3jwURv0JFJlMXKDrGl98BmamDVS7RlYk08YXwN1xzEhanB1+PXw+DBUbifQSyL553xqk3MQLILgQ0KxCRZSJTN+ffb3/62Tqhdciv6h1ar7utPPGCpZvTz4VRtzOjFkbRCpmJKmmwbLff7/148a8+dW5de9pLlq7WJOon299Xr5MXfq3/8m+0k0dLkVrf8P6rqz1VVvf7zx5Jl3fkGSbdJGhsIEChe4NOTaPlBTRpQJpJTIVCFQUscvMTAlQ5+6nXJuSaSbFODneOgaDq4dkm0WJ4PNomrBbcPlsPhBAgsF/j+/Xs9c2DqDGHwFPa59Ef/UFWhz+0//AhJqDQ5Fvrr3GCpTb7VcaGd6TyaQTY8V6ih6f6/q78Yh7oVTTnTGW7HcofzpeWVREvYLBLYjUCYYRYSY+EnxIS4nAKEdWFb+JFES2UuXI5jhFECK33wnowXRqdvYkMzXnisXg7h0ykXfPIl8/Cnd4kT45PnQ3rttLxpHOmd7eSbq/0eUdhMtGGiK03+/c9/bpJpf/7DdZNpJyvCRgIEihb43CRakniqp00/vdSDi8mkVjJQavY/VPXssy/P1XM7K61+WvPwWD1+CYEmN5AK9TUcxJypw7ach+5jP83xc8p55syjzVcLbqMzW0GAwK0Efv/732cHRPH6h8OhCvtc+qN/CIOJpl+v+/ovL9XLmY/cxIRb3P+tTaI9x1lp7eDl8ctj9ZCdEfaBJNpgwNaUJRc/Tg3eTrcSbeK0j60EtiqQJtHmlFESbY7SxD5tvz/5Uf+phyX1cWE8Efvo/kOPZswx8XH+Qf+fGzPE+JSWuj5nMiGgHu901w97HuNgetzc5avFjBJnorUzz4LV//wfTcIsJNPi8n/+Q6t4hY9yhqSdHwIE7lfgU5Noh6c2KKVJqhB0BsFjFGRiUAv7jWYA9Aco2SnXw2Pa6/e/Xe1Y6SGghTIcA9txUBXW1dfoztFcv3fdepA2ldA7XicsXS249U/rHQECNxQIMwemEmUheRa2LfnZe//Q9bdxENEmwI6zhsczwBrn9kl+mL1cx49+f9wMUpon/KN4MzW4SitwGFPCo5ruoUuzY3jfnHsYI/qDsnrvuoxx0JZeaLy89zYxFrGGQBkCMYkWkmNz/sXvR7vk7vQPrVbdp/ZncY2TWkmfG/dPPqbfnCnTX4cNdSw6Hj/s/3OJr2NM6Ndo79hQji8vVXiI340r2nXDMUs3uaB/utG7q7WJkmaixeRZJjmWJtG62Wr/3LDF5Fq3fvBxzXPrR/hWECBwNwKfmERLkl11kArvn6uXMPA48fQmBJEQKJ6f2i+ITgcv7YCq2ScEs+M1jgOj4QCm/Y6DUaA81nE6wKrLlsx86yUC6+Rf5vx1ufqDtuPZ+0tXC27903pHgMCNBUIibTjoCYOmsC5+POfSIu29fzj2xU1/Wve/X8MfopkeHMUHII9Pz81XANSDo7Y/bgdKcZ8YX+rzdQ9zjnHk1HXSRF6o13ogNCiXJNqlLd7+BO5XII0HISac+2cmWiFtoR2LnIwXMTZkxh69JFq85cNz9zUG2e0hjxdmZXdxKx44fi3x94hzyaqtbh/rW0OAwL0IfGISrSE8PPWTS8PgEILCMQEWjnmrXp7a70LrZqKFj3PG4NHMOAhf3vz2/a16G37tUDtoOhvcTga2MKhKknRdOcJfEs0k0S5oLSUGtwtuz64EdiUQvvcsDHxi0mzJICgF0z+E5NRz/y9Zpg9SYvJqMJCo40x8et8m0cLHOZvEV5ske4oxY/h8P/b3aU0MlgdlCFuHsSy8n51EG5z+1Ftt4pSObQS2KxBnos0t4ZL4oX9oZyHHpNWs18GMshnH9McpuRoN5eiPd4afpDk+JEoeCsWxSBu3Dh8cY4SSfbxNvFZ/f/Ivcub+YufH/sDAtZJk3cc1c1WUrLvWd6Mlp7RIgMCdCXxqEm0YMMIsgHrgcSJghX3qnzBoySSvuu9Bi8mywWAqW39xcJXdeFx5HBTFQVXzRw/q70oLXzAavlOn/V63rpzHw2ctfTy4zbqMnQgQuJFA/Phm+Ajn7373uw9dde/9wzA+1AOXM0/9u8FN7Oe7wUj75L77rpl2sBUHLV1Nxf6+WzFeWJBE6z/IOQ7axic/vWbvbeK0jq0EtisgifaZddM8PDn3u/rx9/7psvYe9sexx4lxTL/vbxJmoRzhPL3yDOJKfZ36uzsHybjpomW3rBczwl/j/FX19/9v9rIfWnnVJNqfTv/xgP/6p6qSRPtQdTmYwC4EPjWJlhMeBqxecEoPGCbRDi/N7IQYwOJAaBCE0lN0y3Fw1a1IF5pA2wt68eOcX9vp1aNB2SAQpqc7s7xecDtzYZsJEFhFIMxCCwm0MIvgoz/6h4zgoI8fxpDuiNjPx/76+0v1Uj+UiTMV0o94poOUy5NoIW71YkYyoHr8+lI9d4m7ULpwfUm0rp4sENiJgCTabSu6P57I/G5f99P9vngyniRF75832dBbnDcT7VQSrapj1/LxRSzONX+PeP27X1V//b/e21M3SbRfjWapfWwWWji5JFqsPa8ECGxFYANJtCSQtV+emX6mfzI4xSRaJzmcRZAMjMLHOtsp0FMDm6n1aUA7BtNY5mag1X0vWl2WZlt6XPOFo+mgrCv0aOGawW10cisIEPgUgfhdNx+9uP6hETwmqZ6rw6VJtK4S+v14/KvNzV9hS78KIOzXH1h1p4gLgzJ0q9uZBcfY0X4BdXzIU++YSaLVg6Uz12wvok1Eba8EyhKQRLthfY0SUJnf1TPF6fXdme1h1WicEuJB8uDk5HISC8J5RmOHbnsc04QHNPnxRB0XZ3z65moxo/3DAseZZ2aiDZN9E03GagIE7kDgE5NocQDTHyjUAetE8Ok+mjNKorW10QWvfJDJ1lkIrl2gyu5RrzwG01ODqkxgrss0rzxXC27Tt2ELAQKFCuy9f4jJs9FA40TM6B7KTPXz7eCqSZ7lGkaMVdOzy+pBUi+GNMd08ar7jrSX6uXLYKCUm4lWl6kfG3MlC+v23iamXKwnsHUBSbQb1VDbx9d/XCbEijrRlPldPVOcc2OSmCBL+/rMadoZx4NxQBgbJHEjxrd4zi6utOOaeI2mTOP4cNMkWptA++u/+/vqr8PMs78Lf+OykCRavoJ6a32cs8fhDQECGYFPTKJlStMNNOIXn+X3qdeGoNI9cUkGOd26E8cON00Nrgb7nUyitUGuCX6DQDk4z6m3BkSndGwjsG8B/UOm/gcDkcwezapBP98NWJJBTP7YEF/GA5bevoMyhHPHAc9ovxij2oFdN1Dq7Tj/jTYx38qeBLYkEJNo4aP+c/4t+cvOu+8f6n623393ff/kw5fj/sff+6dbzmR/385S65JiZ2JNOE/vAVG4ZD22OJanK0UbP0b7dztML3y4TdQJtP5HNMPHOscf40zX9fefLl1+y3CG19L39R8W8J1oeWRrCRC4SGBzSbSLSn+HO384uN2hiVsiQKAR0D9oCUMBbWIo4j2BcgRCIm3uv/hXni+5O/3DJVr72LfENrE0afbZx+2jRblLAvsUkETbWL2XGNw2Rqg4BO5WQP9wt1W7+Ma0icV0DiRw9wL6h7uv4otvsMQ28dnJsKXXv7hyHECAQDECkmgbq6oSg9vGCBWHwN0K6B/utmoX35g2sZjOgQTuXkD/cPdVfPENltgmliaxPvu4iyvHAQQIFCMgibaxqioxuG2MUHEI3K2A/uFuq3bxjWkTi+kcSODuBfQPd1/FF99giW3is5NhS69/ceU4gACBYgQk0TZWVSUGt40RKg6BuxXQP9xt1S6+MW1iMZ0DCdy9gP7h7qv44hsssU0sTWJ99nEXV44DCBAoRkASbWNVVWJw2xih4hC4WwH9w91W7eIb0yYW0zmQwN0L6B/uvoovvsES28RnJ8OWXv/iynEAAQLFCEiibayqXl9fq58/f26sVIpDgMBnC4R+IfQPfgikAmJGqmGZAIEoIGZECa+pwL/8y7+kb4tYXprE+szj/v2vi6BVSAIEFgpIoi2EW+uwb9++1X/ufK3zOy8BAmUKvL+/V6F/8EMgFRAzUg3LBAhEATEjSnhNBf71X/+1+uMf/5iu2vzyZybDllz7P/6XqvpP/33zrApIgMAHBCTRPoC3xqE/fvyoZ5uEX37MSFtD2DkJlCUQ+oHQH4QZR6F/8EMgFRAzUg3LBAiIGdrAKYF/+7d/q/7whz9Uf/rTn07ttqltSxJZn33M//6/myJUGAIEriwgiXZl0GucLgyKwuyCMGgO313gHwNtYL9tIPQDoT+QQLtG73qf5xAz9ts/iA3qftgGxIz77OeveVd//vOfqzAjLXy0c9h+tvj+sxNic68fPsIZZqBJoF2ztToXgW0KSKJts16UigABAgQIECBAgAABAgQIECBAYEMCkmgbqgxFIUCAAAECBAgQIECAAAECBAgQ2KaAJNo260WpCBAgQIAAAQIECBAgQIAAAQIENiQgibahylAUAgQIECBAgAABAgQIECBAgACBbQpIom2zXpSKAAECBAgQIECAAAECBAgQIEBgQwKSaBuqDEUhQIAAAQIECBAgQIAAAQIECBDYpoAk2jbrRakIECBAgAABAgQIECBAgAABAgQ2JCCJtqHKUBQCBAgQIECAAAECBAgQIECAAIFtCkiibbNelIoAAQIECBAgQIAAAQIECBAgQGBDApJoG6oMRSFAgAABAgQIECBAgAABAgQIENimgCTaNutFqQgQIECAAAECBAgQIECAAAECBDYkIIm2ocpQFAIECBAgQIAAAQIECBAgQIAAgW0KSKJts16UigABAgQIECBAgAABAgQIECBAYEMCkmgbqgxFIUCAAAECBAgQIECAAAECBAgQ2KaAJNo260WpCBAgQIAAAQIECBAgQIAAAQIENiQgibahylAUAgQIECBAgAABAgQIECBAgACBbQpIom2zXpSKAAECBAgQIECAAAECBAgQIEBgQwKSaBuqDEUhQIAAAQIECBAgQIAAAQIECBDYpoAk2jbrRakIECBAgAABAgQIECBAgAABAgQ2JCCJtqHKUBQCBAgQIECAAAECBAgQIECAAIFtCkiibbNelIoAAQIECBAgQIAAAQIECBAgQGBDApJoG6oMRSFAgAABAgQIECBAgAABAgQIENimgCTaNutFqQgQIECAAAECBAgQIECAAAECBDYkIIm2ocpQFAIECBAgQIAAAQIECBAgQIAAgW0KSKJts16UigABAgQIECBAgAABAgQIECBAYEMCkmgbqgxFIUCAAAECBAgQIECAAAECBAgQ2KaAJNo260WpCBAgQIAAAQIECBAgQIAAAQIENiQgibahylAUAgQIECBAgAABAgQIECBAgACBbQpIom2zXpSKAAECBAgQIECAAAECBAgQIEBgQwKSaBuqDEUhQIAAAQIECBAgQIAAAQIECBDYpoAk2jbrRakIECBAgAABAgQIECBAgAABAgQ2JCCJtqHKUBQCBAgQIECAAAECBAgQIECAAIFtCkiibbBefvz4UX379q16fX2tfvnlF/8YaAM7bgOhHwj9QegX/BDICYgZ4qTfFbSB2AbEjFwvaV0qIGboL2J/4VVbEDPS3nH+siTafKub7BkCW2jM7+/v1c+fP29yTRchQGC7AqEfCP1B6Bck0rZbT59VMjHjs+Rdl8A2BcSMbdbLVkolZmylJpSDwDYExIxl9SCJtsxttaPCjJMwYPZDgACBVCD0C6F/8EMgFRAzUg3LBAhEATEjSnhNBcSMVMMyAQJRQMyIEvNeJdHmOd1srzDbxAy0m3G7EIFiBEK/EPoHPwRSATEj1bBMgEAUEDOihNdUQMxINSwTIBAFxIwoMe9VEm2e0832Cp9N90OAAIGcgP4hp7LvddrEvuvf3RM4JaB/OKWzz23axD7r3V0TmCOgf5ij1OwjiTbf6iZ7arw3YXYRAkUK6B+KrLZVC61NrMrr5ASKFtA/FF19qxRem1iF1UkJ3IWA/mF+NUqizbe6yZ4a702YXYRAkQL6hyKrbdVCaxOr8jo5gaIF9A9FV98qhdcmVmF1UgJ3IaB/mF+NkmjzrW6yp8Z7E2YXIVCkgP6hyGpbtdDaxKq8Tk6gaAH9Q9HVt0rhtYlVWJ2UwF0I6B/mV6Mk2nyrm+yp8d6E2UUIFCmgfyiy2lYttPZJ8k8AACAASURBVDaxKq+TEyhaQP9QdPWtUnhtYhVWJyVwFwL6h/nVKIk23+ome2q8N2F2EQJFCugfiqy2VQutTazK6+QEihbQPxRdfasUXptYhdVJCdyFgP5hfjVKolVVdXh6qJ4PM9C+v1SPD8/VcNfZx8+4hMY7A8kuBHYqoH/4YMUfnquHp34P/vb1cbSuucpb9fLloXp4SP89Vy9h/966/vbj2XPHp/sOlgflmnun2sRcKfsR2J+A/mErdX6onkPcONXPh/g0GVsG8eJh5rglc/vaRAbFKgIEagH9w/yGsKMk2oUDmjaQPX59O2rmkmi5dccjLl7SeC8mcwCB3QjoHz5W1aMHHnX/PR6c9Ac6IXY8Vi/fm2v3km5h0PPlpWqiRBgkpQ9ZmpjTiyEfK372aG0iy2IlAQJVVekfttAMmgTa49dD/WBm8qF9L56cKncTWybPc+pQbeKMjs0E9i0gZsyv/x0l0aZRRgOr3q7t06Pc06GnQz2LLfvk6NTTpt75+2803r6HdwRKFPj+/Xv148ePyaKHbWGfS3/0D5eKpfu3Sa7uwUfbt3dJsLBvs64/OMkk0XLxoF4niZaKWyZAYJ6AmDHPqby9Qkw5PoSpqhMJMEm08qpXiQl8koCY8UnwyWX3l0SbmnkwHBT1BlatWDf4at+3U6/TmQanE3KJ/MSiQfIEjNUEChL4/e9/X/32t7+dLPHhcKjCPpf+6B8uFTvuX88gC/16248/x4/xx378S/iYZjrYicdmkmjxIUlv0NMm6eJh7WApjQ/dpisuaBNXxHQqAp8kIGZ8Evyal61jS/pg5XixMFYYxYY2nhxOfmVAOO7MjLbjZbJLYkaWxUoCRQmIGZ9fXTtNovWD2ijxFQZZZ5No7cDq8FI9xgFVPWjKDMJOBNJhExDchiLeEyhPIMw0m0qUhcAXti350T8sUQvHJLPOhg9D2u/FjDOKRwObQb9+k49z1mXMxJLM7WsTGRSrCBQmIGYUVmEni9vMNosx5eRrOtboPZQ5dYH8bLYwlul/FUH+HGJG3sVaAiUJiBmfX1s7S6K1A6nhrLPs+8wAJjP4qgdnMQhmt4cRWviy0H7ibqrqBbcpGesJlCUQAtxvfvOb6v39vSt4WA7rwrYlP/qHJWpVFRJfj0/PzcORtJ+ul5sZAWGf8DHOeiASYkL24/qX/2GB/kdDZ5a/LlcmBmUO1yYyKFYRKFBAzCiw0oZFvqDvrg9N90+TaPW4Yfx9nc1DHkm0Ibv3BPYoIGZ8bq3vLImWxx7NRKtnLSQDmGwwi9uPwaw3QyF/qbNrDYjOEtmBQDEC4TsLwsc6Y9IsLKdJtUtvRP9wqViz/+HpuTqEwcrg45zNHwVoZw08Haq372/1v/5VwvbY3zcJue5pfzroqeNG+rDkGBv657vuO23iup7ORuAzBcSMz9S/4rWz44ZxUqz3kCWNJ2G5+5RLU64wVjmVRJtbejFjrpT9CGxfQMz4vDraURKtHShlZ52NA1s3/ToEsVEwG3xRaB34HqvHD/zJ6dgEBLco4ZXAfQjEj2+Gj3D+7ne/+9BN6R8+wDdIooUP1DazzmKCLPnIZ+8y/SRab1M66OltCG8GcWK0/TortInrODoLga0IiBlbqYkPlONkbAjnzTxkSY8Jy5JoH6gAhxLYj4CY8Tl1vaMk2jTwrJlovWA2HBy1CbrePtPXO7XFgOiUjm0EyhMIs9BCAu3UHxqYe1f6h7lSmf2GSbTvL9VL/dV0bfIsfuS+/njNcEZZTLSdfxjTzSwYnSdTpius0iaugOgUBDYkIGZsqDKWFiVNiGXPMSOJlnnobyZaFtNKArsWEDM+p/p3lkSLg6UTM8+6oBUHTe13mvUSZP0kWjOboTlnN4BK6zME0zhAS9dnlg2IMihWEShcIAS48O+jP/qHDwjGJFp3ipgQiwmz+D70/eFjnXHHuD708XHfdtuJgVIdF3pxI55vxmudgEti0IlDtIkTODYRKFRAzCi04mKxT8SGZpcZSbTJ+JE5Ns6snjwmFqyqxIyjhSUC9yIgZty+JneWRMsDz5qJ1iXXYgIuDHDapFzvDwvE7yxIriWJlmBYJEBgqYBffpfKVVU1SqK156oTVqFfHyatkuTZ1MBkaqBU9/nD811Qdkm0C7DsSoDAlICYMSWz8vo6BsTxwvRr78H7VDwZFVUSbURiBQECVxEQM+Yz7jeJ1gtwZwY7Yd/RIKpJoDVTq1PwduA12j/dZ3pZ4522sYXA3gX0Dx9oAYMkWjeDOD4EmXHq+o/HjB6oDAZIX16q3zw91H/pc8YpP7yLNvFhQicgcLcC+odPqtqzCbFMIuzMMV3MqmPQYFb0BbepTVyAZVcCOxPQP8yv8P0m0eYb3XRPjfem3C5GoCgB/UNR1XWTwmoTN2F2EQJFCugfiqy2VQutTazK6+QEihbQP8yvPkm0+VY32VPjvQmzixAoUkD/UGS1rVpobWJVXicnULSA/qHo6lul8NrEKqxOSuAuBPQP86tREm2+1U321HhvwuwiBIoU0D8UWW2rFlqbWJXXyQkULaB/KLr6Vim8NrEKq5MSuAsB/cP8apREm291kz013pswuwiBIgX0D0VW26qF1iZW5XVyAkUL6B+Krr5VCq9NrMLqpATuQkD/ML8aJdHmW91kT433JswuQqBIAf1DkdW2aqG1iVV5nZxA0QL6h6Krb5XCaxOrsDopgbsQ0D/Mr0ZJtPlWN9lT470Js4sQKFJA/1Bkta1aaG1iVV4nJ1C0gP6h6OpbpfDaxCqsTkrgLgT0D/OrURJtvtVN9nx9fa1+/vx5k2u5CAEC5QiEfiH0D34IpAJiRqphmQCBKCBmRAmvqYCYkWpYJkAgCogZUWLeqyTaPKeb7fXt27fq/f39ZtdzIQIEyhAI/ULoH/wQSAXEjFTDMgECUUDMiBJeUwExI9WwTIBAFBAzosS8V0m0eU432+vHjx/1bJPQkM1Iuxm7CxHYrEDoB0J/EJ4eh/7BD4FUQMxINSwTICBmaAOnBMSMUzq2EdifgJixrM4l0Za5rXpUCHDhSVEYNIfPJvvHQBvYbxsI/UDoDyTQVu12iz65mLHf/kFsUPfDNiBmFN2d36TwYoZ+Y9hveL/fNiFmLOt2JdGWuTmKAAECBAgQIECAAAECBAgQIEBgRwKSaDuqbLdKgAABAgQIECBAgAABAgQIECCwTEASbZmbowgQIECAAAECBAgQIECAAAECBHYkIIm2o8p2qwQIECBAgAABAgQIECBAgAABAssEJNGWuTmKAAECBAgQIECAAAECBAgQIEBgRwKSaDuqbLdKgAABAgQIECBAgAABAgQIECCwTEASbZmbowgQIECAAAECBAgQIECAAAECBHYkIIm2o8p2qwQIECBAgAABAgQIECBAgAABAssEJNGWuTmKAAECBAgQIECAAAECBAgQIEBgRwKSaDuqbLdKgAABAgQIECBAgAABAgQIECCwTEASbZmbowgQIECAAAECBAgQIECAAAECBHYkIIm2o8p2qwQIECBAgAABAgQIECBAgAABAssEJNGWuTmKAAECBAgQIECAAAECBAgQIEBgRwKSaDuqbLdKgAABAgQIECBAgAABAgQIECCwTEASbZmbowgQIECAAAECBAgQIECAAAECBHYkIIm2o8p2qwQIECBAgAABAgQIECBAgAABAssEJNGWuTmKAAECBAgQIECAAAECBAgQIEBgRwKSaDuqbLdKgAABAgQIECBAgAABAgQIECCwTEASbZmbowgQIECAAAECBAgQIECAAAECBHYkIIm2o8p2qwQIECBAgAABAgQIECBAgAABAssEJNGWuTmKAAECBAgQIECAAAECBAgQIEBgRwKSaDuqbLdKgAABAgQIECBAgAABAgQIECCwTEASbZmbowgQIECAAAECBAgQIECAAAECBHYkIIm2o8p2qwQIECBAgAABAgQIECBAgAABAssEJNGWuTmKAAECBAgQIECAAAECBAgQIEBgRwKSaDuqbLdKgAABAgQIECBAgAABAgQIECCwTEASbZmbowgQIECAAAECBAgQIECAAAECBHYkIIm2o8p2qwQIECBAgAABAgQIECBAgAABAssEJNGWuTmKAAECBAgQIECAAAECBAgQIEBgRwKSaDuqbLdKgAABAgQIECBAgAABAgQIECCwTEASbZmbowgQIECAAAECBAgQIECAAAECBHYkIIm2o8p2qwQIECBAgAABAgQIECBAgAABAssEJNGWua161I8fP6pv375Vr6+v1S+//OIfA21gx20g9AOhPwj9gh8COQExQ5z0u4I2ENuAmJHrJa1LBcQM/UXsL7xqC2JG2jvOX5ZEm291kz1DYAuN+f39vfr58+dNrukiBAhsVyD0A6E/CP2CRNp26+mzSiZmfJa86xLYpoCYsc162UqpxIyt1IRyENiGgJixrB4k0Za5rXZUmHESBsx+CBAgkAqEfiH0D34IpAJiRqphmQCBKCBmRAmvqYCYkWpYJkAgCogZUWLeqyTaPKeb7RVmm5iBdjNuFyJQjEDoF0L/4IdAKiBmpBqWCRCIAmJGlPCaCogZqYZlAgSigJgRJea9SqLNc7rZXuGz6X4IECCQE9A/5FT2vU6b2Hf9u3sCpwT0D6d09rlNm9hnvbtrAnME9A9zlJp9JNHmW91kT433JswuQqBIAf1DkdW2aqG1iVV5nZxA0QL6h6Krb5XCaxOrsDopgbsQ0D/Mr0ZJtPlWN9lT470Js4sQKFJA/1Bkta1aaG1iVV4nJ1C0gP6h6OpbpfDaxCqsTkrgLgT0D/OrURJtvtVN9tR4b8LsIgSKFNA/FFltqxZam1iV18kJFC2gfyi6+lYpvDaxCquTErgLAf3D/GqURJtvdZM9Nd6bMLsIgSIF9A9FVtuqhdYmVuV1cgJFC+gfiq6+VQqvTazC6qQE7kJA/zC/GiXR5lvdZE+N9ybMLkKgSAH9Q5HVtmqhtYlVeZ2cQNEC+oeiq2+VwmsTq7A6KYG7ENA/zK/GIpNoh6eH6uFh4t/TS/XyZbDty0v1lpp8f6keHx6rl+/pyqqqwvrhvoNd6reH5+qh2++tevmSOVfuuBnrNN4ZSHYhsFMB/cPSig/99CAuTMWQsL7r32derxcTMsfUMee5OrSbQgx7jm8yu1+ySpu4RMu+BPYloH+4Rn0fqueHTJ896NdPX6k5x8PTjI4/xJOHY7yo6vf5+LUkjmgTp2vKVgJ7FtA/zK/9IpNo8fbevj5Wj1/fqpMDkkxiLBx3DGQhsLVJsMy+9bVOBLBsMm9OkIw3MXjVeAcg3hIg0AnoHzqKqyyE2BFiyORPpu/P7h/2SxNv9eAqP+jJxoz02MnC5DdoE3kXawkQqCr9w7VaQTJWCKe8JIHWxoOQ8KonAWTHCG2SLfNw5xhzrvPQXpu4VptwHgL3J6B/mF+nO0yiNTMSuqc3YfATA9pUEm3omR5T9YNaP0E3PPD8e433vJE9COxVQP9w3ZqflURLElyT+w+TaMNiDmJLOE8vBiXXGB567r02cU7IdgL7FdA/fKzu69/pM4mt4cOQY6Krf706aZbOKquqqjlnMtOsPqRN0n3tP5AJ+3bnHsSR/pXmv9Mm5lvZk8DeBPQP82u8zCRaGLBMBLVuYBINBkGnH7zOfcTn+DHNJhDOnFkQk3KxDBe8arwXYNmVwM4E9A/XrfDJpFi8zCA51uz/Un+0ZyoGxRlpcwdf9Xkk0aK4VwIEriggZnwMs5fEmjhVbp84ZhiNSbpztDPPeuOFzJgkxIYwjsmNeRbGDW2iqwQLBAgMBPQPA5ATb8tNon15qQ6Dj3OGoPV8mAhCNUKcLt0+AaqTccnToEHC7egWzpnsF47rAl/Ydky2HY9JlobXSTYNFzXeoYj3BAhEAf1DlLjO67IkWubjn4NkWyjd4SmJC4PY0sSqE/dQD5qS40/sqk2cwLGJwM4F9A8fawC5BNnwjL192oRXmD0W1k8+bAlJsadDt09IttX7d2OL5n09C60+ZzIGCQXIxpzmnMPyDd9rE0MR7wkQiAL6hyhx/rXoJNpL+5GYOCBJk2jd059k8NIMmMIsgiYYxeM6pmTfbl29EJNvM2eixe9YiyeRRIsSXgkQ+ICA4PYBvMyhTUzIJMXivnXf3e/3u8FRMtgZD2gyD3NyMwmSdV3MCteuB02SaLEavBIgsExAzFjmFo86mwhr+/DuI5fxwNFr+3HN4R806/YL25+rlzbx9vyUfKwzSaJ14xZJtE7OAgEC1xMQM+ZblptEqwNXkwxLg1ycidYbkNQeb9XLU/grnU2gyv59nMkkWgIaAlc6eBp8J1o1ep8cO2NR452BZBcCOxXQP1y34mcl0ZKPzBz3b5JkXZzJDGi6kmbiSjcQancavu+OnbGgTcxAsguBnQroHz5W8WF8cS5BNmefqh57zHswchzTtPvPTKLNvVNtYq6U/QjsT0D/ML/Oy02iJQObeLvNQGQwuIkbu9eYRJs5U6BLmM3cPyT3MmXrLn9mQeM9A2QzgR0L6B+uW/nHpNjEeQfJsf7+MZbkP1oTzhj2P/lxnm4m2uCjOhPFya3WJnIq1hEgEAT0D9dtB3WC6+zv+CE2LOn7m3HGMWnXjme+hu9EG3yCZhCbLrlLbeISLfsS2JeA/mF+fZebRJsIUNmZaL3ZY8nAZ+iUmTHQPD0KwfCxevyS/EW14bHtgKmbmZDZPmeVxjtHyT4E9imgf7huvfeTYplzDwYqk/v39js+cHn8cnoWw7wZDJlyJau0iQTDIgECPQH9Q4/jsjf1DLAwG6xNZsWPsPT6++Zhyfnf/cPY48RMtPpamcRbeJDfzUQL5WjPMSjDJTemTVyiZV8C+xLQP8yv73KTaJknQWGAk0ui1U+OuhlllybRjpjN+ee/7/YMwW7wJ667bYMFjXcA4i0BAp2A/qGjuMrCZFIsnr3uu/sDm+MsgbjT9Ey0YZLs3PvujN3grVszuaBNTNLYQGD3AvqH5U0gxIfm61sGSbTulHF989qLDV3iK+48SKJl+/jB+CTEn27s0saZE592OZY3XjP/qk3kXawlQMDs5UvaQLlJtAtmovUHSoMglWqFoJZJzqW7NMvhHP2BVZip9jL1haGSaGNCawgQuFjAL78Xk508oB8bMruGvjuJCZP7D/Ybn6kZZA0/2jk5eyE7wBqfNazRJvIu1hIgoH9Y3AYGv7eHvn/cX6fjibA8GAf0+vFke70+9xH+zNiiTaLVkwHa8zfL4/KEMvaSbhM3L2ZMwFhNgIDfKS9oA+Um0ZKBTbzfLsjVwS9NcqXBKg168cj2dSqJdvJ88RzJIClTtrjXuVfB7ZyQ7QT2K6B/WFb39eBi9OAjjRGZ5XQGQO6yg7gwnoWQnnMwuGrPdyxXGqNyF5tep01M29hCYO8C+ocrtYBBfx8fiPT6/fpSyVhgdsyJ/f9gfBKu+fRSvXzJJcea64wTe+fvV5s4b2QPAnsV0D/Mr/kyk2jz76+4PTXe4qpMgQncTED/cDPqYi6kTRRTVQpK4OYC+oebk2/+gtrE5qtIAQl8moD+YT69JNp8q5vsqfHehNlFCBQpoH8ostpWLbQ2sSqvkxMoWkD/UHT1rVJ4bWIVViclcBcC+of51SiJNt/qJntqvDdhdhECRQroH4qstlULrU2syuvkBIoW0D8UXX2rFF6bWIXVSQnchYD+YX41SqLNt7rJnhrvTZhdhECRAvqHIqtt1UJrE6vyOjmBogX0D0VX3yqF1yZWYXVSAnchoH+YX42SaPOtbrKnxnsTZhchUKSA/qHIalu10NrEqrxOTqBoAf1D0dW3SuG1iVVYnZTAXQjoH+ZXoyTafKub7Knx3oTZRQgUKaB/KLLaVi20NrEqr5MTKFpA/1B09a1SeG1iFVYnJXAXAvqH+dUoiTbf6iZ7vr6+Vj9//rzJtVyEAIFyBEK/EPoHPwRSATEj1bBMgEAUEDOihNdUQMxINSwTIBAFxIwoMe9VEm2e0832+vbtW/X+/n6z67kQAQJlCIR+IfQPfgikAmJGqmGZAIEoIGZECa+pgJiRalgmQCAKiBlRYt6rJNo8p5vt9ePHj3q2SWjIZqTdjN2FCGxWIPQDoT8IT49D/+CHQCogZqQalgkQEDO0gVMCYsYpHdsI7E9AzFhW55Joy9xWPSoEuPCkKAyaw2eT/WOgDey3DYR+IPQHEmirdrtFn1zM2G//IDao+2EbEDOK7s5vUngxQ78x7De832+bEDOWdbuSaMvcHEWAAAECBAgQIECAAAECBAgQILAjAUm0HVW2WyVAgAABAgQIECBAgAABAgQIEFgmIIm2zM1RBAgQIECAAAECBAgQIECAAAECOxKQRNtRZbtVAgQIECBAgAABAgQIECBAgACBZQKSaMvcHEWAAAECBAgQIECAAAECBAgQILAjAUm0HVW2WyVAgAABAgQIECBAgAABAgQIEFgmIIm2zM1RBAgQIECAAAECBAgQIECAAAECOxKQRNtRZbtVAgQIECBAgAABAgQIECBAgACBZQKSaMvcHEWAAAECBAgQIECAAAECBAgQILAjAUm0HVW2WyVAgAABAgQIECBAgAABAgQIEFgmIIm2zM1RBAgQIECAAAECBAgQIECAAAECOxKQRNtRZbtVAgQIECBAgAABAgQIECBAgACBZQKSaMvcHEWAAAECBAgQIECAAAECBAgQILAjAUm0HVW2WyVAgAABAgQIECBAgAABAgQIEFgmIIm2zM1RBAgQIECAAAECBAgQIECAAAECOxKQRNtRZbtVAgQIECBAgAABAgQIECBAgACBZQKSaMvcHEWAAAECBAgQIECAAAECBAgQILAjAUm0HVW2WyVAgAABAgQIECBAgAABAgQIEFgmIIm2zM1RBAgQIECAAAECBAgQIECAAAECOxKQRNtRZbtVAgQIECBAgAABAgQIECBAgACBZQKSaMvcHEWAAAECBAgQIECAAAECBAgQILAjAUm0HVW2WyVAgAABAgQIECBAgAABAgQIEFgmIIm2zM1RBAgQIECAAAECBAgQIECAAAECOxKQRNtRZbtVAgQIECBAgAABAgQIECBAgACBZQKSaMvcHEWAAAECBAgQIECAAAECBAgQILAjAUm0HVW2WyVAgAABAgQIECBAgAABAgQIEFgmIIm2zM1RBAgQIECAAAECBAgQIECAAAECOxKQRNtRZbtVAgQIECBAgAABAgQIECBAgACBZQKSaMvcHEWAAAECBAgQIECAAAECBAgQILAjAUm0HVW2WyVAgAABAgQIECBAgAABAgQIEFgmIIm2zM1RBAgQIECAAAECBAgQIECAAAECOxKQRNtRZbtVAgQIECBAgAABAgQIECBAgACBZQKSaMvcVj3qx48f1bdv36rX19fql19+8Y+BNrDjNhD6gdAfhH7BD4GcgJghTvpdQRuIbUDMyPWS1qUCYob+IvYXXrUFMSPtHecvS6LNt7rJniGwhcb8/v5e/fz58ybXdBECBLYrEPqB0B+EfkEibbv19FklEzM+S951CWxTQMzYZr1spVRixlZqQjkIbENAzFhWD5Joy9xWOyrMOAkDZj8ECBBIBUK/EPoHPwRSATEj1bBMgEAUEDOihNdUQMxINSwTIBAFxIwoMe9VEm2e0832CrNNzEC7GbcLEShGIPQLoX/wQyAVEDNSDcsECEQBMSNKeE0FxIxUwzIBAlFAzIgS814l0eY53Wyv8Nl0PwQIEMgJ6B9yKvtep03su/7dPYFTAvqHUzr73KZN7LPe3TWBOQL6hzlKzT6SaPOtbrKnxnsTZhchUKSA/qHIalu10NrEqrxOTqBoAf1D0dW3SuG1iVVYnZTAXQjoH+ZXoyTafKub7Knx3oTZRQgUKaB/KLLaVi20NrEqr5MTKFpA/1B09a1SeG1iFVYnJXAXAvqH+dUoiTbf6iZ7arw3YXYRAkUK6B+KrLZVC61NrMrr5ASKFtA/FF19qxRem1iF1UkJ3IWA/mF+NUqizbe6yZ4a702YXYRAkQL6hyKrbdVCaxOr8jo5gaIF9A9FV98qhdcmVmF1UgJ3IaB/mF+NkmjzrW6yp8Z7E2YXIVCkgP6hyGpbtdDaxKq8Tk6gaAH9Q9HVt0rhtYlVWJ2UwF0I6B/mV2PBSbS36uXLQ/V8SG728Fw9PDxXh+pQPX95qd6STeni29fH6vFrf+vh6WG0Lj0mt7zkmNx50nUab6phmQCBVED/0Gp8f6keY1//8FA9TP17SgNEVVUhRgzWhXgwXJeaz1oO5x3GnLqMj9XL9+YMIV5MlvPhuN+s6yU7aRMJhkUCBHoCd90/hD522O/27n78Jvf7f9gr9M+98URy6OTv+vWYY6rvzoxRwjnruDB9rapqjpuOFW0cGcSxpLhnF++6TZy9ezsQIHBKQP9wSqe/rdwkWiZ4poFuKlA2AWoQ9OpAOB7gDBNtfbqJANnf6eJ3Gu/FZA4gsBsB/UNT1cfE16F6rpNp4yZw3Oe4bTRQagc0owFLHKBkYkM2LuSSaPVlQ/kG8eZYnHYpxJJz+4wO6lZoEx2FBQIEBgJ33T+Efjf21YP7nn7b/O6e9uO5WHE8fqoPD+sfquenzAOUcHBStvr8Uw966vXh4X/8mTG2SM4dj7rk9a7bxCUQ9iVAYCSgfxiRTK4oNomWHwylA5GJ2Wgx+RYHPXEQlQbiel16rpxfG0CPkS+308XrNN6LyRxAYDcC+odQ1ekgI/TD6QDk2BTGA6N237p/b2cshwFMbybDoF+PcaI9bfqg5nildsA0Ok++XL3j6jeSaGMTawgQuIbAPcWM88mo8cPwh6ff1J9aGT0oOZnUeqimjwv9ej8RN44LYfux/x/HorRmhzGsOffZ8qZjlvR0M5bvqU3MuF27ECBwgYD+YT5WmUm0mAhrp2A/PL2cDZJxmnYIdvWTq3pw9Fw9tzMAC6abbAAAIABJREFUmuD8WD1+CUH4GPwmKdvkW/o0a3LfCzZovBdg2ZXAzgT0D8OE1XAAcmwQw4FL/T4kutok2nP8+E6IBQ8P1eOXx+phOGssm0R7qWcgTA5y6mRaWq6pQVGMM2H7uYc2x/saLmkTQxHvCRCIAvfbP3ys34w+515D3Oj/nt88aOmva/r4uC4cU4856ljzWD0/hdiSSfB162IsCKVpzhXHLNnyhbgkiZalsZIAgY8J3G/M+JhL7ugik2iHp3bA0SbTDuE7bUIwSoLK+MnQ8bsIjkm09HvTmsAVA93JABYk24FXfxZDjjjumwbJif2qqtJ4p21sIbB3Af1D2093s76aAU3st0evXUxo90uSaOkk4vrhSjugiQOhuq1lk2j979PM7VeF7+XsHsaEMg+SZG0irynD1PbBMRONX5uYgLGaAIH7/Z2y14eeq+ipONH2sUk/33/4Evvx8Br2beJPfnzQbHv8+kvvoX6IJ/1znivrB7bX45LzYw0x4wPGDiVw5wL6h/kVXGASrQlU9WCpHkiF98/VS0ykdU92+k99QtALA6X6+wvCwCoJmjEh1uxzDJThGr0BVecag+VhPDjq9kkWZga2cITGm7hZJECgJ7D3/qEejHwJM4bjA5A4yAlMTb8cBzjpwCUsPz49N8elg696uennwz4xTtTxJcaJQUzJDorSeFLX2LhcowTf2SSbJFqv8XtDgMDFAvcaM9L+/TxKTIKleybrkv47Pe9xOdk3nCLEjS4GpedMlsM524c44Tx1/BnEkmNMCH19uEZ/3HLcfmJ9Wo6ZY417bROJvkUCBBYK6B/mwxWYRGtu7vDUf9pyDHZx+zAB9la9PL1UbzGw1UEzfJwzzmBrAtjj10P19v2temv/olqWMh2ExfNld7x8pcZ7uZkjCOxFYO/9Q93vTw5g+km0tE30jmv77/BxzmYmcXNcGPA0fX8y06yOEzFh1zyIaR6sDK412O/DM9HSwp9Z3nubOMNjM4FdC9xn/zAz4TSciTxKUrUPKpL+Ox1LpDOUu4RWSFoNY1ByfN3Y0jFCeLwTk2h1eeL3NcfXEEuGD0wGSbsrt+D7bBNXRnI6AjsV0D/Mr/gik2jDwBZmD9SBbxQgj09v4uyE7i/mdEGvHUDFWQF18IuJtRxks/9xhtpgMJU75IJ1Gu8FWHYlsDMB/UMyCyD04Sf6/G5bfFIfBz7JAKeJJXEA0w7M4v6hbXVxomloYf9j3x/2bx/mDPaTRNvZf0y3S2CjAvcYM9JEV2Tv981xbXzNJaWSdUn/nTt305/HOJHEoHb28/BrXfpjlOcqPLCpZ6LNTaKF8nQJwHgP13u9xzZxPR1nIrBvAf3D/PovMomWu71h4JsMqDE4xaB5eKlewqyzmDyLA6i4fXCx+jpxn7gtGZTFVUtfNd6lco4jcP8C+od0AJPWd/M0P/xhmMfw8f7cTOJhEu37S/VSfylZmzyLCbG0Px/EgZNxpRcXkgRbHGiNEn5xNnVT9myZ01ucWNYmJmCsJkDgDr8iJEl+JfU72TfX+8Q+/vhgvXnIcnom2vH06fHP1SGOFx4emj8gcNwxs9SW9/BSPY5iQCxPkqBrZ651D4Emj4nxI3PJM6vEjDNANhPYsYD+YX7lF5xEa2aA1YHmy0tV/3GB5MnNZECNSbTOqA2O3QAoBssQKN+q5IM97Wy3frCLp6mTa3EQFlfG13DNqW1xn/ZV4x2AeEuAQCegf8gl0WISqokJz4f4vmNrFmISrVsdY0gcjMT3oY9vP9Jf991xoNO8HmeidScazVg7OxMtObT5LrdBXKkHaYN1vWOOb7SJo4UlAgT6AvfWP4Tf7XOztCZ/56852kRW7+FKsi55WHJ8IB/HArH/T/rjUSyJD+JjLIl/UCwe2ybe5s5E61fh+F1S3t7GmWONe2sTPQNvCBD4kID+YT5fgUm0dKBzvNEmiRUD1vi1G/iEIJMk27oz1MEnHJcEwW5j8104U9vibrEM3UdH44aZgS3srvFGNK8ECAwF9A+DJFo7I6Dpc5vYkC53/X6AzA184vr6aX8ySIrwoe/uHrCk34kWd2hfB/v1k2iDfUdvk8Fc3CaJFiW8EiDwAYG7ihknfpf+UBIt8T0m0ZKV9V9bTuJDLpZ0MaAdo7TjjK5c4ZgrJdHyZYyJu/wYJr2bu2oT6Y1ZJkDgwwL6h/mEBSbR8jc3GVSGu4dA1yXRYkIu/2SrObQfEIenG72vBz/p9+aM9ji5QuM9yWMjgV0L6B+SZNhoQJUm0ZpmUseFmAQbDHzqGQ0heRa3X9qy6usfH9j0Enb1oOvUYGYwy2FpGTx4ubTW7E9gVwL3FDPiF/DX/frkxxyPfXL9SZWYuHqISbC07419dDIWyH5Ec/igIz3H8Xr9GBCaWfzjAW3c6sYeTRM83kcsx7hpdnGqd7/T+4/PMF5zT21ifHfWECDwEQH9w3y9u0mizb/lbe+p8W67fpSOwGcK6B8+U3+b19YmtlkvSkVgCwL6hy3UwrbKoE1sqz6UhsCWBPQP82tDEm2+1U321HhvwuwiBIoU0D8UWW2rFlqbWJXXyQkULaB/KLr6Vim8NrEKq5MSuAsB/cP8apREm291kz013pswuwiBIgX0D0VW26qF1iZW5XVyAkUL6B+Krr5VCq9NrMLqpATuQkD/ML8aJdHmW91kT433JswuQqBIAf1DkdW2aqG1iVV5nZxA0QL6h6Krb5XCaxOrsDopgbsQ0D/Mr0ZJtPlWN9lT470Js4sQKFJA/1Bkta1aaG1iVV4nJ1C0gP6h6OpbpfDaxCqsTkrgLgT0D/OrURJtvtVN9tR4b8LsIgSKFNA/FFltqxZam1iV18kJFC2gfyi6+lYpvDaxCquTErgLAf3D/GqURJtvdZM9X19fq58/f97kWi5CgEA5AqFfCP2DHwKpgJiRalgmQCAKiBlRwmsqIGakGpYJEIgCYkaUmPcqiTbP6WZ7ffv2rXp/f7/Z9VyIAIEyBEK/EPoHPwRSATEj1bBMgEAUEDOihNdUQMxINSwTIBAFxIwoMe9VEm2e0832+vHjRz3bJDRkM9Juxu5CBDYrEPqB0B+Ep8ehf/BDIBUQM1INywQIiBnawCkBMeOUjm0E9icgZiyrc0m0ZW6rHhUCXHhSFAbN4bPJ/jHQBvbbBkI/EPoDCbRVu92iTy5m7Ld/EBvU/bANiBlFd+c3KbyYod8Y9hve77dNiBnLul1JtGVujiJAgAABAgQIECBAgAABAgQIENiRgCTajirbrRIgQIAAAQIECBAgQIAAAQIECCwTkERb5uYoAgQIECBAgAABAgQIECBAgACBHQlIou2ost0qAQIECBAgQIAAAQIECBAgQIDAMgFJtGVujiJAgAABAgQIECBAgAABAgQIENiRgCTajirbrRIgQIAAAQIECBAgQIAAAQIECCwTkERb5uYoAgQIECBAgAABAgQIECBAgACBHQlIou2ost0qAQIECBAgQIAAAQIECBAgQIDAMgFJtGVujiJAgAABAgQIECBAgAABAgQIENiRgCTajirbrRIgQIAAAQIECBAgQIAAAQIECCwTkERb5uYoAgQIECBAgAABAgQIECBAgACBHQlIou2ost0qAQIECBAgQIAAAQIECBAgQIDAMgFJtGVujiJAgAABAgQIECBAgAABAgQIENiRgCTajirbrRIgQIAAAQIECBAgQIAAAQIECCwTkERb5uYoAgQIECBAgAABAgQIECBAgACBHQlIou2ost0qAQIECBAgQIAAAQIECBAgQIDAMgFJtGVujiJAgAABAgQIECBAgAABAgQIENiRgCTajirbrRIgQIAAAQIECBAgQIAAAQIECCwTkERb5uYoAgQIECBAgAABAgQIECBAgACBHQlIou2ost0qAQIECBAgQIAAAQIECBAgQIDAMgFJtGVujiJAgAABAgQIECBAgAABAgQIENiRgCTajirbrRIgQIAAAQIECBAgQIAAAQIECCwTkERb5uYoAgQIECBAgAABAgQIECBAgACBHQlIou2ost0qAQIECBAgQIAAAQIECBAgQIDAMgFJtGVujiJAgAABAgQIECBAgAABAgQIENiRgCTajirbrRIgQIAAAQIECBAgQIAAAQIECCwTkERb5uYoAgQIECBAgAABAgQIECBAgACBHQlIou2ost0qAQIECBAgQIAAAQIECBAgQIDAMgFJtGVujiJAgAABAgQIECBAgAABAgQIENiRgCTajirbrRIgQIAAAQIECBAgQIAAAQIECCwTkERb5uYoAgQIECBAgAABAgQIECBAgACBHQlIou2ost0qAQIECBAgQIAAAQIECBAgQIDAMgFJtGVuqx7148eP6tu3b9Xr62v1yy+/+MdAG9hxGwj9QOgPQr/gh0BOQMwQJ/2uoA3ENiBm5HpJ61IBMUN/EfsLr9qCmJH2jvOXJdHmW91kzxDYQmN+f3+vfv78eZNruggBAtsVCP1A6A9CvyCRtt16+qySiRmfJe+6BLYpIGZss162UioxYys1oRwEtiEgZiyrB0m0ZW6rHRVmnIQBsx8CBAikAqFfCP2DHwKpgJiRalgmQCAKiBlRwmsqIGakGpYJEIgCYkaUmPcqiTbP6WZ7hdkmZqDdjNuFCBQjEPqF0D/4IZAKiBmphmUCBKKAmBElvKYCYkaqYZkAgSggZkSJea+SaPOcbrZX+Gy6HwIECOQE9A85lX2v0yb2Xf/unsApAf3DKZ19btMm9lnv7prAHAH9wxylZh9JtPlWN9lT470Js4sQKFJA/1Bkta1aaG1iVV4nJ1C0gP6h6OpbpfDaxCqsTkrgLgT0D/OrURJtvtVN9tR4b8LsIgSKFNA/FFltqxZam1iV18kJFC2gfyi6+lYpvDaxCquTErgLAf3D/GqURJtvdZM9Nd6bMLsIgSIF9A9FVtuqhdYmVuV1cgJFC+gfiq6+VQqvTazC6qQE7kJA/zC/GiXR5lvdZE+N9ybMLkKgSAH9Q5HVtmqhtYlVeZ2cQNEC+oeiq2+VwmsTq7A6KYG7ENA/zK9GSbT5VjfZU+O9CbOLEChSQP9QZLWtWmhtYlVeJydQtID+oejqW6Xw2sQqrE5K4C4E9A/zq3HFJNqhen54qJ4PMwtzeK4ensY7v319rB6/vmVPErbljqm+v1SPJ659eHrInLMp79S1QgHCcQ8PZ/59eanypc3ewmilxjsisYIAgVbgnvuH0L/OjheTLeKtevmS9tHPVS+q1LFhsK4+V3tcJgbVm0N8yvTtdUzIrO+KF447FzMeHquX790RFy/cc5u4GMMBBAj0BO6+f6j79I/1odWgnx6OA/JjhjAoCP371LWbmDKKaWfGJ1U1jGFpPEuWp2JVr/bzb+6+TeRv21oCBGYI6B9mILW7rJZEqxNcpwYXmTLWA5I0MEwMXJpDJwJUG4Aen56rx4fMYCkEsFiuQeAcD3b6wXEykMZ7Sc8d1134qvFeCGZ3AjsSuN/+IfTn/f52ulqbBx7j/roZYPQHLW/VW5Kgmnrw0sSr5+r5Sy6Rl5bt9LVDmXoDsJMxLNxheu7pOz615X7bxKm7to0AgTkC994/jMYNEyh1Hz/1QCOOCdpj376nj8JDn5+LTU0seH7KP2CpE2zteObktesypWOVqbFNcmMhrqRjpWTTnMV7bxNzDOxDgEBeQP+Qd8mtvUoS7XyASJ6exCD2dJg3syvuH1+/vFS/yc4Ia4JcGlDrcg0CzeEpCYYnBzjjwU197liOqddBMM6hn1qn8Z7SsY3AvgXup384n4waJ8li3z01qDnRNiYemNQJr3pbO4ipZwmkA5pmtsExMXb62iHmHPeNMxUy8a8XP+J9nSj/iU330yZO3KRNBAgsErin/mHW7+C9vvX4UCM3HjgN2iSzxnEoxIdmW+zrQ7nicnPOsP0YR05fO8SU475mop2uFVsJEFhX4J5ixrpSVXWVJNqwkKcDxnDvhe9HT2LagDdKmj0cn9gcnttA1wzg6idIg4DbD5j9wc04UA7KbibaAMRbAgSuKXC3wW3Un59SO53Imj5yOFipqjpW9QYwMfEVBzWH6rl9MFIP4J6e668p6MeJfpKsN5gK93XywUqIW/04M13+/Ja7bRP527WWAIELBO65fzj7O3nitHRcEo7r9elVM37or+sn1cIx9Yzo+qHMY/X89HjmY/0x3oQCN+fqz6hObiQsXhQvB8dWVXXPbWJ8t9YQIHCJgP5hvtb1k2hnBw1p4drEVyaRdQxAbXDpnTcOPI7B5lQwbQY/g5lvIdnWO2darisvt4F0zvfeaLxXtnc6AnckcK/9w6n+e1x9zSDmVCKrv62JIXEw1A2mTvX/YVtIrtWvMUkWzrM0gTe+i9NrmtjWH6jlj7jXNpG/W2sJELhE4F77h64fn4lR758Za/RjRezr48yy+OAl9vvHMcf4srHP/qX3vZyhD7+0rONzz1wT49aZ3e+1TZy5bZsJEJghoH+YgdTucuUk2rzBzXFgkAtIybr0ozXpgKdbTvatbygGvBMA6WyxcJ4zMwueD801pgLt9PrkyZIk2okKsYkAgbkC9xnc4gBlrsKl+4fzHo8ZDmhCAu/kU//e95Y1MeY5+5UC7QDs6dDOcDsOyKbjRH+fYzmauHOMldM299kmpu/XFgIE5gvcZf9Q/07d7ztzfeyxP21nHQ8+qXJO8RgrjvGjPiYdR0ydpB5fNH/WJpyn+Z7mqTKH2cjhGlPbT6xPZzqHaw5nVmfKd5dtInOfVhEgcLmA/mG+2RWTaMcAkAauYVH6Mw6mE1T1OepAOZ6JVge2UbCJswSGyavkfTKQqssVk2h1EAplCfvG1+avcfbvpSlvf93wDj/2XuP9mJ+jCdyzwD32D/n+fDhoSD/yOBjQzKnwiUFX6Mv7SbRxH9+PWeHaz/XHc8LM4lD2cI74mvuYTX1/Fw7e5txS3Oce20S8N68ECHxM4O76h64vT2PC0Gjcjy/ph0PfP0rOhfHCMIkWxhJpMisdu4QPaMYkWh0H4lcExNdQ1uG9LIhxQ4IT7++uTZy4V5sIELhMQP8w3+tKSbQmgRaemvcHJOOC9Ack40DX+z6ANBANg1R96uHxzQAnPPtpgl+aQGufRHXJt/Z7CsJMtLlJtGHgHN/eh9dovB8mdAICdytwf/1DZrCQ9vvZmjz28/XAqOvTJwY8g3MMB1NdzKqf4g9mpdVlOZ43/tXn8B0385JouQHSoEAffHt/beKDIA4nQKATuKv+oe2Pm0+IDBNP3S1nv1esTmR9DX91sxmvjJJjSRwZPygfxKluLNCMQXoJtG78EeNGeOjy0MxEm5tEqx/wN7PY0ru61vJdtYlroTgPAQK1gP5hfkO4ShItTYx1A5KJMqT7xoRZLpjVQSwdTJ1IojXHh4B6DI7nPwYTE3DHYybLEe+lHWTl9juuOxXY44mmXzXeaRtbCOxd4N76h2FCq67ftN/PVXiy/TgwyuyYjRn9hynxwU/df6czCTKnC6tieUMcO/b5g+XerLPT8SWe43y8miiQL4mehrGFAIG7+hL5ly/xIce5hxPx9/tjAziOPUKf3H/AftxrfFyzLe3Hn6tDHYOafn+ccDue7XjsY/VyeKkek0Rd7Pub1/64oY4zk/vGeDN1D8Prj9/f2+8R4zu0hgCBpQL6h/lyV0mipZdbkkTrB6EkiCWDpeMfAWi2pwHoeHwuOIZ1SYBKgt9DvT6dUn3u45zpnWaW0/Kmm+v1SRnSbYNljXcA4i0BAp3AXfUPU/3iVD/aKsREVng7N4k2GpQkia5czDoOuOqrjL4o+jB7JlpXdRMLSbzr7dGsn5Ncu6s20TPwhgCBjwrcZ/8Q+sdTv1MP+9V0HJAbJ0Tl9LiwX0xYhdfkeiFGDR+6DONW76F7m3ibOxMtFmfqdeIBUT1OmkwQHk92n23ieH+WCBBYLqB/mG+3ShItTXDllo8DgzRgxULn1oX50YPvHKh3H+6bCY5JYAsDozjt+jgQu2ISLVvGqqrqMiQBON5q5lXjzaBYRYBALXA//UPTdx9jQVLBSZ+drG0X08FQf1ZZLtbE/j49z7Hvb9aOk2hJXKkHQm3fnZTrekm0/v0cy3nC57hTvXQ/bWJwY94SIPBhgfvsH5r+MdvnJ4mv+IC93+cPk2NpoqxZjscd8Qf9dIgFwyRa9/t/W7b2QU33QCYcc6UkWv9+jqWUREssLBIgsEjgPmPGIoqzB62SRBsHoGM5uoBSr0oGK/UX+sdgdkw41YmvNiiOB1zp8eGEE4E1mXXQlCTsF6dCxyTasYxNIBo8eUo211f6+pj5OM+x3IPdZ7/VeGdT2ZHA7gTupn8IA444oEgGPacHRY/Vy/8Tj2uqPgwmxnGhbRbdoKbfTIYDkPr9qAwxPhyPDfvF2BaTaMetx4HZZHnqJFyMccfXyf2PJz+5dDdt4uRd2kiAwBKB++wfwu/wp37fTscGw31DXz3u3xvb9LhUe5BEm/hetXFfnowvuiTa8bzH2DNVnvj9zsd40cTI6f2PZ59eus82MX2/thAgMF9A/zDf6upJtPmXtmdOQOPNqVhHgEAQ0D9oB0MBbWIo4j0BAlFA/xAlvEYBbSJKeCVAYCigfxiKTL+XRJu2+ZQtGu+nsLsogSIE9A9FVNNNC6lN3JTbxQgUJaB/KKq6blJYbeImzC5CoEgB/cP8apNEm291kz013pswuwiBIgX0D0VW26qF1iZW5XVyAkUL6B+Krr5VCq9NrMLqpATuQkD/ML8aJdHmW91kT433JswuQqBIAf1DkdW2aqG1iVV5nZxA0QL6h6Krb5XCaxOrsDopgbsQ0D/Mr0ZJtPlWN9lT470Js4sQKFJA/1Bkta1aaG1iVV4nJ1C0gP6h6OpbpfDaxCqsTkrgLgT0D/OrURJtvtVN9tR4b8LsIgSKFNA/FFltqxZam1iV18kJFC2gfyi6+lYpvDaxCquTErgLAf3D/GqURJtvdZM9X19fq58/f97kWi5CgEA5AqFfCP2DHwKpgJiRalgmQCAKiBlRwmsqIGakGpYJEIgCYkaUmPcqiTbP6WZ7ffv2rXp/f7/Z9VyIAIEyBEK/EPoHPwRSATEj1bBMgEAUEDOihNdUQMxINSwTIBAFxIwoMe9VEm2e0832+vHjRz3bJDRkM9Juxu5CBDYrEPqB0B+Ep8ehf/BDIBUQM1INywQIiBnawCkBMeOUjm0E9icgZiyrc0m0ZW6rHhUCXHhSFAbN4bPJ/jHQBvbbBkI/EPoDCbRVu92iTy5m7Ld/EBvU/bANiBlFd+c3KbyYod8Y9hve77dNiBnLul1JtGVujiJAgAABAgQIECBAgAABAgQIENiRgCTajirbrRIgQIAAAQIECBAgQIAAAQIECCwTkERb5uYoAgQIECBAgAABAgQIECBAgACBHQlIou2ost0qAQIECBAgQIAAAQIECBAgQIDAMgFJtGVujiJAgAABAgQIECBAgAABAgQIENiRgCTajirbrRIgQIAAAQIECBAgQIAAAQIECCwTkERb5uYoAgQIECBAgAABAgQIECBAgACBHQlIou2ost0qAQIECBAgQIAAAQIECBAgQIDAMgFJtGVujiJAgAABAgQIECBAgAABAgQIENiRgCTajirbrRIgQIAAAQIECBAgQIAAAQIECCwTkERb5uYoAgQIECBAgAABAgQIECBAgACBHQlIou2ost0qAQIECBAgQIAAAQIECBAgQIDAMgFJtGVujiJAgAABAgQIECBAgAABAgQIENiRgCTajirbrRIgQIAAAQIECBAgQIAAAQIECCwTkERb5uYoAgQIECBAgAABAgQIECBAgACBHQlIou2ost0qAQIECBAgQIAAAQIECBAgQIDAMgFJtGVujiJAgAABAgQIECBAgAABAgQIENiRgCTajirbrRIgQIAAAQIECBAgQIAAAQIECCwTkERb5uYoAgQIECBAgAABAgQIECBAgACBHQlIou2ost0qAQIECBAgQIAAAQIECBAgQIDAMgFJtGVujiJAgAABAgQIECBAgAABAgQIENiRgCTajirbrRIgQIAAAQIECBAgQIAAAQIECCwTkERb5uYoAgQIECBAgAABAgQIECBAgACBHQlIou2ost0qAQIECBAgQIAAAQIECBAgQIDAMgFJtGVujiJAgAABAgQIECBAgAABAgQIENiRgCTajirbrRIgQIAAAQIECBAgQIAAAQIECCwTkERb5uYoAgQIECBAgAABAgQIECBAgACBHQlIou2ost0qAQIECBAgQIAAAQIECBAgQIDAMgFJtGVujiJAgAABAgQIECBAgAABAgQIENiRgCTajirbrRIgQIAAAQIECBAgQIAAAQIECCwTkERb5uYoAgQIECBAgAABAgQIECBAgACBHQlIou2ost0qAQIECBAgQIAAAQIECBAgQIDAMgFJtGVuqx7148eP6tu3b9Xr62v1yy+/+MdAG9hxGwj9QOgPQr/ghwABAgQIECBAgAABAgQ+T0AS7fPss1cOA+UwaH5/f69+/vyZ3cdKAgT2IxD6gdAfhH5BIm0/9e5OCRAgQIAAAQIECBDYnoAk2sbqJMw4CQNmPwQIEEgFQr8Q+gc/BAgQIECAAAECBAgQIPA5ApJon+M+edUw28QMtEkeGwjsViD0C6F/8EOAAAECBAgQIECAAAECnyMgifY57pNXDd+B5ocAAQI5Af1DTsU6AgQIECBAgAABAgQI3EZAEu02zrOvYpA8m8qOBHYnoH/YXZW7YQIECBAgQIAAAQIENiQgibahyghFMUjeWIUoDoENCegfNlQZikKAAAECBAgQIECAwO4EJNE2VuUGyRurEMUhsCEB/cOGKkNRCBAgQIAAAQIECBDYnYAk2saq3CB5YxWiOAQ2JKB/2FBlKAoBAgQIECBAgAABArsTkETbWJUbJG+sQhSHwIYE9A8bqgxFIUCAAAFbNDZ8AAAgAElEQVQCBAgQIEBgdwIbSKK9VS9fHqrnQ2J/eK4eHp6rQ3Wonr+8VG/JpnTx7etj9fi1v/Xw9DBalx7TX26u/fDwUE39687//aV6PLFfd/xTeiP9q815Z5A8R8k+BPYpoH/YZ727awIECBAgQIAAAQIEtiHw+Um0kJwaJMrSRFguUdbQhQTYY/XyPYGsk2/jhFiTCMskzDLX7SXzklNXdRItJPZO/ITrS6KdALKJAIGPCEiifUTPsQQIECBAgAABAgQIEPiYwKcn0ULCrJe4qpNVaXJsYjZaTL6FxFVIhtXHPfSTWKNzBaxD9fyQnj8ChvUnkmT1uU5sr08tiRY1vRIgcH0BSbTrmzojAQIECBAgQIAAAQIE5gp8bhItJsJCauspJMBe6o92dh+NzHx8Mibcmv0PVVUn0Z6r53ZWWpi59vDwWD1+CTPSckmvfhKt2X88e60uQzpTLSbpMmXqlddMtLltz34ECFwoIIl2IZjdCRAgQIAAAQIECBAgcEWBT02iHZ7aGWFtMu1QJ8D6s8nSj3Z29x0TWiFhFWeidRv7H9uMSbdu82AmWp1EyyW+huetr5lLyh3PXJdl6lzZhF5ybLtokDw2sYYAgUZA/6AlECBAgAABAgQIECBA4PMEPjGJliS76hlf4f1z9RITaRMzvkJSrP4I6FP70ck02RWWH5qPhzYJuuM1uj8QcCqJFo6PSbD0vKF+JNE+r5W6MgECtYAkmoZAgAABAgQIECBAgACBzxP4xCRac9OHp/7sruHMsPFMtLfq5emleosJrzrZFT7OGWewhY9rhr/Qeajevr9Vb+kfHqgvmfk4Z5o4S5d9nPPzWqYrEyAwEpBEG5FYQYAAAQIECBAgQIAAgZsJfGoSrf5es2TGWZhldvI7ytpZZrVOL4n2Ur1VcdZZm5RLP/LZ4/xIEq2f8OudNryJZRptmL/CIHm+lT0J7E1A/7C3Gne/BAgQIECAAAECBAhsSeBTk2g5iPMz0dqjYsKqnokWZqa9VC9h1llMnsVZZHF7d7FmplrzxwDaj4+2s896s96Gx33k45zdtc8vGCSfN7IHgb0K6B/2WvPumwABAgQIECBAgACBLQhsIIkWZ5A9VA9fXqr6jwvEj1S2f7Xz+H1mCVlMonWr2uRYTJ7V333W/oXO8LHObqZa/Nhnc2CXtAvna2fF1de7ZhKtPveZWWztfRgkdxVqgQCBgYD+YQDiLQECBAgQIECAAAECBG4o8IlJtJg8a/9CZ3vT5z7O2SXURkm09gRdMmxe0qrqkmvHcsSPmfb+smec4ZZ8/DQm3XqvSQKwq0dJtI7CAgECywUk0ZbbOZIAAQIECBAgQIAAAQIfFfjEJFq+6N3MsPzm49peEi0m5PqzzI4755aOx/SSZd2uzcy2Lmnn45ydjAUCBD5HQBLtc9xdlQABAgQIECBAgAABAkFgc0m0vVeLQfLeW4D7JzAtoH+YtrGFAAECBAgQIECAAAECawtIoq0tfOH5DZIvBLM7gR0J6B92VNlulQABAgQIECBAgACBzQlIom2sSgySN1YhikNgQwL6hw1VhqIQIECAAAECBAgQILA7AUm0jVW5QfLGKkRxCGxIQP+wocpQFAIECBAgQIAAAQIEdicgibaxKjdI3liFKA6BDQnoHzZUGYpCgAABAgQIECBAgMDuBCTRNlblBskbqxDFIbAhAf3DhipDUQgQIECAAAECBAgQ2J2AJNrGqvz19bX6+fPnxkqlOAQIfLZA6BdC/+CHAAECBAgQIECAAAECBD5HQBLtc9wnr/rt27fq/f19crsNBAjsUyD0C6F/8EOAAAECBAgQIECAAAECnyMgifY57pNX/fHjRz3bJAyYzUibZLKBwG4EQj8Q+oMwCy30D34IECBAgAABAgQIECBA4HMEJNE+x/3kVcNAOcw4CYPm8B1I/jHQBvbbBkI/EPoDCbST3aaNBAgQIECAAAECBAgQWF1AEm11YhcgQIAAAQIECBAgQIAAAQIECBAoXUASrfQaVH4CBAgQIECAAAECBAgQIECAAIHVBSTRVid2AQIECBAgQIAAAQIECBAgQIAAgdIFJNFKr0HlJ0CAAAECBAgQIECAAAECBAgQWF1AEm11YhcgQIAAAQIECBAgQIAAAQIECBAoXUASrfQaVH4CBAgQIECAAAECBAgQIECAAIHVBSTRVid2AQIECBAgQIAAAQIECBAgQIAAgdIFJNFKr0HlJ0CAAAECBAgQIECAAAECBAgQWF1AEm11YhcgQIAAAQIECBAgQIAAAQIECBAoXUASrfQaVH4CBAgQIECAAAECBAgQIECAAIHVBSTRVid2AQIECBAgQIAAAQIECBAgQIAAgdIFJNFKr0HlJ0CAAAECBAgQIECAAAECBAgQWF1AEm11YhcgQIAAAQIECBAgQIAAAQIECBAoXUASrfQaVH4CBAgQIECAAAECBAgQIECAAIHVBSTRVid2AQIECBAgQIAAAQIECBAgQIAAgdIFJNFKr0HlJ0CAAAECBAgQIECAAAECBAgQWF1AEm11YhcgQIAAAQIECBAgQIAAAQIECBAoXUASrfQaVH4CBAgQIECAAAECBAgQIECAAIHVBSTRVid2AQIECBAgQIAAAQIECBAgQIAAgdIFJNFKr0HlJ0CAAAECBAgQIECAAAECBAgQWF1AEm11YhcgQIAAAQIECBAgQIAAAQIECBAoXUASrfQaVH4CBAgQIECAAAECBAgQIECAAIHVBSTRVid2AQIECBAgQIAAAQIECBAgQIAAgdIFJNFKr0HlJ0CAAAECBAgQIECAAAECBAgQWF1AEm11YhcgQIAAAQIECBAgQIAAAQIECBAoXUASrfQaVH4CBAgQIECAAAECBAgQIECAAIHVBSTRVid2AQIECBAgQIAAAQIECBAgQIAAgdIFJNFKr0HlJ0CAAAECBAgQIECAAAECBAgQWF1AEm11YhcgQIAAAQIECBAgQIAAAQIECBAoXUASrfQaVH4CBAgQIECAAAECBAgQIECAAIHVBSTRVid2AQIECBAgQIAAAQIECBAgQIAAgdIFJNFKr0HlJ0CAAAECBAgQIECAAAECBAgQWF1AEm11YhcgQIAAAQIECBAgQIAAAQIECBAoXUASrfQaVH4CBAgQIECAAAECBAgQIECAAIHVBSTRVid2AQIECBAgQIAAAQIECBAgQIAAgdIFJNFKr0HlJ0CAAAECBAgQIECAAAECBAgQWF1AEm11YhcgQIAAAQIECBAgQIAAAQIECBAoXUASrfQaVH4CBAgQIECAAAECBAgQIECAAIHVBSTRVid2AQIECBAgQIAAAQIECBAgQIAAgdIFJNFKr0HlJ0CAAAECBAgQIECAAAECBAgQWF1AEm11YhcgQIAAAQIECBAgQIAAAQIECBAoXUASrfQaVH4CBAgQIECAAAECBAgQIECAAIHVBSTRVid2AQIECBAgQIAAAQIECBAgQIAAgdIFJNFKr0HlJ0CAAAECBAgQIECAAAECBAgQWF1AEm11YhcgQIAAAQIECBAgQIAAAQIECBAoXUASrfQaVH4CBAgQIECAAAECBAgQIECAAIHVBSTRVid2AQIECBAgQIAAAQIECBAgQIAAgdIFJNFKr0HlJ0CAAAECBAgQIECAAAECBAgQWF1AEm11YhcgQIAAAQIECBAgQIAAAQIECBAoXWCbSbTXqvoPf1NVf/U6j/cvk33D8l+c+vfrqvpte9pf/21V/Yf/llwjue5f/bqqfp1s6i3+Q1X9xd/21lS//W/jdXGPettUmX5dVX/1t+MyD68d7usv/yGe8fga1g/3PW7tL4Vy9O63v9k7AgQIECBAgAABAgQIECBAgACBCYFNJtFCcmuYpMqVv95vkJzqEkr/cEwYTSXEhgmoXiIskyiLZQjX7SW02uTbKHk3SLRV7TnPJbOG5aqPS5J/4X7i9Uf7hkKG6wxczr2P54v36JUAAQIECBAgQIAAAQIECBAgQOAosI0k2lQS6kQiKCbLRgmteG9JEi2XaMolssJ+aTLpZPKtLXMoRzjuL5IkVyjC8Fx1sRYm0cI9djPIwnWTa+XuLRIMX3P3PNzHewIECBAgQIAAAQIECBAgQIAAgbHANpJoSbl6CaNk/dRinUQKyak2sRSOPzXrKiajYvKpnn028ZHK9DzxuLj/b9sk2l/GWWnt7K+Q4ArH9T6KeiJJGM+b3l8sW72uPW8837n7i0nAc/ul9xbt0jJYJkCAAAECBAgQIECAAAECBAgQOApsK4mWzO6KRewllOLK+NrO7Eo/7hiSR3UiKTMTLWwLSauQCIvJpi4JN5hNVifLhh/HTGedZcqaJq56ybG4b1vecO5YjvCaHheTW3GmXZgN1yXl2vPEhFpgOOkTndrXeN3Bam8JECBAgAABAgQIECBAgAABAgTOCGwqiRaTXGmZTyWJ6kTX4COfcWZY2NYlypJZasOkVUhWhev+VfjDAINzpe+7pFdIxIXzxcRYKGy7HPcJ1+0SYyERF5Nfg+RZTGoN7zvec31/oWxhptxrk/wL10h/4r7puu7aJ+4nvbd6OZMwTM9pmQABAgQIECBAgAABAgQIECCwZ4FNJdFCQmiU3Mmsi7O0uooLM7ySRFmXxBoku9JkVUhQpTO60tls4bwxgdVdo022/TokxJLzhqRdvHY9a+xvmwRbSLJ1P20SLdxbfc32I5rhfUzqDZNj4dhQ3nCvMYnWnS9ZyCXRks3dYrz3v2ydug0WCBAgQIAAAQIECBAgQIAAAQIEzgpsKomWK+2sJFEmiRYST79uk1X195S133sWZ4ulybo6gZUkttJtcblLcg2SaHEmW9gvJuXqZGCarGqTaMPk39RMtKFDTKLNmmGWXrc9UZoQTJe7v+JpFtqQ3HsCBAgQIECAAAECBAgQIECAQE+g6CRaLqlUf5wzfGyyTQyFhFb8KGRIdHXJsB5DVc2ZiVYfMkyivVbVX/1Dc7I6efY3zeyx+BHOOnGWzESLSbn4GsoTZ4l1RYrXaFfEJFq3PVk4l2QMx6YJvnBo5yZ5lkhaJECAAAECBAgQIECAAAECBAhMC2wiidYldTIf3YzJpuFrLxk2mIkWk0Zh1lX8XrRAMExWpdetZ60ls7h6M7ZSv0GCK2yKiao40yy+r5N34WOdbRItbo+nC9fIJtGS+4nnj7Pc4rHxdTKJ1s6sC8flknD1/SWz5+L5vBIgQIAAAQIECBAgQIAAAQIECIwFNpFEGxfruGYySXTcpTeLLCTG0sRZultMosXkWW+/Mx/n/Is4ayuTRKuv0SbKYgIvvW5Mog0TgeF9Lok2TODlkmDx/Dmf+v5ieZPvVAv7xmvG42PCr7u/uMErAQIECBAgQIAAAQIECBAgQIBAJ3D/SbQkuZVNcEWKweyvuHr0OkiixYRc/OMCo/3DirYMUzPR4vY0yZbOPLs0idYrQ3L/w+v39vOGAAECBAgQIECAAAECBAgQIEBgUmDzSbTJkttAgAABAgQIECBAgAABAgQIECBA4EYCkmg3gnYZAgQIECBAgAABAgQIECBAgACBcgUk0cqtOyUnQIAAAQIECBAgQIAAAQIECBC4kYAk2o2gXYYAAQIECBAgQIAAAQIECBAgQKBcAUm0cutOyQkQIECAAAECBAgQIECAAAECBG4kIIl2I2iXIUCAAAECBAgQIECAAAECBAgQKFdAEq3culNyAgQIECBAgAABAgQIECBAgACBGwlIot0I2mUIECBAgACB/7+9++uR5KrPAMyXCPYFHyoi3PAVEj4AV7mIIkBRwMh3SKBIKCsky0YikiUkhIRWWISApdiJRCzZyhIUY0w2rHcddsd4t6K3l99y9ri7p3emp7pOzVPS7Omqrj+nnnOqq+rd6hkCBAgQIECAAAECBMYVEKKN23ZqToAAAQIECBAgQIAAAQIECBAgMJOAEG0maJshQIAAAQIECBAgQIAAAQIECBAYV0CINm7bqTkBAgQIECBAgAABAgQIECBAgMBMAkK0maBthgABAgQIECBAgAABAgQIECBAYFwBIdq4bafmBAgQIECAAAECBAgQIECAAAECMwkcJUR7/uvT5IfBTH3WZggQIECAAAECBAgQIECAAAECswsI0QSARwtA33vvvckPA31AH9AH9AF9QB/QB/QBfUAf0Af0AX1AHzhFH7jqVO0oIdpVV9L6CRAgQIAAAQIECBAgQIAAAQIECJxSQIh2Sn3bJkCAAAECBAgQIECAAAECBAgQGEJAiDZEM6kkAQIECBAgQIAAAQIECBAgQIDAKQWEaKfUt20CBAgQIECAAAECBAgQIECAAIEhBIRoQzSTShIgQIAAAQIECBAgQIAAAQIECJxSQIh2Sn3bJkCAAAECBAgQIECAAAECBAgQGEJAiDZEM6kkAQIECBAgQIAAAQIECBAgQIDAKQWEaKfUt20CBAgQIECAAAECBAgQIECAAIEhBIRoQzSTShIgQIAAAQIECBAgQIAAAQIECJxSQIh2Sn3bJkCAAAECBAgQIECAAAECBAgQGEJAiDZEM6kkAQIECBAgQIAAAQIECBAgQIDAKQWEaKfUt20CBAgQIECAAAECBAgQIECAAIEhBIRoQzSTShIgQIAAAQIECBAgQIAAAQIECJxSQIh2Sn3bJkCAAAECBAgQIECAAAECBAgQGEJAiDZEM6kkAQIECBAgQIAAAQIECBAgQIDAKQWEaKfUt20CBAgQIECAAAECBAgQIECAAIEhBI4Wor3xm2n6i1em6TMvTtPzX/dziEGsYhY7AwECBAgQIECAAAECBAgQIECAwHIFjhKiJQQSnl08OIydIG25B4maESBAgAABAgQIECBAgAABAgSOEqLlaapDnrwyz26nGBoIECBAgAABAgQIECBAgAABAgSWKXCUEM1TaLvDsUODwxgaCBAgQIAAAQIECBAgQIAAAQIElilwlBDt0KDIfPvDtmV2EbUiQIAAAQIECBAgQIAAAQIECBAQoi3ojyDojgQIECBAgAABAgQIECBAgAABAssUEKIJ0ZbZM9WKAAECBAgQIECAAAECBAgQILAgASGaEG1B3VFVCBAgQIAAAQIECBAgQIAAAQLLFBCiCdGW2TPVigABAgQIECBAgAABAgQIECCwIIFFh2jldOk/SPDCw+nTf/ub6bm/fzDtWlfe+7O/vvWnebLMl25Pz7/w8PEyLzzajD/3dx8+WUdeZ71P5rlkIFf7qyRAgAABAgQIECBAgAABAgQIEFiWwKpDtArG/vKV3073Hjyc/vH1e5ugrAK1T//Nu5vxhGc33jjbtMyNf3/8FzS/8P1H07t3H04ps57P/sN707sffDzdfOf+k2XyOuvN+vcFdLuCu376srqG2hAgQIAAAQIECBAgQIAAAQIECJTAqkO0BGLbhntnj6Yb//Zw+ujjP7371u3H4VmCree+cmcTjCU0S0BWAduf5v7kqxtvfvzkCbU+HDt0/JNrNYUAAQIECBAgQIAAAQIECBAgQGAJAqsO0RJeJRy78a8PNk+K5euXb/324XTzv6bpaz95ON3+v8dPmvUhV5Zph7f+5/FTabfuTNONNz6abt76w+bnq689mH59b5pu//7RJERrxbwmQIAAAQIECBAgQIAAAQIECKxLYL0h2h9/h1l9DTNf5czXL//j/Y82X8f86mtnmxAtT5rl65z18/j3oD3afI2zvs6ZgCxPpWVdP/3lg+mNd882P1lXls97QrR1HRj2hgABAgQIECBAgAABAgQIECDQCiwqRGsrtu91/+TYtvHPvTJtnhLbtZ5/+e9HT32ds+bLk2VZtv2daLu+FlrLpKzfpbatLodOa9fnNQECBAgQIECAAAECBAgQIECAwHIEVhuiJbjK1zfrCbM8NVZ/FCB/WOCrP/l48zXMhGXbvtrZhmibdX3lzpN11TqrrKfXDg3Lds23nG6hJgQIECBAgAABAgQIECBAgAABAq3AokK0PlyqivbTDx3P7z7bNtw7mzZ/WODW7x5On3v5sBAtv0tt15CvfWY9h9Zr13y71m86AQIECBAgQIAAAQIECBAgQIDAaQVWHaI9/8LDKU+dPfmDAv/5h+nTX/rf6fkXHm2eRNuEaK9s/yMD9SRafudZLZ/fq1ZPn1WZaUK003ZiWydAgAABAgQIECBAgAABAgQIXLXAekO0Fx5Nf/VPH073zh5t/hpnniS79btH0607j6bP3ri7+Yud+aubeSqs/zrnc1+5s/mDAVk2Q55o8yTaVXdF6ydAgAABAgQIECBAgAABAgQILFdgtSFa/WGBBGAJyhKC3bz18fS1n06bIC1PodUfA+hDtLduP26wWraW9yTacjuymhEgQIAAAQIECBAgQIAAAQIErlJgtSFa/d6x+uMCb73/h+nmLx8/eXbjjbPp3XuPNn+Fc9uTaLVsW3oS7Sq7oXUTIECAAAECBAgQIECAAAECBJYtsOgQrQ2xLvq6/rjARx9Pm6fQsp48aVZPoWU8T6fd/v00feH7j59a27atfpmaJ+v59b3pSSBX0y9SLrurqB0BAgQIECBAgAABAgQIECBA4PoKrD5Eu0iYdaplrm83tOcECBAgQIAAAQIECBAgQIAAgWULCNG+vvvps7nDtGV3FbUjQIAAAQIECBAgQIAAAQIECFxfASGaEO369n57ToAAAQIECBAgQIAAAQIECBA4UECIJkQ7sKuYjQABAgQIECBAgAABAgQIECBwfQWEaEK069v77TkBAgQIECBAgAABAgQIECBA4EABIZoQ7cCuYjYCBAgQIECAAAECBAgQIECAwPUVOEqI9pkXl/PL+ef+YwDH2l4MDQQIECBAgAABAgQIECBAgAABAssUOEqI9ucvfTwdK0y6ruuJoYEAAQIECBAgQIAAAQIECBAgQGCZAkcJ0f751u8nT6Nd/Gm82MXQQIAAAQIECBAgQIAAAQIECBAgsEyBo4Ro9+/f34RAeZpKmHZ4mBarmCVAi6GBAAECBAgQIECAAAECBAgQIEBgmQJHCdEePnw4ffjhh34uYRBDAwECBAgQIECAAAECBAgQIECAwDIFjhKiZdcSAuVpKmHas4WJMROgLfPgUCsCBAgQIECAAAECBAgQIECAQAkcLUSrFSoJECBAgAABAgQIECBAgAABAgQIrE1AiLa2FrU/BAgQIECAAAECBAgQIECAAAECRxcQoh2d1AoJECBAgAABAgQIECBAgAABAgTWJiBEW1uL2h8CBAgQIECAAAECBAgQIECAAIGjCwjRjk5qhQQIECBAgAABAgQIECBAgAABAmsTEKKtrUXtDwECBAgQIECAAAECBAgQIECAwNEFjhKivffee5MfBvqAPqAP6AP6gD6gD+gD+oA+oA/oA/qAPqAP6AOn6gNHT826FR4tROvWa5QAAQIECBAgQIAAAQIECBAgQIDAUQXOzs6mu3fvTnfu3Nn85HWmJbi76kGIdtXC1k+AAAECBAgQIECAAAECBAgQIHAUgTZAa4M0IdpReK2EAAECBAgQIECAAAECBAgQIEBgDQIVnPWlEG0NrWsfCBAgQIAAAQIECBAgQIAAAQIEjiLQh2c1LkQ7Cq+VECBAgAABAgQIECBAgAABAgQIrEGgQrO+FKKtoXXtAwECBAgQIECAAAECBAgQIECAwFEE+vCsxoVoR+G1EgIECBAgQIAAAQIECBAgQIAAgTUIVGjWl0K0NbSufSBAgAABAgQIECBAgAABAgQIEDiKQB+e1bgQ7Si8VkKAAAECBAgQIECAAAECBAgQILAGgQrN+lKItobWtQ8ECBAgQIAAAQIECBAgQIAAAQJHEejDsxoXoh2F10oIECBAgAABAgQIECBAgAABAgTWIFChWV9emxAtO/72229Pb7311jP9ZJksayBAgAABAgQIECBAgAABAgQIEFi/QB+e1fi1CdESht2/f/+ZWzrLZFkDAQIE5hD48Y9/PH3+85/f+/PNb35zOjs7m6M6tkGAAAECBAgQIECAAIFrJ1ChWV9emxAtT6BddLjMshfd5pKX23eTn5v7GzduPBUAfPnLX57u3bv3ZJfyOtN610zP8u28TxZqXrz77rub5VMeOnz3u9/d1KnCh+xDphkIHFsg/TLHQEKu9PHqZykzfl4/T9/Mz64h66h+vGse0wksXSDHR46TbZ/j+/p4jp8XX3zxqeWyrhwTdawtfd/Vj8B5Ahc9PrYtd5FrpvPq530CpxbIddK2a6GcB3ZdQzl/nLrVbJ/AeAJ9eFbjQrQD2jIX9Esa6iY7F0s5WZwXOl1V3eNSJ6t9J6yc5No6tjdIdfOTaZmnn7evey4Gv/jFLz4V0vVP7VRdUtZ7NS3r23YS7bdjnMBlBOrYqDLHSV5nSB9+9dVXd66+7bfVf/ty24XjzhV6g8BCBerzvI6NVDOv9/XvOqbaXcrxlUAuy7XraufxmsBoAhc9PrYdP9vWNZqH+hLoBXK9lM//GuqepMb70vmjFzFOgMB5AhWa9aUQ7Ty5P17UHzDbbLPkBjwXRAmDcsJIEHWKoU5GOYm1IVVbl23BWHuSy37UUzvb5m3XlXnzBFvKbUPWm59+6OuX8T6UqPFd+9Gv0ziBXQL7+leOmW3vtzc9eX9fP8w62vl31cN0AksVSB+uz9zzysxbQ/ufLjUtn/l1PJx3jqhllASWLHDR4yP7lOPhzTff3BwT5x1b+84zS/ZRt+stkHuF3Auc17/7b8E4f1zvfmPvCVxUoA/PalyIdoBoexF/wOxXOktOArlIykkk9TrFRVBuVHY9DdbXpw/GUucsW0FY9mXfibDss94K0HLDlPXWUCfGftv1fqbXe1mu/ypQ5sv0rL+2V8sqCVxUIH0pfTt9vIa+/+U4qBA5fXTfsbDtvQoPav1KAiMI5Nhoj4vUuf2crn3IPO1ncl7X+aM+s/v11PmpPvNrXUoCowhc9PhI36/rpFH2Vex4Ta4AABlqSURBVD0JPKtAPvv7+4B+Hdvmcf7olYwTIHCIQIVmfSlEO0CvvYg/YPYrmaWCom030pk2Zx1zoZYg6uc///nmRqhufqrMTU1bz/rfoNqHugnqL/i2nfSCmfW2YUH2tfY579X6WvjaVluPep1lMmT7bYDR34y16/OawLMIpC+lX/7whz/c9NXqozlm2hA3fbnvdxmvPppt5nU7T9tvn6VO5iWwFIH6DK/P5H1lndvqMz3HUo6jlPVev181b3vc9PMYJ7BUgcseHzlHVMi87RjJceHYWGrrq9d5ArvuFdrl+nnqnOD80Sp5TYDAIQJ9eFbjQrQD9LZdhByw2JXMkrrUxU99rfNKNrRnpblASxCQ7ecGv/9J/SoEaE9kmZbQKj9ZRy1Xm2rnrWm7yrrIrO3smi/TU5/Utw3iMl0YsU/NexcVSH+rY7SO1/S1XLwlUE4AUP22PVZqe5m2L1TIe31frmWVBEYQqOOirWt/Psh7ORYyb4a8n37fhtB1Y1TzZLzOL+26vSYwksBFj4+cX9on0XLM1Lmo9j/XWZmnjpmariQwikD14fOuk9LPM28G549RWlc9CSxPoEKzvhSiHdBWS7jYSB12nTDmvqGuQCChQF63dauLtpT9kKdybt++vfMm57wQ7dATZ9teqV98Up9MT5mfTLt169amLvn9Ie3Jtq+3cQIXEUg/629gsp70ydzo51hoA4HaRpbJsjX066nlExgYCIwo0J4zdp3Xanp9nuf8kb7fHjNCtBFbX53PE7jI8ZH/1Mxy7fFRx0sFCdlu5pn7mvG8/fU+gWcROO9eIevq53H+eBZh8xIg0Ar04VmNC9FapR2v6yJ+x9uzTq6nz3JxlNenGLZdmKUeudmvG/42BGjr2D4pkLCgbpR2lbnYe+mll57Md17YlXVWe2VbOXHmp+pTQVzmyX4kzMh8WS4/BgKXFdjVr+vGpW78c7NT09pt7lq+PUa2Ldeuw2sCSxbI52//eVvnj7bemac+zzM9n99tSNCeT/J+P96uy2sCowgc8/jIuaI9hnJM1fXQKB7qSWCfQHtdf958zh/7hLxHgMA2gQrN+lKItk2rm9ZegHRvzTra/s9K6nSqC6GET3kKrb2pr9epU3+R1oZV+25y2v3bBnve+1mmvemqm7Iq835eVwDR1uvQk/C2eplGoBWokKz93OiPibxXT3K2y257XcfUtvdMI7AWgfZzetc+5XO6vQnqzwn7zi+71mk6gREELnJ8ZL/a80d//Iyw3+pIoBfI9VRd69f1fH/d1V7f1/J9/3f+KBklAQL7BPrwrMaFaPvU/vheezN8wOxXNktOCvX0WS6MTlWv1CM3MjkBtUNd5G0LDNoT3a7fWdOf0Np15/V572eeOrHmdZ5AyzJVr9Q7T7KlzJCynkTLeOarem5m8A+BCwjka5rpW+lLFS6nX9aQPpl+mPfa6XURWMucVx4awtV2lQROLfCsfbyOgfpczrHThmj5zO6PoV3nl1Pvu+0TOE/g2MdHtpdzUV2v5ZqxPV7Oq4/3CSxNIP25ruPTn+vc0Nazpve/qsX5o1XymgCBQwUqNOtLIdoBgqcKqw6o2klmyUnsWZ5Ea290cpG46yYnJ7icEFNuGzK9woe6udpW9u1VIVq/zuxHG6L17xsncFGBtq/mpiX9NP0wfbNe1w3TtovAdrvt8dNO95rAmgR2fU63+5jjqkK09maq5tl3fql5lARGFHjW46Pfxzrf9NdH/XzGCSxVoPpwjoUMu67h22Mlrys4dv5YasuqF4FlC/ThWY0L0Q5oNxcdTyPlxFX/s9m+UyeuvN+GbO0TM/tucnKCOy9E2/d+6pKTZd9eVa+qawUZCTPq5FrvKQlcViB9qu3ztb70w13T06/b3/23LRzeNi2hco4bA4HRBfrP6W37UzdB+aMwOWayTDvsO7+083lNYDSBZzk+co1zyH845hjKMWMgMKJAhWr9tdGu6yLnjxFbWZ0JnF6gQrO+vDYh2ttvvz3dv3//mVsiy2RZAwECBAgQIECAAAECBAgQIECAwPoF+vCsxq9NiJYdThiW/6F7lp8sk2UNBAgQIECAAAECBAgQIECAAAEC6xeo0Kwvr02Itv4mtocECBAgQIAAAQIECBAgQIAAAQKXFejDsxoXol1W1vIECBAgQIAAAQIECBAgQIAAAQKrEajQrC+FaKtpYjtCgAABAgQIECBAgAABAgQIECBwWYE+PKtxIdplZS1PgAABAgQIECBAgAABAgQIECCwGoEKzfpSiLaaJrYjBAgQIECAAAECBAgQIECAAAEClxXow7MaF6JdVtbyBAgQIECAAAECBAgQIECAAAECqxGo0KwvhWiraWI7QoAAAQIECBAgQIAAAQIECBAgcFmBPjyrcSHaZWUtT4AAAQIECBAgQIAAAQIECBAgsBqBCs36Uoi2mia2IwQIECBAgAABAgQIECBAgAABApcVuHv37tQHaJkmRLusrOUJECBAgAABAgQIECBAgAABAgRWI3B2dja1QVpeZ9pQIVoq64eBPqAP6AP6gD6gD+gD+oA+oA/oA/qAPqAP6AP6wCn6wFUnha+//vr0qctuJDAGAgQIECBAgAABAgQIECBAgAABAlcpsIon0a4SyLoJECBAgAABAgQIECBAgAABAgQItF/lrN+N5nei6RcECBAgQIAAAQIECBAgQIAAAQIEGoEKzvpyjm9J+jpn0xBeEiBAgAABAgQIECBAgAABAgQILFegD89qXIi23DZTMwIECBAgQIAAAQIECBAgQIAAgZkFKjTrSyHazA1hcwQIECBAgAABAgQIECBAgAABAssV6MOzGheiLbfN1IwAAQIECBAgQIAAAQIECBAgQGBmgQrN+lKINnND2BwBAgQIECBAgAABAgQIECBAgMByBfrwrMaFaMttMzUjQIAAAQIECBAgQIAAAQIECBCYWaBCs74Uos3cEDZHgAABAgQIECBAgAABAgQIECCwXIE+PKtxIdpy20zNCBAgQIAAAQIECBAgQIAAAQIEZhao0KwvhWgzN4TNESBAgAABAgQIECBAgAABAgQILFegD89qXIi23DZTMwIECBAgQIAAAQIECBAgQIAAgZkFKjTrSyHazA1hcwQIECBAgAABAgQIECBAgAABAssV6MOzGheiLbfN1IwAAQIECBAgQIAAAQIECBAgQGBmgQrN+lKINnND2BwBAgQIECBAgAABAgQIECBAgMByBfrwrMaFaMttMzUjQIAAAQIECBAgQIAAAQIECBCYWaBCs74Uos3cEDZHgAABAgQIECBAgAABAgQIECCwXIE+PKtxIdpy20zNCBAgQIAAAQIECBAgQIAAAQIEZhao0KwvhWgzN4TNESBAgAABAgQIECBAgAABAgQILFegD89qXIi23DZTMwIECBAgQIAAAQIECBAgQIAAgZkFKjTrSyHazA1hcwQIECBAgAABAgQIECBAgAABAssV6MOzGheiLbfN1IwAAQIECBAgQIAAAQIECBAgQGBmgQrN+lKINnND2BwBAgQIECBAgAABAgQIECBAgMByBfrwrMaFaMttMzUjQIAAAQIECBAgQIAAAQIECBCYWaBCs74Uos3cEDZHgAABAgQIEIjAa6+9Nr366qtPYfziF7+YvvGNb3ziJ9NrmW3vb5uW9Wf41a9+NX3ve9+bHjx4MGU9tc2UGf/ggw+ml19+eVNuFmj+yTJZNuvIfN/+9rc/Ubfa9re+9a3NfM3iXhIgQIAAAQIEhhTow7MaF6IN2ZwqTYAAAQIECIwqkPCqgqe2TED1s5/97EnIdcj+tSHXvvkrPKuyArQsk4DsBz/4wdbF2/UfGrZtXZGJBAgQIECAAIGBBCo060sh2kCNqKoECBAgQIDAOgQqxKpQq/Yq422wVq/zpFgCrX7YF2zVvHkirdbTl9netvezvZs3bz61XKZ5Eq1UlQQIECBAgMCaBfrwrMaFaGtudftGgAABAgQILE4gT37lq499oJVgLYFWfQ0zAdeu8Kx2Kuv6zne+s/WrmDVPlRXQZTs1JITL8llPhpT11c+MexKtpJQECBAgQIDAdRKo0KwvhWjXqRfYVwIECBAgQGBRAgm2KtR65513ngq0+hBt2xNjfRDXj1cgl20kuPvRj360Ce/q95fl66NtiNbWJ1D7QrS8l5AvyxgIECBAgAABAmsS6MOzGheiramV7QsBAgQIECCweIEEWn3YVeMVemUn+hBt245lXe0yu+apoK5Csnoarn4PW62jX18FZalffm/avq9zZp7znpzbVj/TCBAgQIAAAQJLE6jQrC+FaEtrKfUhQIAAAQIEroXAvjCtQrV9oVT7VcyEYBWE7cLL+xWmtfPUVzjff//9p55Kq/rVU2v971+rgM2TaK2m1wQIECBAgMAaBPrwrMaFaGtoXftAgAABAgQIDCeQkGpfAHXek2htKLYvRKswrIK5KiugqzAsX+usaYWZ9/I70hK0VdiW8VpHW+YptQRtBgIECBAgQIDA6AIVmvWlEG30llV/AgQIECBAYEiBXeFWG0z1oVbtaAK2ekIs07aFaJkn26iQrA3sMj3L1NCvr6a3IVqtr1828/ZPqdXySgIECBAgQIDAiAJ9eFbjQrQRW1OdCRAgQIAAgeEFEka1wVa/Q3lvW4hWv8+sXXZbiFbT8jXNLJN1VUCXbdeQAKx+11k7Pe+3IVqFZ1XW8imFaK2G1wQIECBAgMDoAhWa9aUQbfSWVX8CBAgQIEBgSIGEURVq7Sr7EC3BWPsEWu14pvcBWBt29UFZtpdlEsTV63pird1mhWj1Vzyznl319nXOag0lAQIECBAgMLpAH57VuBBt9JZVfwIECBAgQGBIgYRR7dNk/U70T6Jl/jbgauevp9PaMK5CrSy3K3jbNT3buXnz5iZgy3rylzkTumXI+up11cGTaCWhJECAAAECBNYgUKFZXwrR1tC69oEAAQIECBAgQIAAAQIECBAgQOAoAn14VuNCtKPwWgkBAgQIECBAgAABAgQIECBAgMAaBCo060sh2hpa1z4QIECAAAECBAgQIECAAAECBAgcRaAPz2pciHYUXishQIAAAQIECBAgQIAAAQIECBBYg0CFZn0pRFtD69oHAgQIECBAgAABAgQIECBAgACBowj04VmNC9GOwmslBAgQIECAAAECBAgQIECAAAECaxCo0KwvhWhraF37QIAAAQIECBAgQIAAAQIECBAgcBSBPjyrcSHaUXithAABAgQIECBAgAABAgQIECBAYA0CFZr1pRBtDa1rHwgQIECAAAECBAgQIECAAAECBI4i0IdnNS5EOwqvlRAgQIAAAQIECBAgQIAAAQIECKxBoEKzvhSiraF17QMBAgQIECBAgAABAgQIECBAgMBRBPrwrMaFaEfhtRICBAgQIECAAAECBAgQIECAAIE1CFRo1pdCtDW0rn0gQIAAAQIECBAgQIAAAQIECBA4ikAfntW4EO0ovFZCgAABAgQIECBAgAABAgQIECCwBoEKzfpSiLaG1rUPBAgQIECAAAECBAgQIECAAAECRxHow7MaF6IdhddKCBAgQIAAAQIECBAgQIAAAQIE1iBQoVlfCtHW0Lr2gQABAgQIECBAgAABAgQIECBA4CgCfXhW40K0o/BaCQECBAgQIECAAAECBAgQIECAwBoEKjTrSyHaGlrXPhAgQIAAAQIECBAgQIAAAQIECBxFoA/PalyIdhReKyFAgAABAgQIECBAgAABAgQIEFiDQIVmfSlEW0Pr2gcCBAgQIECAAAECBAgQIECAAIGjCPThWY0L0Y7CayUECBAgQIAAAQIECBAgQIAAAQJrEKjQrC+FaGtoXftAgAABAgQIECBAgAABAgQIECBwFIG7d+9OfYCWaUK0o/BaCQECBAgQIECAAAECBAgQIECAwBoEzs7OpjZIy+tMGypES2X9MNAH9AF9QB/QB/QBfUAf0Af0AX1AH9AH9AF9QB84RR+46pDw9ddfnz511RuxfgIECBAgQIAAAQIECBAgQIAAAQIjCwjRRm49dSdAgAABAgQIECBAgAABAgQIEJhFQIg2C7ONECBAgAABAgQIECBAgAABAgQIjCwgRBu59dSdAAECBAgQIECAAAECBAgQIEBgFgEh2izMNkKAAAECBAgQIECAAAECBAgQIDCygBBt5NZTdwIECBAgQIAAAQIECBAgQIAAgVkEhGizMNsIAQIECBAgQIAAAQIECBAgQIDAyAJCtJFbT90JECBAgAABAgQIECBAgAABAgRmERCizcJsIwQIECBAgAABAgQIECBAgAABAiMLCNFGbj11J0CAAAECBAgQIECAAAECBAgQmEVAiDYLs40QIECAAAECBAgQIECAAAECBAiMLCBEG7n11J0AAQIECBAgQIAAAQIECBAgQGAWASHaLMw2QoAAAQIECBAgQIAAAQIECBAgMLKAEG3k1lN3AgQIECBAgAABAgQIECBAgACBWQSEaLMw2wgBAgQIECBAgAABAgQIECBAgMDIAkK0kVtP3QkQIECAAAECBAgQIECAAAECBGYREKLNwmwjBAgQIECAAAECBAgQIECAAAECIwsI0UZuPXUnQIAAAQIECBAgQIAAAQIECBCYRUCINguzjRAgQIAAAQIECBAgQIAAAQIECIwsIEQbufXUnQABAgQIECBAgAABAgQIECBAYBYBIdoszDZCgAABAgQIECBAgAABAgQIECAwsoAQbeTWU3cCBAgQIECAAAECBAgQIECAAIFZBIRoszDbCAECBAgQIECAAAECBAgQIECAwMgCQrSRW0/dCRAgQIAAAQIECBAgQIAAAQIEZhEQos3CbCMECBAgQIAAAQIECBAgQIAAAQIjCwjRRm49dSdAgAABAgQIECBAgAABAgQIEJhFQIg2C7ONECBAgAABAgQIECBAgAABAgQIjCwgRBu59dSdAAECBAgQIECAAAECBAgQIEBgFgEh2izMNkKAAAECBAgQIECAAAECBAgQIDCygBBt5NZTdwIECBAgQIAAAQIECBAgQIAAgVkEhGizMNsIAQIECBAgQIAAAQIECBAgQIDAyAJCtJFbT90JECBAgAABAgQIECBAgAABAgRmERCizcJsIwQIECBAgAABAgQIECBAgAABAiMLCNFGbj11J0CAAAECBAgQIECAAAECBAgQmEVAiDYLs40QIECAAAECBAgQIECAAAECBAiMLCBEG7n11J0AAQIECBAgQIAAAQIECBAgQGAWASHaLMw2QoAAAQIECBAgQIAAAQIECBAgMLKAEG3k1lN3AgQIECBAgAABAgQIECBAgACBWQSEaLMw2wgBAgQIECBAgAABAgQIECBAgMDIAkK0kVtP3QkQIECAAAECBAgQIECAAAECBGYREKLNwmwjBAgQIECAAAECBAgQIECAAAECIwsI0UZuPXUnQIAAAQIECBAgQIAAAQIECBCYRUCINguzjRAgQIAAAQIECBAgQIAAAQIECIwsIEQbufXUnQABAgQIECBAgAABAgQIECBAYBYBIdoszDZCgAABAgQIECBAgAABAgQIECAwsoAQbeTWU3cCBAgQIECAAAECBAgQIECAAIFZBIRoszDbCAECBAgQIECAAAECBAgQIECAwMgCQrSRW0/dCRAgQIAAAQIECBAgQIAAAQIEZhEQos3CbCMECBAgQIAAAQIECBAgQIAAAQIjCwjRRm49dSdAgAABAgQIECBAgAABAgQIEJhFQIg2C7ONECBAgAABAgQIECBAgAABAgQIjCwgRBu59dSdAAECBAgQIECAAAECBAgQIEBgFgEh2izMNkKAAAECBAgQIECAAAECBAgQIDCygBBt5NZTdwIECBAgQIAAAQIECBAgQIAAgVkEhGizMNsIAQIECBAgQIAAAQIECBAgQIDAyAJCtJFbT90JECBAgAABAgQIECBAgAABAgRmERCizcJsIwQIECBAgAABAgQIECBAgAABAiMLCNFGbj11J0CAAAECBAgQIECAAAECBAgQmEVAiDYLs40QIECAAAECBAgQIECAAAECBAiMLCBEG7n11J0AAQIECBAgQIAAAQIECBAgQGAWASHaLMw2QoAAAQIECBAgQIAAAQIECBAgMLKAEG3k1lN3AgQIECBAgAABAgQIECBAgACBWQSEaLMw2wgBAgQIECBAgAABAgQIECBAgMDIAkK0kVtP3QkQIECAAAECBAgQIECAAAECBGYREKLNwmwjBAgQIECAAAECBAgQIECAAAECIwsI0UZuPXUnQIAAAQIECBAgQIAAAQIECBCYRUCINguzjRAgQIAAAQIECBAgQIAAAQIECIwsIEQbufXUnQABAgQIECBAgAABAgQIECBAYBYBIdoszDZCgAABAgQIECBAgAABAgQIECAwsoAQbeTWU3cCBAgQIECAAAECBAgQIECAAIFZBIRoszDbCAECBAgQIECAAAECBAgQIECAwMgCQrSRW0/dCRAgQIAAAQIECBAgQIAAAQIEZhEQos3CbCMECBAgQIAAAQIECBAgQIAAAQIjCwjRRm49dSdAgAABAgQIECBAgAABAgQIEJhFQIg2C7ONECBAgAABAgQIECBAgAABAgQIjCwgRBu59dSdAAECBAgQIECAAAECBAgQIEBgFgEh2izMNkKAAAECBAgQIECAAAECBAgQIDCyQEK0/wcMoozPEAhkPgAAAABJRU5ErkJggg==;strokeWidth=2;points=[];labelBackgroundColor=none;rounded=0;html=1;whiteSpace=wrap;" vertex="1" parent="1">
            <mxGeometry x="621" y="14" width="1000" height="598" as="geometry" />
          </mxCell>
        </UserObject>
        <UserObject label="&lt;div style=&quot;font-size: 1px&quot;&gt;&lt;p style=&quot;text-align:center;margin-left:0;margin-right:0;margin-top:0px;margin-bottom:0px;text-indent:0;vertical-align:middle;direction:ltr;&quot;&gt;&lt;font style=&quot;font-size:12px;font-family:0;color:#000000;direction:ltr;letter-spacing:0px;line-height:120%;opacity:1&quot;&gt;维修车辆，下拉&lt;/font&gt;&lt;/p&gt;&lt;/div&gt;" tags="Background" id="1Utzvzuvet02USVJ52bi-3">
          <mxCell style="verticalAlign=middle;align=center;overflow=width;vsdxID=3;fillColor=#FFFFFF;gradientColor=none;shape=stencil(nZBRDoQgDERP03+WHsHFe5iISyOCQdT19kIaIxq//Jtp3zTpAFaTaUYNUkwx+F6v1EYD+AUpyRkdKCYFqACrzgf9C352LfuxyWRWg1/yhT/nRE5IsZWuZtCSK8CPeI0e/hF+jV7AJM4PO7KWCyr390bSiNtEtQM=);strokeColor=#000000;strokeWidth=2;spacingTop=-3;spacingBottom=-3;spacingLeft=-3;spacingRight=-3;points=[];labelBackgroundColor=none;rounded=0;html=1;whiteSpace=wrap;" vertex="1" parent="1">
            <mxGeometry x="52" y="111" width="134" height="33" as="geometry" />
          </mxCell>
        </UserObject>
        <UserObject label="&lt;div style=&quot;font-size: 1px&quot;&gt;&lt;p style=&quot;text-align:center;margin-left:0;margin-right:0;margin-top:0px;margin-bottom:0px;text-indent:0;vertical-align:middle;direction:ltr;&quot;&gt;&lt;font style=&quot;font-size:12px;font-family:0;color:#000000;direction:ltr;letter-spacing:0px;line-height:120%;opacity:1&quot;&gt;维修日期&lt;/font&gt;&lt;/p&gt;&lt;/div&gt;" tags="Background" id="1Utzvzuvet02USVJ52bi-4">
          <mxCell style="verticalAlign=middle;align=center;overflow=width;vsdxID=4;fillColor=#FFFFFF;gradientColor=none;shape=stencil(nZBRDoQgDERP03+WHsHFe5iISyOCQdT19kIaIxq//Jtp3zTpAFaTaUYNUkwx+F6v1EYD+AUpyRkdKCYFqACrzgf9C352LfuxyWRWg1/yhT/nRE5IsZWuZtCSK8CPeI0e/hF+jV7AJM4PO7KWCyr390bSiNtEtQM=);strokeColor=#000000;strokeWidth=2;spacingTop=-3;spacingBottom=-3;spacingLeft=-3;spacingRight=-3;points=[];labelBackgroundColor=none;rounded=0;html=1;whiteSpace=wrap;" vertex="1" parent="1">
            <mxGeometry x="216" y="111" width="134" height="33" as="geometry" />
          </mxCell>
        </UserObject>
        <UserObject label="&lt;div style=&quot;font-size: 1px&quot;&gt;&lt;p style=&quot;text-align:center;margin-left:0;margin-right:0;margin-top:0px;margin-bottom:0px;text-indent:0;vertical-align:middle;direction:ltr;&quot;&gt;&lt;font style=&quot;font-size:12px;font-family:0;color:#000000;direction:ltr;letter-spacing:0px;line-height:120%;opacity:1&quot;&gt;是否事故&lt;/font&gt;&lt;/p&gt;&lt;/div&gt;" tags="Background" id="1Utzvzuvet02USVJ52bi-5">
          <mxCell style="verticalAlign=middle;align=center;overflow=width;vsdxID=5;fillColor=#FFFFFF;gradientColor=none;shape=stencil(nZBRDoQgDERP03+WHsHFe5iISyOCQdT19kIaIxq//Jtp3zTpAFaTaUYNUkwx+F6v1EYD+AUpyRkdKCYFqACrzgf9C352LfuxyWRWg1/yhT/nRE5IsZWuZtCSK8CPeI0e/hF+jV7AJM4PO7KWCyr390bSiNtEtQM=);strokeColor=#000000;strokeWidth=2;spacingTop=-3;spacingBottom=-3;spacingLeft=-3;spacingRight=-3;points=[];labelBackgroundColor=none;rounded=0;html=1;whiteSpace=wrap;" vertex="1" parent="1">
            <mxGeometry x="404" y="111" width="134" height="33" as="geometry" />
          </mxCell>
        </UserObject>
        <UserObject label="&lt;div style=&quot;font-size: 1px&quot;&gt;&lt;p style=&quot;text-align:center;margin-left:0;margin-right:0;margin-top:0px;margin-bottom:0px;text-indent:0;vertical-align:middle;direction:ltr;&quot;&gt;&lt;font style=&quot;font-size:12px;font-family:0;color:#000000;direction:ltr;letter-spacing:0px;line-height:120%;opacity:1&quot;&gt;事故选择，下拉，根据车辆id选择对应事故&lt;/font&gt;&lt;/p&gt;&lt;/div&gt;" tags="Background" id="1Utzvzuvet02USVJ52bi-6">
          <mxCell style="verticalAlign=middle;align=center;overflow=width;vsdxID=6;fillColor=#FFFFFF;gradientColor=none;shape=stencil(nZBRDoQgDERP03+WHsHFe5iISyOCQdT19kIaIxq//Jtp3zTpAFaTaUYNUkwx+F6v1EYD+AUpyRkdKCYFqACrzgf9C352LfuxyWRWg1/yhT/nRE5IsZWuZtCSK8CPeI0e/hF+jV7AJM4PO7KWCyr390bSiNtEtQM=);strokeColor=#000000;strokeWidth=2;spacingTop=-3;spacingBottom=-3;spacingLeft=-3;spacingRight=-3;points=[];labelBackgroundColor=none;rounded=0;html=1;whiteSpace=wrap;" vertex="1" parent="1">
            <mxGeometry x="47" y="167" width="145" height="65" as="geometry" />
          </mxCell>
        </UserObject>
        <UserObject label="&lt;div style=&quot;font-size: 1px&quot;&gt;&lt;p style=&quot;text-align:center;margin-left:0;margin-right:0;margin-top:0px;margin-bottom:0px;text-indent:0;vertical-align:middle;direction:ltr;&quot;&gt;&lt;font style=&quot;font-size:12px;font-family:0;color:#000000;direction:ltr;letter-spacing:0px;line-height:120%;opacity:1&quot;&gt;修理厂，type=2的合作伙伴&lt;/font&gt;&lt;/p&gt;&lt;/div&gt;" tags="Background" id="1Utzvzuvet02USVJ52bi-7">
          <mxCell style="verticalAlign=middle;align=center;overflow=width;vsdxID=7;fillColor=#FFFFFF;gradientColor=none;shape=stencil(nZBRDoQgDERP03+WHsHFe5iISyOCQdT19kIaIxq//Jtp3zTpAFaTaUYNUkwx+F6v1EYD+AUpyRkdKCYFqACrzgf9C352LfuxyWRWg1/yhT/nRE5IsZWuZtCSK8CPeI0e/hF+jV7AJM4PO7KWCyr390bSiNtEtQM=);strokeColor=#000000;strokeWidth=2;spacingTop=-3;spacingBottom=-3;spacingLeft=-3;spacingRight=-3;points=[];labelBackgroundColor=none;rounded=0;html=1;whiteSpace=wrap;" vertex="1" parent="1">
            <mxGeometry x="216" y="183" width="134" height="33" as="geometry" />
          </mxCell>
        </UserObject>
        <UserObject label="&lt;div style=&quot;font-size: 1px&quot;&gt;&lt;p style=&quot;text-align:center;margin-left:0;margin-right:0;margin-top:0px;margin-bottom:0px;text-indent:0;vertical-align:middle;direction:ltr;&quot;&gt;&lt;font style=&quot;font-size:12px;font-family:0;color:#000000;direction:ltr;letter-spacing:0px;line-height:120%;opacity:1&quot;&gt;工时费，子表计算&lt;/font&gt;&lt;/p&gt;&lt;/div&gt;" tags="Background" id="1Utzvzuvet02USVJ52bi-8">
          <mxCell style="verticalAlign=middle;align=center;overflow=width;vsdxID=8;fillColor=#FFFFFF;gradientColor=none;shape=stencil(nZBRDoQgDERP03+WHsHFe5iISyOCQdT19kIaIxq//Jtp3zTpAFaTaUYNUkwx+F6v1EYD+AUpyRkdKCYFqACrzgf9C352LfuxyWRWg1/yhT/nRE5IsZWuZtCSK8CPeI0e/hF+jV7AJM4PO7KWCyr390bSiNtEtQM=);strokeColor=#000000;strokeWidth=2;spacingTop=-3;spacingBottom=-3;spacingLeft=-3;spacingRight=-3;points=[];labelBackgroundColor=none;rounded=0;html=1;whiteSpace=wrap;" vertex="1" parent="1">
            <mxGeometry x="394" y="183" width="134" height="33" as="geometry" />
          </mxCell>
        </UserObject>
        <UserObject label="&lt;div style=&quot;font-size: 1px&quot;&gt;&lt;p style=&quot;text-align:center;margin-left:0;margin-right:0;margin-top:0px;margin-bottom:0px;text-indent:0;vertical-align:middle;direction:ltr;&quot;&gt;&lt;font style=&quot;font-size:12px;font-family:0;color:#000000;direction:ltr;letter-spacing:0px;line-height:120%;opacity:1&quot;&gt;配件费，子表计算&lt;/font&gt;&lt;/p&gt;&lt;/div&gt;" tags="Background" id="1Utzvzuvet02USVJ52bi-9">
          <mxCell style="verticalAlign=middle;align=center;overflow=width;vsdxID=9;fillColor=#FFFFFF;gradientColor=none;shape=stencil(nZBRDoQgDERP03+WHsHFe5iISyOCQdT19kIaIxq//Jtp3zTpAFaTaUYNUkwx+F6v1EYD+AUpyRkdKCYFqACrzgf9C352LfuxyWRWg1/yhT/nRE5IsZWuZtCSK8CPeI0e/hF+jV7AJM4PO7KWCyr390bSiNtEtQM=);strokeColor=#000000;strokeWidth=2;spacingTop=-3;spacingBottom=-3;spacingLeft=-3;spacingRight=-3;points=[];labelBackgroundColor=none;rounded=0;html=1;whiteSpace=wrap;" vertex="1" parent="1">
            <mxGeometry x="58" y="264" width="134" height="33" as="geometry" />
          </mxCell>
        </UserObject>
        <UserObject label="&lt;div style=&quot;font-size: 1px&quot;&gt;&lt;p style=&quot;text-align:center;margin-left:0;margin-right:0;margin-top:0px;margin-bottom:0px;text-indent:0;vertical-align:middle;direction:ltr;&quot;&gt;&lt;font style=&quot;font-size:12px;font-family:0;color:#000000;direction:ltr;letter-spacing:0px;line-height:120%;opacity:1&quot;&gt;总金额，相加&lt;/font&gt;&lt;/p&gt;&lt;/div&gt;" tags="Background" id="1Utzvzuvet02USVJ52bi-10">
          <mxCell style="verticalAlign=middle;align=center;overflow=width;vsdxID=10;fillColor=#FFFFFF;gradientColor=none;shape=stencil(nZBRDoQgDERP03+WHsHFe5iISyOCQdT19kIaIxq//Jtp3zTpAFaTaUYNUkwx+F6v1EYD+AUpyRkdKCYFqACrzgf9C352LfuxyWRWg1/yhT/nRE5IsZWuZtCSK8CPeI0e/hF+jV7AJM4PO7KWCyr390bSiNtEtQM=);strokeColor=#000000;strokeWidth=2;spacingTop=-3;spacingBottom=-3;spacingLeft=-3;spacingRight=-3;points=[];labelBackgroundColor=none;rounded=0;html=1;whiteSpace=wrap;" vertex="1" parent="1">
            <mxGeometry x="216" y="264" width="134" height="33" as="geometry" />
          </mxCell>
        </UserObject>
        <UserObject label="&lt;div style=&quot;font-size: 1px&quot;&gt;&lt;p style=&quot;text-align:center;margin-left:0;margin-right:0;margin-top:0px;margin-bottom:0px;text-indent:0;vertical-align:middle;direction:ltr;&quot;&gt;&lt;font style=&quot;font-size:12px;font-family:0;color:#000000;direction:ltr;letter-spacing:0px;line-height:120%;opacity:1&quot;&gt;实付金额，相加，可改&lt;/font&gt;&lt;/p&gt;&lt;/div&gt;" tags="Background" id="1Utzvzuvet02USVJ52bi-11">
          <mxCell style="verticalAlign=middle;align=center;overflow=width;vsdxID=11;fillColor=#FFFFFF;gradientColor=none;shape=stencil(nZBRDoQgDERP03+WHsHFe5iISyOCQdT19kIaIxq//Jtp3zTpAFaTaUYNUkwx+F6v1EYD+AUpyRkdKCYFqACrzgf9C352LfuxyWRWg1/yhT/nRE5IsZWuZtCSK8CPeI0e/hF+jV7AJM4PO7KWCyr390bSiNtEtQM=);strokeColor=#000000;strokeWidth=2;spacingTop=-3;spacingBottom=-3;spacingLeft=-3;spacingRight=-3;points=[];labelBackgroundColor=none;rounded=0;html=1;whiteSpace=wrap;" vertex="1" parent="1">
            <mxGeometry x="394" y="264" width="134" height="33" as="geometry" />
          </mxCell>
        </UserObject>
        <UserObject label="&lt;div style=&quot;font-size: 1px&quot;&gt;&lt;p style=&quot;text-align:center;margin-left:0;margin-right:0;margin-top:0px;margin-bottom:0px;text-indent:0;vertical-align:middle;direction:ltr;&quot;&gt;&lt;font style=&quot;font-size:12px;font-family:0;color:#000000;direction:ltr;letter-spacing:0px;line-height:120%;opacity:1&quot;&gt;维修人，录入&lt;/font&gt;&lt;/p&gt;&lt;/div&gt;" tags="Background" id="1Utzvzuvet02USVJ52bi-12">
          <mxCell style="verticalAlign=middle;align=center;overflow=width;vsdxID=12;fillColor=#FFFFFF;gradientColor=none;shape=stencil(nZBRDoQgDERP03+WHsHFe5iISyOCQdT19kIaIxq//Jtp3zTpAFaTaUYNUkwx+F6v1EYD+AUpyRkdKCYFqACrzgf9C352LfuxyWRWg1/yhT/nRE5IsZWuZtCSK8CPeI0e/hF+jV7AJM4PO7KWCyr390bSiNtEtQM=);strokeColor=#000000;strokeWidth=2;spacingTop=-3;spacingBottom=-3;spacingLeft=-3;spacingRight=-3;points=[];labelBackgroundColor=none;rounded=0;html=1;whiteSpace=wrap;" vertex="1" parent="1">
            <mxGeometry x="52" y="329" width="134" height="33" as="geometry" />
          </mxCell>
        </UserObject>
        <UserObject label="&lt;div style=&quot;font-size: 1px&quot;&gt;&lt;p style=&quot;text-align:center;margin-left:0;margin-right:0;margin-top:0px;margin-bottom:0px;text-indent:0;vertical-align:middle;direction:ltr;&quot;&gt;&lt;font style=&quot;font-size:12px;font-family:0;color:#000000;direction:ltr;letter-spacing:0px;line-height:120%;opacity:1&quot;&gt;保修时间，录入&lt;/font&gt;&lt;/p&gt;&lt;/div&gt;" tags="Background" id="1Utzvzuvet02USVJ52bi-13">
          <mxCell style="verticalAlign=middle;align=center;overflow=width;vsdxID=13;fillColor=#FFFFFF;gradientColor=none;shape=stencil(nZBRDoQgDERP03+WHsHFe5iISyOCQdT19kIaIxq//Jtp3zTpAFaTaUYNUkwx+F6v1EYD+AUpyRkdKCYFqACrzgf9C352LfuxyWRWg1/yhT/nRE5IsZWuZtCSK8CPeI0e/hF+jV7AJM4PO7KWCyr390bSiNtEtQM=);strokeColor=#000000;strokeWidth=2;spacingTop=-3;spacingBottom=-3;spacingLeft=-3;spacingRight=-3;points=[];labelBackgroundColor=none;rounded=0;html=1;whiteSpace=wrap;" vertex="1" parent="1">
            <mxGeometry x="216" y="329" width="134" height="33" as="geometry" />
          </mxCell>
        </UserObject>
        <UserObject label="&lt;div style=&quot;font-size: 1px&quot;&gt;&lt;p style=&quot;text-align:center;margin-left:0;margin-right:0;margin-top:0px;margin-bottom:0px;text-indent:0;vertical-align:middle;direction:ltr;&quot;&gt;&lt;font style=&quot;font-size:12px;font-family:0;color:#000000;direction:ltr;letter-spacing:0px;line-height:120%;opacity:1&quot;&gt;维修单号&lt;/font&gt;&lt;/p&gt;&lt;/div&gt;" tags="Background" id="1Utzvzuvet02USVJ52bi-14">
          <mxCell style="verticalAlign=middle;align=center;overflow=width;vsdxID=14;fillColor=#FFFFFF;gradientColor=none;shape=stencil(nZBRDoQgDERP03+WHsHFe5iISyOCQdT19kIaIxq//Jtp3zTpAFaTaUYNUkwx+F6v1EYD+AUpyRkdKCYFqACrzgf9C352LfuxyWRWg1/yhT/nRE5IsZWuZtCSK8CPeI0e/hF+jV7AJM4PO7KWCyr390bSiNtEtQM=);strokeColor=#000000;strokeWidth=2;spacingTop=-3;spacingBottom=-3;spacingLeft=-3;spacingRight=-3;points=[];labelBackgroundColor=none;rounded=0;html=1;whiteSpace=wrap;" vertex="1" parent="1">
            <mxGeometry x="-10" y="104" width="134" height="33" as="geometry" />
          </mxCell>
        </UserObject>
        <UserObject label="&lt;div style=&quot;font-size: 1px&quot;&gt;&lt;p style=&quot;text-align:center;margin-left:0;margin-right:0;margin-top:0px;margin-bottom:0px;text-indent:0;vertical-align:middle;direction:ltr;&quot;&gt;&lt;font style=&quot;font-size:12px;font-family:0;color:#000000;direction:ltr;letter-spacing:0px;line-height:120%;opacity:1&quot;&gt;入厂里程&lt;/font&gt;&lt;/p&gt;&lt;/div&gt;" tags="Background" id="1Utzvzuvet02USVJ52bi-15">
          <mxCell style="verticalAlign=middle;align=center;overflow=width;vsdxID=15;fillColor=#FFFFFF;gradientColor=none;shape=stencil(nZBRDoQgDERP03+WHsHFe5iISyOCQdT19kIaIxq//Jtp3zTpAFaTaUYNUkwx+F6v1EYD+AUpyRkdKCYFqACrzgf9C352LfuxyWRWg1/yhT/nRE5IsZWuZtCSK8CPeI0e/hF+jV7AJM4PO7KWCyr390bSiNtEtQM=);strokeColor=#000000;strokeWidth=2;spacingTop=-3;spacingBottom=-3;spacingLeft=-3;spacingRight=-3;points=[];labelBackgroundColor=none;rounded=0;html=1;whiteSpace=wrap;" vertex="1" parent="1">
            <mxGeometry x="216" y="71" width="134" height="33" as="geometry" />
          </mxCell>
        </UserObject>
        <UserObject label="&lt;div style=&quot;font-size: 1px&quot;&gt;&lt;p style=&quot;text-align:center;margin-left:0;margin-right:0;margin-top:0px;margin-bottom:0px;text-indent:0;vertical-align:middle;direction:ltr;&quot;&gt;&lt;font style=&quot;font-size:12px;font-family:0;color:#a23735;direction:ltr;letter-spacing:0px;line-height:120%;opacity:1&quot;&gt;/保养&lt;/font&gt;&lt;/p&gt;&lt;/div&gt;" tags="Background" id="1Utzvzuvet02USVJ52bi-16">
          <mxCell style="verticalAlign=middle;align=center;overflow=width;vsdxID=16;fillColor=none;gradientColor=none;shape=stencil(nZBLDoAgDERP0z3SI/i5B4koRAWC+Lu9kMaIxpW7mfZNkw5gOSvhJHA2B28Huek2KMAKONdGSa9DVIA1YNlZL3tvF9OSdyKRSU12TRd2yrGU4OzIXUPgqE0GFuw3evlP+Df6AKO4P6Ry8t27jTiiJrE+AQ==);strokeColor=#000000;strokeWidth=2;spacingTop=-3;spacingBottom=-3;spacingLeft=-3;spacingRight=-3;points=[];labelBackgroundColor=none;rounded=0;html=1;whiteSpace=wrap;" vertex="1" parent="1">
            <mxGeometry x="838" y="337" width="100" height="40" as="geometry" />
          </mxCell>
        </UserObject>
        <UserObject label="&lt;div style=&quot;font-size: 1px&quot;&gt;&lt;p style=&quot;text-align:center;margin-left:0;margin-right:0;margin-top:0px;margin-bottom:0px;text-indent:0;vertical-align:middle;direction:ltr;&quot;&gt;&lt;font style=&quot;font-size:30px;font-family:0;color:#a23735;direction:ltr;letter-spacing:0px;line-height:120%;opacity:1&quot;&gt;保养&lt;/font&gt;&lt;/p&gt;&lt;/div&gt;" tags="Background" id="1Utzvzuvet02USVJ52bi-17">
          <mxCell style="verticalAlign=middle;align=center;overflow=width;vsdxID=17;fillColor=none;gradientColor=none;shape=stencil(nZBLDoAgDERP0z3SI/i5B4koRAWC+Lu9kMaIxpW7mfZNkw5gOSvhJHA2B28Huek2KMAKONdGSa9DVIA1YNlZL3tvF9OSdyKRSU12TRd2yrGU4OzIXUPgqE0GFuw3evlP+Df6AKO4P6Ry8t27jTiiJrE+AQ==);strokeColor=#000000;strokeWidth=2;spacingTop=-3;spacingBottom=-3;spacingLeft=-3;spacingRight=-3;points=[];labelBackgroundColor=none;rounded=0;html=1;whiteSpace=wrap;" vertex="1" parent="1">
            <mxGeometry x="-79" y="389" width="357" height="65" as="geometry" />
          </mxCell>
        </UserObject>
        <UserObject label="&lt;div style=&quot;font-size: 1px&quot;&gt;&lt;p style=&quot;text-align:center;margin-left:0;margin-right:0;margin-top:0px;margin-bottom:0px;text-indent:0;vertical-align:middle;direction:ltr;&quot;&gt;&lt;font style=&quot;font-size:12px;font-family:0;color:#000000;direction:ltr;letter-spacing:0px;line-height:120%;opacity:1&quot;&gt;保养车辆，下拉&lt;/font&gt;&lt;/p&gt;&lt;/div&gt;" tags="Background" id="1Utzvzuvet02USVJ52bi-18">
          <mxCell style="verticalAlign=middle;align=center;overflow=width;vsdxID=18;fillColor=#FFFFFF;gradientColor=none;shape=stencil(nZBRDoQgDERP03+WHsHFe5iISyOCQdT19kIaIxq//Jtp3zTpAFaTaUYNUkwx+F6v1EYD+AUpyRkdKCYFqACrzgf9C352LfuxyWRWg1/yhT/nRE5IsZWuZtCSK8CPeI0e/hF+jV7AJM4PO7KWCyr390bSiNtEtQM=);strokeColor=#000000;strokeWidth=2;spacingTop=-3;spacingBottom=-3;spacingLeft=-3;spacingRight=-3;points=[];labelBackgroundColor=none;rounded=0;html=1;whiteSpace=wrap;" vertex="1" parent="1">
            <mxGeometry x="43" y="510" width="134" height="33" as="geometry" />
          </mxCell>
        </UserObject>
        <UserObject label="&lt;div style=&quot;font-size: 1px&quot;&gt;&lt;p style=&quot;text-align:center;margin-left:0;margin-right:0;margin-top:0px;margin-bottom:0px;text-indent:0;vertical-align:middle;direction:ltr;&quot;&gt;&lt;font style=&quot;font-size:12px;font-family:0;color:#000000;direction:ltr;letter-spacing:0px;line-height:120%;opacity:1&quot;&gt;保养日期&lt;/font&gt;&lt;/p&gt;&lt;/div&gt;" tags="Background" id="1Utzvzuvet02USVJ52bi-19">
          <mxCell style="verticalAlign=middle;align=center;overflow=width;vsdxID=19;fillColor=#FFFFFF;gradientColor=none;shape=stencil(nZBRDoQgDERP03+WHsHFe5iISyOCQdT19kIaIxq//Jtp3zTpAFaTaUYNUkwx+F6v1EYD+AUpyRkdKCYFqACrzgf9C352LfuxyWRWg1/yhT/nRE5IsZWuZtCSK8CPeI0e/hF+jV7AJM4PO7KWCyr390bSiNtEtQM=);strokeColor=#000000;strokeWidth=2;spacingTop=-3;spacingBottom=-3;spacingLeft=-3;spacingRight=-3;points=[];labelBackgroundColor=none;rounded=0;html=1;whiteSpace=wrap;" vertex="1" parent="1">
            <mxGeometry x="207" y="510" width="134" height="33" as="geometry" />
          </mxCell>
        </UserObject>
        <UserObject label="&lt;div style=&quot;font-size: 1px&quot;&gt;&lt;p style=&quot;text-align:center;margin-left:0;margin-right:0;margin-top:0px;margin-bottom:0px;text-indent:0;vertical-align:middle;direction:ltr;&quot;&gt;&lt;font style=&quot;font-size:12px;font-family:0;color:#000000;direction:ltr;letter-spacing:0px;line-height:120%;opacity:1&quot;&gt;修理厂，type=2的合作伙伴&lt;/font&gt;&lt;/p&gt;&lt;/div&gt;" tags="Background" id="1Utzvzuvet02USVJ52bi-20">
          <mxCell style="verticalAlign=middle;align=center;overflow=width;vsdxID=20;fillColor=#FFFFFF;gradientColor=none;shape=stencil(nZBRDoQgDERP03+WHsHFe5iISyOCQdT19kIaIxq//Jtp3zTpAFaTaUYNUkwx+F6v1EYD+AUpyRkdKCYFqACrzgf9C352LfuxyWRWg1/yhT/nRE5IsZWuZtCSK8CPeI0e/hF+jV7AJM4PO7KWCyr390bSiNtEtQM=);strokeColor=#000000;strokeWidth=2;spacingTop=-3;spacingBottom=-3;spacingLeft=-3;spacingRight=-3;points=[];labelBackgroundColor=none;rounded=0;html=1;whiteSpace=wrap;" vertex="1" parent="1">
            <mxGeometry x="370" y="510" width="134" height="33" as="geometry" />
          </mxCell>
        </UserObject>
        <UserObject label="&lt;div style=&quot;font-size: 1px&quot;&gt;&lt;p style=&quot;text-align:center;margin-left:0;margin-right:0;margin-top:0px;margin-bottom:0px;text-indent:0;vertical-align:middle;direction:ltr;&quot;&gt;&lt;font style=&quot;font-size:12px;font-family:0;color:#000000;direction:ltr;letter-spacing:0px;line-height:120%;opacity:1&quot;&gt;工时费，子表计算&lt;/font&gt;&lt;/p&gt;&lt;/div&gt;" tags="Background" id="1Utzvzuvet02USVJ52bi-21">
          <mxCell style="verticalAlign=middle;align=center;overflow=width;vsdxID=21;fillColor=#FFFFFF;gradientColor=none;shape=stencil(nZBRDoQgDERP03+WHsHFe5iISyOCQdT19kIaIxq//Jtp3zTpAFaTaUYNUkwx+F6v1EYD+AUpyRkdKCYFqACrzgf9C352LfuxyWRWg1/yhT/nRE5IsZWuZtCSK8CPeI0e/hF+jV7AJM4PO7KWCyr390bSiNtEtQM=);strokeColor=#000000;strokeWidth=2;spacingTop=-3;spacingBottom=-3;spacingLeft=-3;spacingRight=-3;points=[];labelBackgroundColor=none;rounded=0;html=1;whiteSpace=wrap;" vertex="1" parent="1">
            <mxGeometry x="43" y="569" width="134" height="33" as="geometry" />
          </mxCell>
        </UserObject>
        <UserObject label="&lt;div style=&quot;font-size: 1px&quot;&gt;&lt;p style=&quot;text-align:center;margin-left:0;margin-right:0;margin-top:0px;margin-bottom:0px;text-indent:0;vertical-align:middle;direction:ltr;&quot;&gt;&lt;font style=&quot;font-size:12px;font-family:0;color:#000000;direction:ltr;letter-spacing:0px;line-height:120%;opacity:1&quot;&gt;配件费，子表计算&lt;/font&gt;&lt;/p&gt;&lt;/div&gt;" tags="Background" id="1Utzvzuvet02USVJ52bi-22">
          <mxCell style="verticalAlign=middle;align=center;overflow=width;vsdxID=22;fillColor=#FFFFFF;gradientColor=none;shape=stencil(nZBRDoQgDERP03+WHsHFe5iISyOCQdT19kIaIxq//Jtp3zTpAFaTaUYNUkwx+F6v1EYD+AUpyRkdKCYFqACrzgf9C352LfuxyWRWg1/yhT/nRE5IsZWuZtCSK8CPeI0e/hF+jV7AJM4PO7KWCyr390bSiNtEtQM=);strokeColor=#000000;strokeWidth=2;spacingTop=-3;spacingBottom=-3;spacingLeft=-3;spacingRight=-3;points=[];labelBackgroundColor=none;rounded=0;html=1;whiteSpace=wrap;" vertex="1" parent="1">
            <mxGeometry x="211" y="569" width="134" height="33" as="geometry" />
          </mxCell>
        </UserObject>
        <UserObject label="&lt;div style=&quot;font-size: 1px&quot;&gt;&lt;p style=&quot;text-align:center;margin-left:0;margin-right:0;margin-top:0px;margin-bottom:0px;text-indent:0;vertical-align:middle;direction:ltr;&quot;&gt;&lt;font style=&quot;font-size:12px;font-family:0;color:#000000;direction:ltr;letter-spacing:0px;line-height:120%;opacity:1&quot;&gt;总金额，相加&lt;/font&gt;&lt;/p&gt;&lt;/div&gt;" tags="Background" id="1Utzvzuvet02USVJ52bi-23">
          <mxCell style="verticalAlign=middle;align=center;overflow=width;vsdxID=23;fillColor=#FFFFFF;gradientColor=none;shape=stencil(nZBRDoQgDERP03+WHsHFe5iISyOCQdT19kIaIxq//Jtp3zTpAFaTaUYNUkwx+F6v1EYD+AUpyRkdKCYFqACrzgf9C352LfuxyWRWg1/yhT/nRE5IsZWuZtCSK8CPeI0e/hF+jV7AJM4PO7KWCyr390bSiNtEtQM=);strokeColor=#000000;strokeWidth=2;spacingTop=-3;spacingBottom=-3;spacingLeft=-3;spacingRight=-3;points=[];labelBackgroundColor=none;rounded=0;html=1;whiteSpace=wrap;" vertex="1" parent="1">
            <mxGeometry x="375" y="563" width="134" height="33" as="geometry" />
          </mxCell>
        </UserObject>
        <UserObject label="&lt;div style=&quot;font-size: 1px&quot;&gt;&lt;p style=&quot;text-align:center;margin-left:0;margin-right:0;margin-top:0px;margin-bottom:0px;text-indent:0;vertical-align:middle;direction:ltr;&quot;&gt;&lt;font style=&quot;font-size:12px;font-family:0;color:#000000;direction:ltr;letter-spacing:0px;line-height:120%;opacity:1&quot;&gt;实付金额，相加，可改&lt;/font&gt;&lt;/p&gt;&lt;/div&gt;" tags="Background" id="1Utzvzuvet02USVJ52bi-24">
          <mxCell style="verticalAlign=middle;align=center;overflow=width;vsdxID=24;fillColor=#FFFFFF;gradientColor=none;shape=stencil(nZBRDoQgDERP03+WHsHFe5iISyOCQdT19kIaIxq//Jtp3zTpAFaTaUYNUkwx+F6v1EYD+AUpyRkdKCYFqACrzgf9C352LfuxyWRWg1/yhT/nRE5IsZWuZtCSK8CPeI0e/hF+jV7AJM4PO7KWCyr390bSiNtEtQM=);strokeColor=#000000;strokeWidth=2;spacingTop=-3;spacingBottom=-3;spacingLeft=-3;spacingRight=-3;points=[];labelBackgroundColor=none;rounded=0;html=1;whiteSpace=wrap;" vertex="1" parent="1">
            <mxGeometry x="43" y="621" width="134" height="33" as="geometry" />
          </mxCell>
        </UserObject>
        <UserObject label="&lt;div style=&quot;font-size: 1px&quot;&gt;&lt;p style=&quot;text-align:center;margin-left:0;margin-right:0;margin-top:0px;margin-bottom:0px;text-indent:0;vertical-align:middle;direction:ltr;&quot;&gt;&lt;font style=&quot;font-size:12px;font-family:0;color:#000000;direction:ltr;letter-spacing:0px;line-height:120%;opacity:1&quot;&gt;保养人，录入&lt;/font&gt;&lt;/p&gt;&lt;/div&gt;" tags="Background" id="1Utzvzuvet02USVJ52bi-25">
          <mxCell style="verticalAlign=middle;align=center;overflow=width;vsdxID=25;fillColor=#FFFFFF;gradientColor=none;shape=stencil(nZBRDoQgDERP03+WHsHFe5iISyOCQdT19kIaIxq//Jtp3zTpAFaTaUYNUkwx+F6v1EYD+AUpyRkdKCYFqACrzgf9C352LfuxyWRWg1/yhT/nRE5IsZWuZtCSK8CPeI0e/hF+jV7AJM4PO7KWCyr390bSiNtEtQM=);strokeColor=#000000;strokeWidth=2;spacingTop=-3;spacingBottom=-3;spacingLeft=-3;spacingRight=-3;points=[];labelBackgroundColor=none;rounded=0;html=1;whiteSpace=wrap;" vertex="1" parent="1">
            <mxGeometry x="207" y="621" width="134" height="33" as="geometry" />
          </mxCell>
        </UserObject>
        <UserObject label="&lt;div style=&quot;font-size: 1px&quot;&gt;&lt;p style=&quot;text-align:center;margin-left:0;margin-right:0;margin-top:0px;margin-bottom:0px;text-indent:0;vertical-align:middle;direction:ltr;&quot;&gt;&lt;font style=&quot;font-size:12px;font-family:0;color:#000000;direction:ltr;letter-spacing:0px;line-height:120%;opacity:1&quot;&gt;后续保养方式&lt;/font&gt;&lt;/p&gt;&lt;/div&gt;" tags="Background" id="1Utzvzuvet02USVJ52bi-26">
          <mxCell style="verticalAlign=middle;align=center;overflow=width;vsdxID=26;fillColor=#FFFFFF;gradientColor=none;shape=stencil(nZBRDoQgDERP03+WHsHFe5iISyOCQdT19kIaIxq//Jtp3zTpAFaTaUYNUkwx+F6v1EYD+AUpyRkdKCYFqACrzgf9C352LfuxyWRWg1/yhT/nRE5IsZWuZtCSK8CPeI0e/hF+jV7AJM4PO7KWCyr390bSiNtEtQM=);strokeColor=#000000;strokeWidth=2;spacingTop=-3;spacingBottom=-3;spacingLeft=-3;spacingRight=-3;points=[];labelBackgroundColor=none;rounded=0;html=1;whiteSpace=wrap;" vertex="1" parent="1">
            <mxGeometry x="43" y="673" width="134" height="33" as="geometry" />
          </mxCell>
        </UserObject>
        <UserObject label="&lt;div style=&quot;font-size: 1px&quot;&gt;&lt;p style=&quot;text-align:center;margin-left:0;margin-right:0;margin-top:0px;margin-bottom:0px;text-indent:0;vertical-align:middle;direction:ltr;&quot;&gt;&lt;font style=&quot;font-size:12px;font-family:0;color:#000000;direction:ltr;letter-spacing:0px;line-height:120%;opacity:1&quot;&gt;保养单号&lt;/font&gt;&lt;/p&gt;&lt;/div&gt;" tags="Background" id="1Utzvzuvet02USVJ52bi-27">
          <mxCell style="verticalAlign=middle;align=center;overflow=width;vsdxID=27;fillColor=#FFFFFF;gradientColor=none;shape=stencil(nZBRDoQgDERP03+WHsHFe5iISyOCQdT19kIaIxq//Jtp3zTpAFaTaUYNUkwx+F6v1EYD+AUpyRkdKCYFqACrzgf9C352LfuxyWRWg1/yhT/nRE5IsZWuZtCSK8CPeI0e/hF+jV7AJM4PO7KWCyr390bSiNtEtQM=);strokeColor=#000000;strokeWidth=2;spacingTop=-3;spacingBottom=-3;spacingLeft=-3;spacingRight=-3;points=[];labelBackgroundColor=none;rounded=0;html=1;whiteSpace=wrap;" vertex="1" parent="1">
            <mxGeometry x="43" y="470" width="134" height="33" as="geometry" />
          </mxCell>
        </UserObject>
        <UserObject label="&lt;div style=&quot;font-size: 1px&quot;&gt;&lt;p style=&quot;text-align:center;margin-left:0;margin-right:0;margin-top:0px;margin-bottom:0px;text-indent:0;vertical-align:middle;direction:ltr;&quot;&gt;&lt;font style=&quot;font-size:12px;font-family:0;color:#000000;direction:ltr;letter-spacing:0px;line-height:120%;opacity:1&quot;&gt;入厂里程&lt;/font&gt;&lt;/p&gt;&lt;/div&gt;" tags="Background" id="1Utzvzuvet02USVJ52bi-28">
          <mxCell style="verticalAlign=middle;align=center;overflow=width;vsdxID=28;fillColor=#FFFFFF;gradientColor=none;shape=stencil(nZBRDoQgDERP03+WHsHFe5iISyOCQdT19kIaIxq//Jtp3zTpAFaTaUYNUkwx+F6v1EYD+AUpyRkdKCYFqACrzgf9C352LfuxyWRWg1/yhT/nRE5IsZWuZtCSK8CPeI0e/hF+jV7AJM4PO7KWCyr390bSiNtEtQM=);strokeColor=#000000;strokeWidth=2;spacingTop=-3;spacingBottom=-3;spacingLeft=-3;spacingRight=-3;points=[];labelBackgroundColor=none;rounded=0;html=1;whiteSpace=wrap;" vertex="1" parent="1">
            <mxGeometry x="207" y="470" width="134" height="33" as="geometry" />
          </mxCell>
        </UserObject>
        <UserObject label="" tags="Background" id="1Utzvzuvet02USVJ52bi-29">
          <mxCell style="vsdxID=29;fillColor=none;gradientColor=none;image;aspect=fixed;image=data:image/png,iVBORw0KGgoAAAANSUhEUgAABDsAAACqCAYAAACjxkTXAAAgAElEQVR4Ae3dT67bRoI/8DlGL2b9gLnLXMB3ePAZ+gSGMUAe5gK9mUUMvGwHMBptozc/w+jFBIh70+4kCAZGHCQbzyaoH4pkUcVSiaT+Pon8PMAtiSKLrE9Vh6yvitK/BH8ECBAgQIAAAQIECBAgQIAAgRsSePfuXRj79y83VBeHSoAAAQIECBAgQIAAAQIECBAYDTpiCCLs0EkIECBAgAABAgQIECBAgACBmxIYm9Uh7LippnSwBAgQIECAAAECBAgQIECAQBQQdugHBAgQIECAAAECBAgQIECAwKIEhB2Lak6VIUCAAAECBAgQIECAAAECBIQd+gABAgQIECBAgAABAgQIECCwKAFhx6KaU2UIECBAgAABAgQIECBAgAABYYc+QIAAAQIECBAgQIAAAQIECCxKQNixqOZUGQIECBAgQIAAAQIECBAgQEDYoQ8QIECAAAECBAgQIECAAAECixIQdiyqOVWGAAECBAgQIECAAAECBAgQEHboAwQIECBAgAABAgQIECBAgMCiBIQdi2pOlSFAgAABAgQIECBAgAABAgSEHfoAAQIECBAgQIAAAQIECBAgsCgBYceimlNlCBAgQIAAAQIECBAgQIAAAWGHPkCAAAECBAgQIECAAAECBAgsSkDYsajmVBkCBAgQIECAAAECBAgQIEBA2KEPECBAgAABAgQIECBAgAABAosSEHYsqjlVhgABAgQIECBAgAABAgQIEBB26AMECBAgQIAAAQIECBAgQIDAogSEHYtqTpUhQIAAAQIECBAgQIAAAQIEhB36wMkEfvvtt/DDDz+Ejx8/hu+++84/BvrAFfWBP7wMwT8Gc/vAv/5HCP/+XyH87X9PdopQEAECBAgQIEDgogLCjotyL3dnv/76a/jnP/8Zfv755+VW8siaxQDI37gAo3GfY96dO8i1nkCk7AMCj2P+n2dbAgQIECBA4KkEhB1PJb+w/cYZHZ8/f15YrU5bHQP5aU9G00aHrlEOYL0WaszpA//2n+0Mj0P7ne0IECBAgAABAk8lIOx4KvmF7TfeuuJvXMBAftwnvsto2ujQNeYMbK0jAKn1gXhLiz8CBAgQIECAwK0JCDturcWu9HgNUqcbhhGjaYHzrVEbxFom3JjbB87XM5VMgAABAgQIEDiPgLDjPK6rK9VAfrrJGTGaFjjfGnMHtdYTgNT6wPl6ppIJECBAgAABAucREHacx3V1pRrITzc5I0bTAudbozaAtUywMbcPnK9nKpkAAQIECBAgcB4BYcd5XFdXqoH8dJMzYjQtcL415g5qrScAqfWB8/VMJRMgQIAAAQIEziMg7DiP6+pKNZCfbnJGjKYFzrdGbQBrmWBjbh84X89UMgECBAgQIEDgPALCjvO4rq5UA/npJmfEaFrgfGvMHdRaTwBS6wPn65lKJkCAAAECBAicR2AVYcf7r+7C3V36dx8ef8ow3z+Eu7uH8D5b1D79FB6f34WH7Tf6NWO59998Cp++uc/KT/tJj8X+mq3bsu+eP4ZPfWkhNMdZLMveHj7dedzD1Xa9ivtq6taUUzvGXVvWl59iIP/L2xfh2dcftnawa/nWijsX/BLevHwWXv19uMKHr59t9vfzm/Di2bPwbNe/ynENS5t+9XRGH8KrXfXaWv4qbLXA31+1Ll9/CE1bbG3TupW+0yLbaxxtlI51xzGW7bvfMW/3o+ixVUY8hqy/7Oq/Y5b5cb54+8s21AFLagPYfZb98fsQPvxPEQT8Twjh82ZZXCd/ncpvls845l+/35SVtv1DsY9++csQ/vJ/lWN6WSljz2XpeP/y5/llNdv8Xwh/LPYVl++sV8Wk2Wesc/HXlPHnEH4tls95uU89ct/8+Zz9WIcAAQIECBAgcE0CCwk7uvCgDzRS0NA+xkBi8/cpfMrCjn7Q36zwPjzsKCOGJcNy4rptSBDDjuF7aW+bddriY7AyPLax12NBSyyvCVnmhiPpkLrHVO9PP30K4afHcF8NfIqNRl4ePUgNoR1IZ4PEze7aQeb2oK9dng8Mnz2rDNbD9iA1lb1rIJrebx6LwevgvT1ePI1RPMAYdrwIb37ODzYuK6yawCctywOStKxto13tsDXoz3c38/nRRrGtXr4J0/FA3icO70cpsHj199xrJDR7tgnd4rbblkOoOesMt9j9Kh+4HvI8BQAx8NgKxHbsNoUjOwf8WTAwts6fPocQiiDh3EHHjio1i2vhweB4YljRHe/OelVCnFhGH3Zk9d1ZRuY3aNMuFPnTrvcPWD7m4T0CBAgQIECAwDUKLCrsmAoHthogzmr4Kk7dqM3iqC3LSojbdkHD7LAj27x/mpXTLxs8GQ9g6mHJfXj87/2Clbacw2d4HD1ILcKONIgcBhnZILIZ0OYD1hDCYLCeIxbrdfuaGmj2JVxp2DHPKNZi/kB8KywqTOuD723f3m7PJ0f3oyPCjj6sKeq8qUK9nk075CFd0V+23u8KrFtu9hafzVlnuMXuV4PB8AGD3bh9HHQPZm4UA/at97v9zBms19aJg/9Zf1kwcEw9m1Cl2+GuQGNQ/+RYhAuxnMmgp7CLxy3smNXaViJAgAABAgQIzBJYcdgRw4zu9pUucHg/ejtKnJGRwoBhEHJ02NEELrPaK4Q+oJm5/o7Vdh/zjg0mFh81SG0Gl1mQ8exFePV1/ZaW5jDi+iNhx5t4O8zIbQxxUDsYRMbBaWX9PgwpBq8TFDvffhqjeDgx7NhzZkfN5OWb8GHEtg8LdgpMv3GUUSw+HvfEcca2fvH2Q3ZrUxFidGHHZD/6f6kfTtertsagD9ZWuKawIw7mjwgUakFGGUrU1ukH/ylUeNnOKhnMWDjy2NJxxP3nQUYze6W7Rad5L3SzLrJjSds2oUy6nacLPnY0aT/jo7k9p7LSnJkdeSiTF5EClj8U4Us6zmMe8/14ToAAAQIECBC4BYFFhR31WQ6120buw+Pf4q0b6b0UYoQ2TKjd0pHPwIjP7zbf59HcTtKXlcpMj1nZ3QySWce5IwBp9rXjvX063Jywo/kOkZn7OnqQWszs2NSlHYj2wcPmjbhFNmA9YmZHJcyI3+fR77Py/uAwZr54GqN4cAeEHV2d4oB8a7bHzPoestrRRl3YcchtLH1Ys8fMjuZ7X5rbgebPnkn7aW3zkK/+vO+Hh4Bm2xwz0I3bpgF2DBoOuY0lO5SdT8vvtrj0zI7SKNU53ZJSvt+8jjM04l8XdjTbpOCjmw1T1qvfLlsvLuvDnVhmFi6VQVDcRx9sdOFL3LZfJuzoGsUDAQIECBAgsGaBRYUde9/G0n3vxdZ26Tss4mNzq0p7K0m7Xvs9HPfZl5cOgoM8FAnFd3ZUelr67ozKW9VF48HKJoBJt+ZUg5VYpxkzRJ4m7HgT3rzcfEdE+qS+Pnhtw47hrIy4bTm4L0KR8hPzOEC+9pkdXW9oBshf72MUN5w/EB8GG5lvM5Nmqpys3aq9d3rhScOO0XbN+0RWz74fzOtHje7Xm+/haGsYnZJFvp9h/bdndmyvu73OsIx9XlUH6pVZCmPr1QbZMfhIMy0GA+6s7HKwngb2/eB8RyjQD/6zsvL9Ncd6ipkdO2Zj9Me34/04CyMez1+yWSHl8dXq3hz3Ebex1NphYC/s2Of/GtYlQIAAAQIEFiqw7rAjhhn5zIUUcqTG7sOOtCA0X+b58M2n5pdTtkKSuNog7Mi2a4KPNNtj7uP2r8TEAGLWl6Hmu272XZRVq9tgm/1eHD1I7W9laW+3aD8xr3/S3QYTcb1icJh/Ij/4hL9YrxZ25N+5EOOBa5zZcZBRbMcy/EnL0oC8a+vcLy6Kr1++CC+evQqvco9u9WiUZil0i45+OLof5e0en+9s17xP5M+LGUJ5eeVMoqK203322cSXpxbHUZR/7MuxEGPf95rZC1MHlM1MqJU/GJxnYUa+blxn1l/aV5plMWujzUp9qFE5jlrg0h9jDDviL8hUgou0zmjYsTmE/tnc21jKYx54Cjt6T08IECBAgACB9QosKOzobhfpbjGpzmhobjVJg/7yiz+75U3gkZWVhyFZP2lnZLTf3bF7X5tQowxG2hka+S0u3fHs2F+763adsqzNe3l52cHWwo7qsnyb/Z4fNUhtBtXd90Hkg9PRwWo8vmJwWAzWN5+KF+vdYthxsNGudsxnH9TXacKMt/EneWMoEg2H4cgqwo5BX9nuR3kfjB7NLSeDfpgFTV0bbmYpleW1r0dnGdWbatbSNPg+5jENqGPYkf8UaprZ0cxyiD/XGgfbKYDoAoS0bdp/fF37y2/5iOuUXxRazpyo7SvtY9/HWPbcv1TnZh8p7NgxA6Qsswkq0jZZwNLXN76X+ZWBiZkdpajXBAgQIECAAIFtgYWEHdntImO3Z5QzNwqPqVtENl9QGuozO94/hPvn9+Hu+f1wxki/nyIcGQQb8b37EG+PSeFJGWo0x7frp2ZH6xZ9UsiTDmb4Javptpdyn2ntqcejwo6u8PYWjW640QwYnw0/mY/hR397QNyoGCwOBpn5ERfrDQaw3Zda9rcvbGaT9N+VUAld8tLnPn8ao+4nfSv1qw2q47J+wB5vXSlMx2Yv9F5zQSrrHW2Uz8Ro+sumPVN92+PM+0T+vJjZMTjGYr3mvU1o1Icd3X57x2gfQ7wy7Chst/rzYN/Hv9h34F9bPwUNfdgRB+VhGHw0311Rhh2VmQZl+FHbX21ZOobae+dY1gcQWSixtZ9KcJHWKYOKtHwwG6Tcvgg7eu/uGOLr2l8/26Pi3e93rB4j79X2ZxkBAgQIECBA4JoFlhF25LeO7Bt29DNBilkRzW0e982XmNYCgK3v2kj7TceSXqfWb8KI7BaU8v3my0uzY4jv97/+0t4+E79QtXYszS72DjtCGIYnWWDUHfPTfGdH8dnqYMBa/qJIO/hMg9j2cTj7oK3K9iB1M+ujCzvyGSWpzdJjPIax99N6E49HD+S7kGbrWEaNdh3UZpBeXePvr9pbVLYG5Ju1b3Fmx+bo8z5xeD/Kv1OmDTvehFfP2tt7+mDo6w/Nr/80/bP57pP2KNr38z6dH9PmSE/17NjBbjM472YbpMF3/H9rHGD3g+/P3c/TxoPOZiak9/NZGqNhRxei7Fv3frA/Mmif45AHKn3Y0R1TXoe+rDKsyPY/K+wov7OkCzs+ZLNf8v1Gz9G6Cjv27TrWJ0CAAAECBBYosICwo5ih0IQEm9kRaZbE5jHNcGhvCbkbzK6ILdzNvshmUDSD/mJmRB52NO+n9eP+8+fFdqkPxW2G373Rzux4/CmtkT2WQUn2Vno6DC7S0vTY1TX7xZg2NMnqmh93t1lTry2fVObw8VwD+Wa2R/xk/OWb8Obr7lP6PngoBoc7B+bFeuXMjmFVtl4NZpxsvTt/wdMY7Tq+ibAjbbbTtP1ek6v+zo5Uh+pj3ify5/vN7GgDjvbGlBRu9DNcol0WbuQzO9p+/SK8edt9OW7Tp4vjqB734Qv7gXk2EN9nWQo44jYpvOhvOanN5OjCjjjYj3/Nl3jGJ90vkIyGHSPHmAcR+xz/nHX7Y/1zCH+Mt+N0vzyTBw0pjq3exlI57l1hR9pXq7P538a0Czv+WClvTj389OzG0zMCBAgQIEBgvQK3H3Y0MzAew6fUhnHQvmuAPjr7oRv457MpUpnxsdl2M/OiDTvabQahxVZo0AYNmxkZXfCQApF+HzvCji7o2GzfbRD3k4UXg1kg/fGm0CcFPP3Osiep3mX4kq0y4+lxA/k48G6DjDh47gOOdEtFsf/2/doMjnzFduC4mfUxXD+W0Q9K88265/kxxDJOMah/EqPBrI/tWzo2PsP3+vpmYUdpUtu2365iOmfRcUbdLJ08YCh2mgKJ9tiHfaJYtXs51o/afpvqnAcfg7LyNoihRvM633e5j2FbtMeazwAZlD77xaxB8sjgOs3iiOXkwceg3G72Q3NQMdToXufBQAw5pv7ycGFQfhc+5OWV7x/6uglw0k/B5vXIZqj0ZZdhRHydti0Md4Udzf4qZUefP5XlF2X2x5Evz4853VqUv3/k86k28z4BAgQIECBA4NoEbj/suDbRsePpgotBONKvvyPs6N+/7idHD1Kvu3onOTpG04yMpo0OXaM6QD5yAKzMdvbHGhwO7Xe2I0CAAAECBAg8lYCw46nkF7Zfg9TpBmXEaFrgfGusYUCujucLX87XM5VMgAABAgQIEDiPgLDjPK6rK9VAfrrJGTGaFjjfGoKA8wUBa7A9X89UMgECBAgQIEDgPALCjvO4rq5UA/npJmfEaFrgfGusYUCujucLdM7XM5VMgAABAgQIEDiPgLDjPK6rK9VAfrrJGTGaFjjfGoKA8wUBa7A9X89UMgECBAgQIEDgPALCjvO4rq5UA/npJmfEaFrgfGusYUCujucLdM7XM5VMgAABAgQIEDiPgLDjPK6rK/Xjx4+rq/O+FRZ2TIsxmjY6dA1BwPmCgKXb/ut/HNrrbEeAAAECBAgQeDoBYcfT2S9qzz/88EP4+eefF1WnU1fGQH5alNG00aFrLH1Arn7nCXP+7T9D+Pf/OrTX2Y4AAQIECBAg8HQCwo6ns1/Unn/77bfw/fffh8+fPy+qXqesjIH8tCajaaND1xAGnCcMWIPr3/730F5nOwIECBAgQIDA0wkIO57OfnF7/vXXX0Oc4RFvaYmDVv8Y6APX0wfWMChXx9MFOvHWlTijQ9CxuFO1ChEgQIAAgdUICDtW09QqSoAAAQIECBAgQIAAAQIE1iEg7FhHO6slAQIECBAgQIAAAQIECBBYjYCwYzVNraIECBAgQIAAAQIECBAgQGAdAsKOdbSzWhIgQIAAAQIECBAgQIAAgdUICDtW09QqSoAAAQIECBAgQIAAAQIE1iEg7FhHO6slAQIECBAgQIAAAQIECBBYjYCwYzVNraIECBAgQIAAAQIECBAgQGAdAsKOdbSzWhIgQIAAAQIECBAgQIAAgdUICDtW09QqSoAAAQIECBAgQIAAAQIE1iEg7FhHO6slAQIECBAgQIAAAQIECBBYjYCwYzVNraIECBAgQIAAAQIECBAgQGAdAsKOdbSzWhIgQIAAAQIECBAgQIAAgdUICDtW09QqSoAAAQIECBAgQIAAAQIE1iEg7FhHO6slAQIECBAgQIAAAQIECBBYjYCwYzVNraIECBAgQIAAAQIECBAgQGAdAsKOdbSzWhIgQIAAAQIECBAgQIAAgdUICDtW09QqSoAAAQIECBAgQIAAAQIE1iEg7FhHO6slAQIECBAgQIAAAQIECBBYjYCwYzVNraIECBAgQIAAAQIECBAgQGAdAsKOdbSzWhIgQIAAAQIECBAgQIAAgdUICDtW09QqSoAAAQIECBAgQIAAAQIE1iEg7FhHO6slAQIECBAgQIAAAQIECBBYjYCwYzVNraIECBAgQIAAAQIECBAgQGAdAsKOdbSzWhIgQIAAAQIECBAgQIAAgdUICDtW09QqSoAAAQIECBAgQIAAAQIE1iEg7FhHO6slAQIECBAgQIAAAQIECBBYjYCwYzVNraIECBAgQIAAAQIECBAgQGAdAsKOdbSzWhIgQIAAAQIECBAgQIAAgdUICDtW09QqSoAAAQIECBAgQIAAAQIE1iEg7FhHO6slAQIECBAgQIAAAQIECBBYjYCwYzVNraIECBAgQIAAAQIECBAgQGAdAsKOdbSzWhIgQIAAAQIECBAgQIAAgdUICDtW09Tnr+iXL1/Cjz/+GD58+BC+++47/xjoA/qAPrCyPhD/+x/PA/F84I9AKeA6wbWR60N9QB9Ydx+49HWCsKM8E3t9kEC8gImd95dffgm///77QWXYiAABAgRuWyD+9z+eB+L5QOBx22156qN3nXBqUeURIEDg9gQufZ0g7Li9PnKVRxw/yYsXuP4IECBAgEA8H8Tzgj8CScB1QpLwSIAAAQKXuk4QduhrJxGIn+KZ0XESSoUQIEDg5gXi+SCeF/wRSAKuE5KERwIECBC41HWCsENfO4lAvP/OHwECBAgQSALOC0nCYxTQH/QDAgQIEMgFLnFeEHbk4p4fLHCJznrwwdmQAAECBC4u4LxwcfKr3qH+cNXN4+AIECBwcYFLnBeEHRdv1mXu8BKddZlyakWAAIFlCjgvLLNdD62V/nConO0IECCwTIFLnBeEHcvsOxev1SU668UrZYcECBAgcLCA88LBdIvcUH9YZLOqFAECBA4WuMR5QdhxcPPYMBe4RGfN9+c5AQIECFy3gPPCdbfPpY9Of7i0uP0RIEDgugUucV4Qdlx3H7iZo7tEZ70ZDAdKgACBGxOo/XR4bdk+1XJe2Edr+evqD8tvYzUkQIDAPgKXOC/cftjx02O4v7sLd3v9uw+PP+1oiqa8h/B+x9v54vdf3YX7bz6FT9/cj+y/tq9P4fH5Xbh7/hg+ZQXG8spl/dvvH0b2san/w+DA34eHu3z/8XVXt1p5Xw027nc958klOuuc47AOAQIECMwT+PLlS4j/Yqjx+vXr5nlaFh/jsvheWjav1M1aV3NeWMV1Qjy/b64Fxq+JKtc46Zrgq/ej1zTDa4xNW895dnB/+PguvH73j8ouPodv374O7z5W3oqLKtv9493rHWXtKMNiAgQIEDibwMHnhT2O6PbDjmpl2zAhBhFjfzFcKE/cMbiY2q4tcxMk7N5ms06zTbqYmHlBMji2uO1oGNHWebPN2IXPQ3gfy8vCliawGS1/TNJPyo3reJcAAQLXJZDCjBhozPn317/+tQk+9qnFJS5i9jme4bpLu04orjeaysZlRbAx+EAnv07YrFe/pimvMYaac14d0x+akOLtt+Fzv6OJoCPsfn+7rL7QELrt3n4b9/SP8O7129A8zVfZ+3l7LG2Ze29sAwIECCxW4JjzwlyUVYcdIZQXO/mJv/IJSR4GZGFB/cIgNkHt4qNomqyc4p3hy73Djtr+swufYr/CjiG3VwQIEFiyQJyxEQOM+BeDj/Q8r3NcFt+Lf2sNO27nOmHi+mXwIcsm2GgadxCAhGZmx/aHPk8RdrQhwZww7vUgCImZxbfhbVwWZ3dMBnrvQpo38vnbt9nMj1OFHVH5lGU1reZ/CBAgcPMCwo6Dm7AMMcYKiuu2J/7mNpI80Mg2S7estIuGJ/2jw44d+8x2H8LBYUcZ2nQXObG8wcXP3cTMkcHRbL24RGfd2qkFBAgQIHCQQB52zClgvWFH1LmF64TahyvZBxypkfNgo3Yd8PwxvB+5NXczezQVOP9x/+uEGHaUMytiaLAJJ5q9p2AjO5TDblcpA4nydbaDA57GYzK74wA4mxAgsFiB/c8L+1Mse2bH8/a7NOadnIcXBcOZDsVFRHeBkMpt1i2Dg/51/p0ZbUiyFTL062bBRBmAHBx25PvP6hjLm7iNZSz8KbvaJTpruU+vCRAgQOAwgRR2xBBjzr/46XjcZp+/6z4vtOfj+8VcJxTXKU1DZef81HB52NEta69hitkeaf2Jx/NeJxw4syPN5ui+56OZrVHO/Ij1iiFJfptK3G6wXhF2dOW23xHSvfcxltHeCra59SXdGlaEMlvlT+B6mwABAgsXuMR1wqLDjuY7LpoT+8gXf8abTb7KA4G2V+Un8Frwcf98830f8f1+yucgRKhdfAx7bdxPCk2G7xSvuoBlKigZlhX3nwUozfNsZoewo0D2kgABAusQiMFFDDDSl49OPS51ZsdyrhNq5/vy/J9e58FG9iFMc00wVU6+bbx+mj8rdP+L2kNmdsQQ4nV4+3b6dpQyBBnewhL/O5CFHU3Qkc8yaffThyNNcBJDjhRwtEHNYCZHs056fx3/nVFLAgQIjAnsf14YK63+3qLDjj6AaAKN9iQ/DANCCE0YUoYd6eQ/PKk3hD89hodvPjUn+K2y4gqDsCNHn7qASBch+WO2/1huOdsjL777/pHhMcV95nWLr7syi+McBjqDgme9uERnnXUgViJAgACBSYE0s2NyxW6FpYYdy7lOKM/3seGyc35q6HJmR3z9/D7c3z2Eh+4X5tKqTQlzP5DJN9rxfP/rhANmdsRA4d0/QhlcbN9C0pad/5JL3GYQTqSwo5m9kQcdsYJZENLUdzvcKI9he5sdUBYTIEBgJQL7nxf2h1lN2NHQVIKN6syKLgiI960Ow4MNcLtdCkXygKL+vCynnTZaBhEjn5CcI+woZ32MhimbuteeXaKz1vZrGQECBAjsLyDs6G5jKX+17ZavE7a6QSXsKNZprmW+eWzCjvfZd5Ok1arXSOnNPR/3v06IAUItZChmR8SAY3D7SbxDJZ/Z0f0Mbb5OZZZFPexob0nJQ5G22mXYEUIMVPL1to5hKyDZE9DqBAgQWJjA/ueF/QHWFXaUPs0nGo9h+AO1+acjuy8UqhcA7x+aT0ju4qck1eCgCEcG68T37kO8PSbdqjIISPYNO5oLtk1Zqcz28SE8xi8gy/ZvZkfZObwmQIDAcgWEHTvCjrLJb+Q6of0AZdc5f3t5M6Ml1a25XtjMJI3XN8Nrhs3rfCZMSTX1+jQXtTFkKMKOyo6ngobt9ysBSQonuu/lyIOM2iyNeWHH9LFXqmMRAQIEFilwmvPCOM2Kw472QmcQKDRTPu82378R7YrbPRLnVtiRwoi0fnqdNujCh/5CoXy/+UQlm+kR389vQdlaPxWcHmv16W7T6e/DTeVvr1sLO5oLniwQSXuqPV6is9b2axkBAgQI7C8g7JgTdmyfK9tbQ670OmGrG+z+wKZZ9f1DO3u1CDvyYraudfI30y3CZ7pOmP7J2PRFoJvHFEjUwozNrSy1GSOV2R8p7Picvsw0n7lxwMwOX1Ba9B4vCRBYu8Alxo/rDTvSJxqplzXhwo4vCy2Dh+4En4KSJhRIX/YZ182fp+/ISPvpHuM2ffDRLIsXVSmMKFaOL7vj2/VpS1qejqkpodlm82lNe5F2Hx6/yY6x25Wwo2JuEQECBBYqINZtBUcAAAewSURBVOyYEXbc2nXCVl+dCDvS+lcadqTDGz4eOrMjK2Vn6FAGGMXr5ktKX4fXza+8FO/Fb/GYuI0lBjDD7wTJjslTAgQIrFBA2HFwo8+4iMnKHoQV2fLB0+ZiYBNGtJ92VPaThx1NAfFiIw9R2td9INLvZEbYMfrpSXssfdix8+JluJ+m7t13d/Tb9sc0/8klOuv8o7EmAQIECIwJpLBjzs/OxnXSL7eMlVm+d93nhcr5u6xA9vqqrxNmfhiSPhRJj/05P7temHM7TL9d5jPn6Wn6w35hRzPDo/tp2LGZImMzQubUbXqd7XBkehtrECBAYNkCpzkvjBstdGbHeKWf7N3mgqKc0ZGOZhhCpKW38niJznorFo6TAAECtyAQA4+5/+JP0+7757ywr1j6hTjXCQfInWiT7V9VOb7gc5R5/FEpgQABAk8tcInrBGHHU7fyQvZ/ic66ECrVIECAwCoEnBdW0cyzK6k/zKayIgECBFYhcInzgrBjFV3p/JW8RGc9fy3sgQABAgROJeC8cCrJZZSjPyyjHdWCAAECpxK4xHlB2HGq1lp5OZforCsnVn0CBAjclIDzwk0119kPVn84O7EdECBA4KYELnFeEHbcVJe43oO9RGe93to7MgIECBAoBZwXSpF1v9Yf1t3+ak+AAIFS4BLnBWFHqe71QQKX6KwHHZiNCBAgQOBJBJwXnoT9aneqP1xt0zgwAgQIPInAJc4Lwo4nadrl7fTDhw/h999/X17F1IgAAQIE9haI54N4XvBHIAm4TkgSHgkQIEDgUtcJwg597SQCP/74Y/MThicpTCEECBAgcNMC8Sdt43nBH4Ek4DohSXgkQIAAgUtdJwg79LWTCHz58qX5FC92XDM8TkKqEAIECNycQPzvfzwPxE/x43nBH4Ek4DohSXgkQIDAegUufZ0g7FhvXzt5zeOFTPzkJl7kxnuw/GOgD+gD+sC6+kD87388Dwg6Tn6KXUSBrhPW9d8D//3X3vqAPlD2gUtfJwg7FnH5oBIECBAgQIAAAQIECBAgQIBAEhB2JAmPBAgQIECAAAECBAgQIECAwCIEhB2LaEaVIECAAAECBAgQIECAAAECBJKAsCNJeCRAgAABAgQIECBAgAABAgQWISDsWEQzqgQBAgQIECBAgAABAgQIECCQBIQdScIjAQIECBAgQIAAAQIECBAgsAgBYccimlElCBAgQIAAAQIECBAgQIAAgSQg7EgSHgkQIECAAAECBAgQIECAAIFFCAg7FtGMKkGAAAECBAgQIECAAAECBAgkAWFHkvBIgAABAgQIECBAgAABAgQILEJA2LGIZlQJAgQIECBAgAABAgQIECBAIAkIO5KERwIECBAgQIAAAQIECBAgQGARAsKORTSjShAgQIAAAQIECBAgQIAAAQJJQNiRJDwSIECAAAECBAgQIECAAAECixAQdiyiGVWCAAECBAgQIECAAAECBAgQSALCjiThkQABAgQIECBAgAABAgQIEFiEgLBjEc2oEgQIECBAgAABAgQIECBAgEASEHYkCY8ECBAgQIAAAQIECBAgQIDAIgSEHYtoRpUgQIAAAQIECBAgQIAAAQIEkoCwI0l4JECAAAECBAgQIECAAAECBBYhIOxYRDOqBAECBAgQIECAAAECBAgQIJAEhB1JwiMBAgQIECBAgAABAgQIECCwCAFhxyKaUSUIECBAgAABAgQIECBAgACBJCDsSBIeCRAgQIAAAQIECBAgQIAAgUUICDsW0YwqQYAAAQIECBAgQIAAAQIECCQBYUeS8EiAAAECBAgQIECAAAECBAgsQkDYsYhmVAkCBAgQIECAAAECBAgQIEAgCQg7koRHAgQIECBAgAABAgQIECBAYBECwo5FNKNKECBAgAABAgQIECBAgAABAklA2JEkPBIgQIAAAQIECBAgQIAAAQKLEBB2LKIZVYIAAQIECBAgQIAAAQIECBBIAsKOJOGRAAECBAgQIECAAAECBAgQWISAsGMRzagSBAgQIECAAAECBAgQIECAQBIQdiQJjwQIECBAgAABAgQIECBAgMAiBIQdi2hGlSBAgAABAgQIECBAgAABAgSSgLAjSXgkQIAAAQIECBAgQIAAAQIEFiEg7FhEM6oEAQIECBAgQIAAAQIECBAgkASEHUnCIwECBAgQIECAAAECBAgQILAIAWHHIppRJQgQIECAAAECBAgQIECAAIEkIOxIEh4JECBAgAABAgQIECBAgACBRQgIOxbRjCpBgAABAgQIECBAgAABAgQIJAFhR5LwSIAAAQIECBAgQIAAAQIECCxCQNixiGZUCQIECBAgQIAAAQIECBAgQCAJCDuShEcCBAgQIECAAAECBAgQIEBgEQLCjkU0o0oQIECAAAECBAgQIECAAAECSUDYkSQ8EiBAgAABAgQIECBAgAABAosQEHYsohlVggABAgQIECBAgAABAgQIEEgCwo4k4ZEAAQIECBAgQIAAAQIECBBYhICwYxHNqBIECBAgQIAAAQIECBAgQIBAEhB2JAmPBAgQIECAAAECBAgQIECAwCIEhB2LaEaVIECAAAECBAgQIECAAAECBJKAsCNJeCRAgAABAgQIECBAgAABAgQWITAVdvx/xG4Xqnz2c6QAAAAASUVORK5CYII=;strokeWidth=2;points=[];labelBackgroundColor=none;rounded=0;html=1;whiteSpace=wrap;" vertex="1" parent="1">
            <mxGeometry x="615" y="649" width="1000" height="156" as="geometry" />
          </mxCell>
        </UserObject>
        <UserObject label="&lt;div style=&quot;font-size: 1px&quot;&gt;&lt;p style=&quot;text-align:center;margin-left:0;margin-right:0;margin-top:0px;margin-bottom:0px;text-indent:0;vertical-align:middle;direction:ltr;&quot;&gt;&lt;font style=&quot;font-size:12px;font-family:0;color:#000000;direction:ltr;letter-spacing:0px;line-height:120%;opacity:1&quot;&gt;下次保养日期&lt;/font&gt;&lt;/p&gt;&lt;/div&gt;" tags="Background" id="1Utzvzuvet02USVJ52bi-30">
          <mxCell style="verticalAlign=middle;align=center;overflow=width;vsdxID=30;fillColor=#FFFFFF;gradientColor=none;shape=stencil(nZBRDoQgDERP03+WHsHFe5iISyOCQdT19kIaIxq//Jtp3zTpAFaTaUYNUkwx+F6v1EYD+AUpyRkdKCYFqACrzgf9C352LfuxyWRWg1/yhT/nRE5IsZWuZtCSK8CPeI0e/hF+jV7AJM4PO7KWCyr390bSiNtEtQM=);strokeColor=#000000;strokeWidth=2;spacingTop=-3;spacingBottom=-3;spacingLeft=-3;spacingRight=-3;points=[];labelBackgroundColor=none;rounded=0;html=1;whiteSpace=wrap;" vertex="1" parent="1">
            <mxGeometry x="47" y="732" width="134" height="33" as="geometry" />
          </mxCell>
        </UserObject>
        <UserObject label="&lt;div style=&quot;font-size: 1px&quot;&gt;&lt;p style=&quot;text-align:center;margin-left:0;margin-right:0;margin-top:0px;margin-bottom:0px;text-indent:0;vertical-align:middle;direction:ltr;&quot;&gt;&lt;font style=&quot;font-size:12px;font-family:0;color:#000000;direction:ltr;letter-spacing:0px;line-height:120%;opacity:1&quot;&gt;下次保养里程&lt;/font&gt;&lt;/p&gt;&lt;/div&gt;" tags="Background" id="1Utzvzuvet02USVJ52bi-31">
          <mxCell style="verticalAlign=middle;align=center;overflow=width;vsdxID=31;fillColor=#FFFFFF;gradientColor=none;shape=stencil(nZBRDoQgDERP03+WHsHFe5iISyOCQdT19kIaIxq//Jtp3zTpAFaTaUYNUkwx+F6v1EYD+AUpyRkdKCYFqACrzgf9C352LfuxyWRWg1/yhT/nRE5IsZWuZtCSK8CPeI0e/hF+jV7AJM4PO7KWCyr390bSiNtEtQM=);strokeColor=#000000;strokeWidth=2;spacingTop=-3;spacingBottom=-3;spacingLeft=-3;spacingRight=-3;points=[];labelBackgroundColor=none;rounded=0;html=1;whiteSpace=wrap;" vertex="1" parent="1">
            <mxGeometry x="211" y="732" width="134" height="33" as="geometry" />
          </mxCell>
        </UserObject>
        <UserObject label="&lt;div style=&quot;font-size: 1px&quot;&gt;&lt;p style=&quot;text-align:center;margin-left:0;margin-right:0;margin-top:0px;margin-bottom:0px;text-indent:0;vertical-align:middle;direction:ltr;&quot;&gt;&lt;font style=&quot;font-size:30px;font-family:0;color:#a23735;direction:ltr;letter-spacing:0px;line-height:120%;opacity:1&quot;&gt;项目子表&lt;/font&gt;&lt;/p&gt;&lt;/div&gt;" tags="Background" id="1Utzvzuvet02USVJ52bi-32">
          <mxCell style="verticalAlign=middle;align=center;overflow=width;vsdxID=32;fillColor=none;gradientColor=none;shape=stencil(nZBLDoAgDERP0z3SI/i5B4koRAWC+Lu9kMaIxpW7mfZNkw5gOSvhJHA2B28Huek2KMAKONdGSa9DVIA1YNlZL3tvF9OSdyKRSU12TRd2yrGU4OzIXUPgqE0GFuw3evlP+Df6AKO4P6Ry8t27jTiiJrE+AQ==);strokeColor=#000000;strokeWidth=2;spacingTop=-3;spacingBottom=-3;spacingLeft=-3;spacingRight=-3;points=[];labelBackgroundColor=none;rounded=0;html=1;whiteSpace=wrap;" vertex="1" parent="1">
            <mxGeometry x="-51" y="805" width="357" height="65" as="geometry" />
          </mxCell>
        </UserObject>
        <UserObject label="&lt;div style=&quot;font-size: 1px&quot;&gt;&lt;p style=&quot;text-align:center;margin-left:0;margin-right:0;margin-top:0px;margin-bottom:0px;text-indent:0;vertical-align:middle;direction:ltr;&quot;&gt;&lt;font style=&quot;font-size:12px;font-family:0;color:#000000;direction:ltr;letter-spacing:0px;line-height:120%;opacity:1&quot;&gt;项目名称，手录&lt;/font&gt;&lt;/p&gt;&lt;/div&gt;" tags="Background" id="1Utzvzuvet02USVJ52bi-33">
          <mxCell style="verticalAlign=middle;align=center;overflow=width;vsdxID=33;fillColor=#FFFFFF;gradientColor=none;shape=stencil(nZBRDoQgDERP03+WHsHFe5iISyOCQdT19kIaIxq//Jtp3zTpAFaTaUYNUkwx+F6v1EYD+AUpyRkdKCYFqACrzgf9C352LfuxyWRWg1/yhT/nRE5IsZWuZtCSK8CPeI0e/hF+jV7AJM4PO7KWCyr390bSiNtEtQM=);strokeColor=#000000;strokeWidth=2;spacingTop=-3;spacingBottom=-3;spacingLeft=-3;spacingRight=-3;points=[];labelBackgroundColor=none;rounded=0;html=1;whiteSpace=wrap;" vertex="1" parent="1">
            <mxGeometry x="52" y="880" width="134" height="33" as="geometry" />
          </mxCell>
        </UserObject>
        <UserObject label="&lt;div style=&quot;font-size: 1px&quot;&gt;&lt;p style=&quot;text-align:center;margin-left:0;margin-right:0;margin-top:0px;margin-bottom:0px;text-indent:0;vertical-align:middle;direction:ltr;&quot;&gt;&lt;font style=&quot;font-size:12px;font-family:0;color:#000000;direction:ltr;letter-spacing:0px;line-height:120%;opacity:1&quot;&gt;工时，1位小数，手录&lt;/font&gt;&lt;/p&gt;&lt;/div&gt;" tags="Background" id="1Utzvzuvet02USVJ52bi-34">
          <mxCell style="verticalAlign=middle;align=center;overflow=width;vsdxID=34;fillColor=#FFFFFF;gradientColor=none;shape=stencil(nZBRDoQgDERP03+WHsHFe5iISyOCQdT19kIaIxq//Jtp3zTpAFaTaUYNUkwx+F6v1EYD+AUpyRkdKCYFqACrzgf9C352LfuxyWRWg1/yhT/nRE5IsZWuZtCSK8CPeI0e/hF+jV7AJM4PO7KWCyr390bSiNtEtQM=);strokeColor=#000000;strokeWidth=2;spacingTop=-3;spacingBottom=-3;spacingLeft=-3;spacingRight=-3;points=[];labelBackgroundColor=none;rounded=0;html=1;whiteSpace=wrap;" vertex="1" parent="1">
            <mxGeometry x="216" y="880" width="134" height="33" as="geometry" />
          </mxCell>
        </UserObject>
        <UserObject label="&lt;div style=&quot;font-size: 1px&quot;&gt;&lt;p style=&quot;text-align:center;margin-left:0;margin-right:0;margin-top:0px;margin-bottom:0px;text-indent:0;vertical-align:middle;direction:ltr;&quot;&gt;&lt;font style=&quot;font-size:12px;font-family:0;color:#000000;direction:ltr;letter-spacing:0px;line-height:120%;opacity:1&quot;&gt;单价，2位小数，手录&lt;/font&gt;&lt;/p&gt;&lt;/div&gt;" tags="Background" id="1Utzvzuvet02USVJ52bi-35">
          <mxCell style="verticalAlign=middle;align=center;overflow=width;vsdxID=35;fillColor=#FFFFFF;gradientColor=none;shape=stencil(nZBRDoQgDERP03+WHsHFe5iISyOCQdT19kIaIxq//Jtp3zTpAFaTaUYNUkwx+F6v1EYD+AUpyRkdKCYFqACrzgf9C352LfuxyWRWg1/yhT/nRE5IsZWuZtCSK8CPeI0e/hF+jV7AJM4PO7KWCyr390bSiNtEtQM=);strokeColor=#000000;strokeWidth=2;spacingTop=-3;spacingBottom=-3;spacingLeft=-3;spacingRight=-3;points=[];labelBackgroundColor=none;rounded=0;html=1;whiteSpace=wrap;" vertex="1" parent="1">
            <mxGeometry x="385" y="880" width="134" height="33" as="geometry" />
          </mxCell>
        </UserObject>
        <UserObject label="&lt;div style=&quot;font-size: 1px&quot;&gt;&lt;p style=&quot;text-align:center;margin-left:0;margin-right:0;margin-top:0px;margin-bottom:0px;text-indent:0;vertical-align:middle;direction:ltr;&quot;&gt;&lt;font style=&quot;font-size:12px;font-family:0;color:#000000;direction:ltr;letter-spacing:0px;line-height:120%;opacity:1&quot;&gt;工时费，工时*单价&lt;/font&gt;&lt;/p&gt;&lt;/div&gt;" tags="Background" id="1Utzvzuvet02USVJ52bi-36">
          <mxCell style="verticalAlign=middle;align=center;overflow=width;vsdxID=36;fillColor=#FFFFFF;gradientColor=none;shape=stencil(nZBRDoQgDERP03+WHsHFe5iISyOCQdT19kIaIxq//Jtp3zTpAFaTaUYNUkwx+F6v1EYD+AUpyRkdKCYFqACrzgf9C352LfuxyWRWg1/yhT/nRE5IsZWuZtCSK8CPeI0e/hF+jV7AJM4PO7KWCyr390bSiNtEtQM=);strokeColor=#000000;strokeWidth=2;spacingTop=-3;spacingBottom=-3;spacingLeft=-3;spacingRight=-3;points=[];labelBackgroundColor=none;rounded=0;html=1;whiteSpace=wrap;" vertex="1" parent="1">
            <mxGeometry x="563" y="880" width="134" height="33" as="geometry" />
          </mxCell>
        </UserObject>
        <UserObject label="&lt;div style=&quot;font-size: 1px&quot;&gt;&lt;p style=&quot;text-align:center;margin-left:0;margin-right:0;margin-top:0px;margin-bottom:0px;text-indent:0;vertical-align:middle;direction:ltr;&quot;&gt;&lt;font style=&quot;font-size:12px;font-family:0;color:#000000;direction:ltr;letter-spacing:0px;line-height:120%;opacity:1&quot;&gt;实收&lt;/font&gt;&lt;/p&gt;&lt;/div&gt;" tags="Background" id="1Utzvzuvet02USVJ52bi-37">
          <mxCell style="verticalAlign=middle;align=center;overflow=width;vsdxID=37;fillColor=#FFFFFF;gradientColor=none;shape=stencil(nZBRDoQgDERP03+WHsHFe5iISyOCQdT19kIaIxq//Jtp3zTpAFaTaUYNUkwx+F6v1EYD+AUpyRkdKCYFqACrzgf9C352LfuxyWRWg1/yhT/nRE5IsZWuZtCSK8CPeI0e/hF+jV7AJM4PO7KWCyr390bSiNtEtQM=);strokeColor=#000000;strokeWidth=2;spacingTop=-3;spacingBottom=-3;spacingLeft=-3;spacingRight=-3;points=[];labelBackgroundColor=none;rounded=0;html=1;whiteSpace=wrap;" vertex="1" parent="1">
            <mxGeometry x="741" y="880" width="134" height="33" as="geometry" />
          </mxCell>
        </UserObject>
        <UserObject label="&lt;div style=&quot;font-size: 1px&quot;&gt;&lt;p style=&quot;text-align:center;margin-left:0;margin-right:0;margin-top:0px;margin-bottom:0px;text-indent:0;vertical-align:middle;direction:ltr;&quot;&gt;&lt;font style=&quot;font-size:30px;font-family:0;color:#a23735;direction:ltr;letter-spacing:0px;line-height:120%;opacity:1&quot;&gt;配件子表&lt;/font&gt;&lt;/p&gt;&lt;/div&gt;" tags="Background" id="1Utzvzuvet02USVJ52bi-38">
          <mxCell style="verticalAlign=middle;align=center;overflow=width;vsdxID=38;fillColor=none;gradientColor=none;shape=stencil(nZBLDoAgDERP0z3SI/i5B4koRAWC+Lu9kMaIxpW7mfZNkw5gOSvhJHA2B28Huek2KMAKONdGSa9DVIA1YNlZL3tvF9OSdyKRSU12TRd2yrGU4OzIXUPgqE0GFuw3evlP+Df6AKO4P6Ry8t27jTiiJrE+AQ==);strokeColor=#000000;strokeWidth=2;spacingTop=-3;spacingBottom=-3;spacingLeft=-3;spacingRight=-3;points=[];labelBackgroundColor=none;rounded=0;html=1;whiteSpace=wrap;" vertex="1" parent="1">
            <mxGeometry x="-51" y="944" width="357" height="65" as="geometry" />
          </mxCell>
        </UserObject>
        <UserObject label="&lt;div style=&quot;font-size: 1px&quot;&gt;&lt;p style=&quot;text-align:center;margin-left:0;margin-right:0;margin-top:0px;margin-bottom:0px;text-indent:0;vertical-align:middle;direction:ltr;&quot;&gt;&lt;font style=&quot;font-size:12px;font-family:0;color:#000000;direction:ltr;letter-spacing:0px;line-height:120%;opacity:1&quot;&gt;配件，从库存配件表中查，类型位11的&lt;/font&gt;&lt;/p&gt;&lt;/div&gt;" tags="Background" id="1Utzvzuvet02USVJ52bi-39">
          <mxCell style="verticalAlign=middle;align=center;overflow=width;vsdxID=39;fillColor=#FFFFFF;gradientColor=none;shape=stencil(nZBRDoQgDERP03+WHsHFe5iISyOCQdT19kIaIxq//Jtp3zTpAFaTaUYNUkwx+F6v1EYD+AUpyRkdKCYFqACrzgf9C352LfuxyWRWg1/yhT/nRE5IsZWuZtCSK8CPeI0e/hF+jV7AJM4PO7KWCyr390bSiNtEtQM=);strokeColor=#000000;strokeWidth=2;spacingTop=-3;spacingBottom=-3;spacingLeft=-3;spacingRight=-3;points=[];labelBackgroundColor=none;rounded=0;html=1;whiteSpace=wrap;" vertex="1" parent="1">
            <mxGeometry x="52" y="1042" width="151" height="57" as="geometry" />
          </mxCell>
        </UserObject>
        <UserObject label="&lt;div style=&quot;font-size: 1px&quot;&gt;&lt;p style=&quot;text-align:center;margin-left:0;margin-right:0;margin-top:0px;margin-bottom:0px;text-indent:0;vertical-align:middle;direction:ltr;&quot;&gt;&lt;font style=&quot;font-size:12px;font-family:0;color:#000000;direction:ltr;letter-spacing:0px;line-height:120%;opacity:1&quot;&gt;仓库，下拉&lt;/font&gt;&lt;/p&gt;&lt;/div&gt;" tags="Background" id="1Utzvzuvet02USVJ52bi-40">
          <mxCell style="verticalAlign=middle;align=center;overflow=width;vsdxID=40;fillColor=#FFFFFF;gradientColor=none;shape=stencil(nZBRDoQgDERP03+WHsHFe5iISyOCQdT19kIaIxq//Jtp3zTpAFaTaUYNUkwx+F6v1EYD+AUpyRkdKCYFqACrzgf9C352LfuxyWRWg1/yhT/nRE5IsZWuZtCSK8CPeI0e/hF+jV7AJM4PO7KWCyr390bSiNtEtQM=);strokeColor=#000000;strokeWidth=2;spacingTop=-3;spacingBottom=-3;spacingLeft=-3;spacingRight=-3;points=[];labelBackgroundColor=none;rounded=0;html=1;whiteSpace=wrap;" vertex="1" parent="1">
            <mxGeometry x="216" y="1042" width="151" height="57" as="geometry" />
          </mxCell>
        </UserObject>
        <UserObject label="&lt;div style=&quot;font-size: 1px&quot;&gt;&lt;p style=&quot;text-align:center;margin-left:0;margin-right:0;margin-top:0px;margin-bottom:0px;text-indent:0;vertical-align:middle;direction:ltr;&quot;&gt;&lt;font style=&quot;font-size:12px;font-family:0;color:#000000;direction:ltr;letter-spacing:0px;line-height:120%;opacity:1&quot;&gt;数量&lt;/font&gt;&lt;/p&gt;&lt;/div&gt;" tags="Background" id="1Utzvzuvet02USVJ52bi-41">
          <mxCell style="verticalAlign=middle;align=center;overflow=width;vsdxID=41;fillColor=#FFFFFF;gradientColor=none;shape=stencil(nZBRDoQgDERP03+WHsHFe5iISyOCQdT19kIaIxq//Jtp3zTpAFaTaUYNUkwx+F6v1EYD+AUpyRkdKCYFqACrzgf9C352LfuxyWRWg1/yhT/nRE5IsZWuZtCSK8CPeI0e/hF+jV7AJM4PO7KWCyr390bSiNtEtQM=);strokeColor=#000000;strokeWidth=2;spacingTop=-3;spacingBottom=-3;spacingLeft=-3;spacingRight=-3;points=[];labelBackgroundColor=none;rounded=0;html=1;whiteSpace=wrap;" vertex="1" parent="1">
            <mxGeometry x="385" y="1042" width="151" height="57" as="geometry" />
          </mxCell>
        </UserObject>
        <UserObject label="&lt;div style=&quot;font-size: 1px&quot;&gt;&lt;p style=&quot;text-align:center;margin-left:0;margin-right:0;margin-top:0px;margin-bottom:0px;text-indent:0;vertical-align:middle;direction:ltr;&quot;&gt;&lt;font style=&quot;font-size:12px;font-family:0;color:#000000;direction:ltr;letter-spacing:0px;line-height:120%;opacity:1&quot;&gt;单价，带出平均价，可修改&lt;/font&gt;&lt;/p&gt;&lt;/div&gt;" tags="Background" id="1Utzvzuvet02USVJ52bi-42">
          <mxCell style="verticalAlign=middle;align=center;overflow=width;vsdxID=42;fillColor=#FFFFFF;gradientColor=none;shape=stencil(nZBRDoQgDERP03+WHsHFe5iISyOCQdT19kIaIxq//Jtp3zTpAFaTaUYNUkwx+F6v1EYD+AUpyRkdKCYFqACrzgf9C352LfuxyWRWg1/yhT/nRE5IsZWuZtCSK8CPeI0e/hF+jV7AJM4PO7KWCyr390bSiNtEtQM=);strokeColor=#000000;strokeWidth=2;spacingTop=-3;spacingBottom=-3;spacingLeft=-3;spacingRight=-3;points=[];labelBackgroundColor=none;rounded=0;html=1;whiteSpace=wrap;" vertex="1" parent="1">
            <mxGeometry x="563" y="1038" width="151" height="57" as="geometry" />
          </mxCell>
        </UserObject>
        <UserObject label="&lt;div style=&quot;font-size: 1px&quot;&gt;&lt;p style=&quot;text-align:center;margin-left:0;margin-right:0;margin-top:0px;margin-bottom:0px;text-indent:0;vertical-align:middle;direction:ltr;&quot;&gt;&lt;font style=&quot;font-size:12px;font-family:0;color:#000000;direction:ltr;letter-spacing:0px;line-height:120%;opacity:1&quot;&gt;总价&lt;/font&gt;&lt;/p&gt;&lt;/div&gt;" tags="Background" id="1Utzvzuvet02USVJ52bi-43">
          <mxCell style="verticalAlign=middle;align=center;overflow=width;vsdxID=43;fillColor=#FFFFFF;gradientColor=none;shape=stencil(nZBRDoQgDERP03+WHsHFe5iISyOCQdT19kIaIxq//Jtp3zTpAFaTaUYNUkwx+F6v1EYD+AUpyRkdKCYFqACrzgf9C352LfuxyWRWg1/yhT/nRE5IsZWuZtCSK8CPeI0e/hF+jV7AJM4PO7KWCyr390bSiNtEtQM=);strokeColor=#000000;strokeWidth=2;spacingTop=-3;spacingBottom=-3;spacingLeft=-3;spacingRight=-3;points=[];labelBackgroundColor=none;rounded=0;html=1;whiteSpace=wrap;" vertex="1" parent="1">
            <mxGeometry x="746" y="1038" width="151" height="57" as="geometry" />
          </mxCell>
        </UserObject>
        <UserObject label="&lt;div style=&quot;font-size: 1px&quot;&gt;&lt;p style=&quot;text-align:center;margin-left:0;margin-right:0;margin-top:0px;margin-bottom:0px;text-indent:0;vertical-align:middle;direction:ltr;&quot;&gt;&lt;font style=&quot;font-size:12px;font-family:0;color:#000000;direction:ltr;letter-spacing:0px;line-height:120%;opacity:1&quot;&gt;实收 0&lt;/font&gt;&lt;/p&gt;&lt;/div&gt;" tags="Background" id="1Utzvzuvet02USVJ52bi-44">
          <mxCell style="verticalAlign=middle;align=center;overflow=width;vsdxID=44;fillColor=#FFFFFF;gradientColor=none;shape=stencil(nZBRDoQgDERP03+WHsHFe5iISyOCQdT19kIaIxq//Jtp3zTpAFaTaUYNUkwx+F6v1EYD+AUpyRkdKCYFqACrzgf9C352LfuxyWRWg1/yhT/nRE5IsZWuZtCSK8CPeI0e/hF+jV7AJM4PO7KWCyr390bSiNtEtQM=);strokeColor=#000000;strokeWidth=2;spacingTop=-3;spacingBottom=-3;spacingLeft=-3;spacingRight=-3;points=[];labelBackgroundColor=none;rounded=0;html=1;whiteSpace=wrap;" vertex="1" parent="1">
            <mxGeometry x="918" y="1038" width="151" height="57" as="geometry" />
          </mxCell>
        </UserObject>
        <UserObject label="&lt;div style=&quot;font-size: 1px&quot;&gt;&lt;p style=&quot;text-align:center;margin-left:0;margin-right:0;margin-top:0px;margin-bottom:0px;text-indent:0;vertical-align:middle;direction:ltr;&quot;&gt;&lt;font style=&quot;font-size:12px;font-family:0;color:#000000;direction:ltr;letter-spacing:0px;line-height:120%;opacity:1&quot;&gt;录入&lt;/font&gt;&lt;/p&gt;&lt;/div&gt;" tags="Background" id="1Utzvzuvet02USVJ52bi-45">
          <mxCell style="verticalAlign=middle;align=center;overflow=width;vsdxID=45;fillColor=#FFFFFF;gradientColor=none;shape=stencil(nZBRDoQgDERP03+WHsHFe5iISyOCQdT19kIaIxq//Jtp3zTpAFaTaUYNUkwx+F6v1EYD+AUpyRkdKCYFqACrzgf9C352LfuxyWRWg1/yhT/nRE5IsZWuZtCSK8CPeI0e/hF+jV7AJM4PO7KWCyr390bSiNtEtQM=);strokeColor=#000000;strokeWidth=2;spacingTop=-3;spacingBottom=-3;spacingLeft=-3;spacingRight=-3;points=[];labelBackgroundColor=none;rounded=0;html=1;whiteSpace=wrap;" vertex="1" parent="1">
            <mxGeometry x="52" y="1121" width="151" height="57" as="geometry" />
          </mxCell>
        </UserObject>
        <UserObject label="&lt;div style=&quot;font-size: 1px&quot;&gt;&lt;p style=&quot;text-align:center;margin-left:0;margin-right:0;margin-top:0px;margin-bottom:0px;text-indent:0;vertical-align:middle;direction:ltr;&quot;&gt;&lt;font style=&quot;font-size:12px;font-family:0;color:#000000;direction:ltr;letter-spacing:0px;line-height:120%;opacity:1&quot;&gt;数量&lt;/font&gt;&lt;font style=&quot;font-size:12px;font-family:0;color:#323232;direction:ltr;letter-spacing:0px;line-height:120%;opacity:1&quot;&gt;，1位小数，手录&lt;/font&gt;&lt;/p&gt;&lt;/div&gt;" tags="Background" id="1Utzvzuvet02USVJ52bi-46">
          <mxCell style="verticalAlign=middle;align=center;overflow=width;vsdxID=46;fillColor=#FFFFFF;gradientColor=none;shape=stencil(nZBRDoQgDERP03+WHsHFe5iISyOCQdT19kIaIxq//Jtp3zTpAFaTaUYNUkwx+F6v1EYD+AUpyRkdKCYFqACrzgf9C352LfuxyWRWg1/yhT/nRE5IsZWuZtCSK8CPeI0e/hF+jV7AJM4PO7KWCyr390bSiNtEtQM=);strokeColor=#000000;strokeWidth=2;spacingTop=-3;spacingBottom=-3;spacingLeft=-3;spacingRight=-3;points=[];labelBackgroundColor=none;rounded=0;html=1;whiteSpace=wrap;" vertex="1" parent="1">
            <mxGeometry x="385" y="1121" width="151" height="57" as="geometry" />
          </mxCell>
        </UserObject>
        <UserObject label="&lt;div style=&quot;font-size: 1px&quot;&gt;&lt;p style=&quot;text-align:center;margin-left:0;margin-right:0;margin-top:0px;margin-bottom:0px;text-indent:0;vertical-align:middle;direction:ltr;&quot;&gt;&lt;font style=&quot;font-size:12px;font-family:0;color:#000000;direction:ltr;letter-spacing:0px;line-height:120%;opacity:1&quot;&gt;单价，2位小数，手录&lt;/font&gt;&lt;/p&gt;&lt;/div&gt;" tags="Background" id="1Utzvzuvet02USVJ52bi-47">
          <mxCell style="verticalAlign=middle;align=center;overflow=width;vsdxID=47;fillColor=#FFFFFF;gradientColor=none;shape=stencil(nZBRDoQgDERP03+WHsHFe5iISyOCQdT19kIaIxq//Jtp3zTpAFaTaUYNUkwx+F6v1EYD+AUpyRkdKCYFqACrzgf9C352LfuxyWRWg1/yhT/nRE5IsZWuZtCSK8CPeI0e/hF+jV7AJM4PO7KWCyr390bSiNtEtQM=);strokeColor=#000000;strokeWidth=2;spacingTop=-3;spacingBottom=-3;spacingLeft=-3;spacingRight=-3;points=[];labelBackgroundColor=none;rounded=0;html=1;whiteSpace=wrap;" vertex="1" parent="1">
            <mxGeometry x="571" y="1133" width="134" height="33" as="geometry" />
          </mxCell>
        </UserObject>
        <UserObject label="&lt;div style=&quot;font-size: 1px&quot;&gt;&lt;p style=&quot;text-align:center;margin-left:0;margin-right:0;margin-top:0px;margin-bottom:0px;text-indent:0;vertical-align:middle;direction:ltr;&quot;&gt;&lt;font style=&quot;font-size:12px;font-family:0;color:#000000;direction:ltr;letter-spacing:0px;line-height:120%;opacity:1&quot;&gt;总价&lt;/font&gt;&lt;/p&gt;&lt;/div&gt;" tags="Background" id="1Utzvzuvet02USVJ52bi-48">
          <mxCell style="verticalAlign=middle;align=center;overflow=width;vsdxID=48;fillColor=#FFFFFF;gradientColor=none;shape=stencil(nZBRDoQgDERP03+WHsHFe5iISyOCQdT19kIaIxq//Jtp3zTpAFaTaUYNUkwx+F6v1EYD+AUpyRkdKCYFqACrzgf9C352LfuxyWRWg1/yhT/nRE5IsZWuZtCSK8CPeI0e/hF+jV7AJM4PO7KWCyr390bSiNtEtQM=);strokeColor=#000000;strokeWidth=2;spacingTop=-3;spacingBottom=-3;spacingLeft=-3;spacingRight=-3;points=[];labelBackgroundColor=none;rounded=0;html=1;whiteSpace=wrap;" vertex="1" parent="1">
            <mxGeometry x="746" y="1121" width="151" height="57" as="geometry" />
          </mxCell>
        </UserObject>
        <UserObject label="&lt;div style=&quot;font-size: 1px&quot;&gt;&lt;p style=&quot;text-align:center;margin-left:0;margin-right:0;margin-top:0px;margin-bottom:0px;text-indent:0;vertical-align:middle;direction:ltr;&quot;&gt;&lt;font style=&quot;font-size:12px;font-family:0;color:#000000;direction:ltr;letter-spacing:0px;line-height:120%;opacity:1&quot;&gt;实收，不为0&lt;/font&gt;&lt;/p&gt;&lt;/div&gt;" tags="Background" id="1Utzvzuvet02USVJ52bi-49">
          <mxCell style="verticalAlign=middle;align=center;overflow=width;vsdxID=49;fillColor=#FFFFFF;gradientColor=none;shape=stencil(nZBRDoQgDERP03+WHsHFe5iISyOCQdT19kIaIxq//Jtp3zTpAFaTaUYNUkwx+F6v1EYD+AUpyRkdKCYFqACrzgf9C352LfuxyWRWg1/yhT/nRE5IsZWuZtCSK8CPeI0e/hF+jV7AJM4PO7KWCyr390bSiNtEtQM=);strokeColor=#000000;strokeWidth=2;spacingTop=-3;spacingBottom=-3;spacingLeft=-3;spacingRight=-3;points=[];labelBackgroundColor=none;rounded=0;html=1;whiteSpace=wrap;" vertex="1" parent="1">
            <mxGeometry x="923" y="1121" width="151" height="57" as="geometry" />
          </mxCell>
        </UserObject>
        <UserObject label="&lt;div style=&quot;font-size: 1px&quot;&gt;&lt;p style=&quot;text-align:left;margin-left:0;margin-right:0;margin-top:0px;margin-bottom:0px;text-indent:0;vertical-align:top;direction:ltr;&quot;&gt;&lt;font style=&quot;font-size:12px;font-family:0;color:#000000;direction:ltr;letter-spacing:0px;line-height:120%;opacity:1&quot;&gt;增删改查，主要说下配件和出库的联动&lt;br/&gt;&lt;/font&gt;&lt;font style=&quot;font-size:12px;font-family:0;color:#000000;direction:ltr;letter-spacing:0px;line-height:120%;opacity:1&quot;&gt;&lt;br/&gt;&lt;br/&gt;&lt;/font&gt;&lt;font style=&quot;font-size:12px;font-family:0;color:#000000;direction:ltr;letter-spacing:0px;line-height:120%;opacity:1&quot;&gt;&lt;br/&gt;&lt;br/&gt;&lt;/font&gt;&lt;font style=&quot;font-size:12px;font-family:0;color:#000000;direction:ltr;letter-spacing:0px;line-height:120%;opacity:1&quot;&gt;1、自有配件确认新增时，调用通用出库接口，保存配件的同时生成出库单。&lt;br/&gt;&lt;br/&gt;&lt;br/&gt;&lt;/font&gt;&lt;font style=&quot;font-size:12px;font-family:0;color:#000000;direction:ltr;letter-spacing:0px;line-height:120%;opacity:1&quot;&gt;2、自有配件被删除时，调用通用出库回滚接口，回滚出库单。&lt;br/&gt;&lt;/font&gt;&lt;font style=&quot;font-size:12px;font-family:0;color:#000000;direction:ltr;letter-spacing:0px;line-height:120%;opacity:1&quot;&gt;&lt;br/&gt;&lt;br/&gt;&lt;/font&gt;&lt;font style=&quot;font-size:12px;font-family:0;color:#000000;direction:ltr;letter-spacing:0px;line-height:120%;opacity:1&quot;&gt;其它组件可能会写单独的查询接口优化录入和校验时的体验&lt;/font&gt;&lt;/p&gt;&lt;/div&gt;" tags="Background" id="1Utzvzuvet02USVJ52bi-50">
          <mxCell style="verticalAlign=top;align=left;overflow=width;vsdxID=50;fillColor=#fff7bc;gradientColor=none;shape=stencil(UzV2Ls5ILEhVNTIoLinKz04tz0wpyVA1dlE1MsrMy0gtyiwBslSNXVWNndPyi1LTi/JL81Ig/IJEkEoQKze/DGRCBUSfAUiHkUElMs8NojAnMw9JoaWZnoUlsYoNDVDNNdeztCReNYyPVTHZSslTCGQggi4tMycHWQY9kIFCkAgydgUA);strokeColor=none;strokeWidth=0;spacingTop=-3;spacingBottom=-3;spacingLeft=-3;spacingRight=-3;points=[];labelBackgroundColor=none;rounded=0;html=1;whiteSpace=wrap;" vertex="1" parent="1">
            <mxGeometry x="65" y="1269" width="514" height="200" as="geometry" />
          </mxCell>
        </UserObject>
        <UserObject label="" tags="Background" id="1Utzvzuvet02USVJ52bi-51">
          <mxCell style="vsdxID=51;fillColor=#fff7bc;gradientColor=none;shape=stencil(UzV2Ls5ILEhVNTIoLinKz04tz0wpyVA1dlE1MsrMy0gtyiwBslSNXVWNndPyi1LTi/JL81Ig/IJEkEoQKze/DGRCBUSfpZmehSVIl5FBJUTEAMxzgyjOyczDq9hcz9ISt3pDAwMSVBNwCpCB8ERaZk4Osgy6d4FCkKAydgUA);strokeColor=none;strokeWidth=0;spacingTop=-3;spacingBottom=-3;spacingLeft=-3;spacingRight=-3;points=[];labelBackgroundColor=none;rounded=0;html=1;whiteSpace=wrap;" vertex="1" parent="1">
            <mxGeometry x="65" y="1269" width="514" height="200" as="geometry" />
          </mxCell>
        </UserObject>
        <UserObject label="" tags="Background" id="1Utzvzuvet02USVJ52bi-52">
          <mxCell style="vsdxID=52;fillColor=none;gradientColor=none;shape=stencil(UzV2Ls5ILEhVNTIoLinKz04tz0wpyVA1dlE1MsrMy0gtyiwBslSNXVWNndPyi1LTi/JL81Ig/IJEkEoQKze/DGRCBUSfAUiHkUElMs8NojAnMw9JoaWZnoUlsYoNDVDNNdeztCReNYyPVTHZSslTCGQggg7IQQ9XoBAkToxdAQ==);strokeColor=none;strokeWidth=0;spacingTop=-3;spacingBottom=-3;spacingLeft=-3;spacingRight=-3;points=[];labelBackgroundColor=none;rounded=0;html=1;whiteSpace=wrap;" vertex="1" parent="1">
            <mxGeometry x="65" y="1269" width="514" height="200" as="geometry" />
          </mxCell>
        </UserObject>
        <UserObject label="&lt;div style=&quot;font-size: 1px&quot;&gt;&lt;p style=&quot;text-align:center;margin-left:0;margin-right:0;margin-top:0px;margin-bottom:0px;text-indent:0;vertical-align:middle;direction:ltr;&quot;&gt;&lt;font style=&quot;font-size:12px;font-family:0;color:#e74f4c;direction:ltr;letter-spacing:0px;line-height:120%;opacity:1&quot;&gt;自有配件时&lt;/font&gt;&lt;/p&gt;&lt;/div&gt;" tags="Background" id="1Utzvzuvet02USVJ52bi-53">
          <mxCell style="verticalAlign=middle;align=center;overflow=width;vsdxID=53;fillColor=none;gradientColor=none;shape=stencil(nZBLDoAgDERP0z3SI/i5B4koRAWC+Lu9kMaIxpW7mfZNkw5gOSvhJHA2B28Huek2KMAKONdGSa9DVIA1YNlZL3tvF9OSdyKRSU12TRd2yrGU4OzIXUPgqE0GFuw3evlP+Df6AKO4P6Ry8t27jTiiJrE+AQ==);strokeColor=#000000;strokeWidth=2;spacingTop=-3;spacingBottom=-3;spacingLeft=-3;spacingRight=-3;points=[];labelBackgroundColor=none;rounded=0;html=1;whiteSpace=wrap;" vertex="1" parent="1">
            <mxGeometry x="1154" y="1046" width="100" height="40" as="geometry" />
          </mxCell>
        </UserObject>
        <UserObject label="&lt;div style=&quot;font-size: 1px&quot;&gt;&lt;p style=&quot;text-align:center;margin-left:0;margin-right:0;margin-top:0px;margin-bottom:0px;text-indent:0;vertical-align:middle;direction:ltr;&quot;&gt;&lt;font style=&quot;font-size:12px;font-family:0;color:#e74f4c;direction:ltr;letter-spacing:0px;line-height:120%;opacity:1&quot;&gt;维修厂配件时&lt;/font&gt;&lt;/p&gt;&lt;/div&gt;" tags="Background" id="1Utzvzuvet02USVJ52bi-54">
          <mxCell style="verticalAlign=middle;align=center;overflow=width;vsdxID=54;fillColor=none;gradientColor=none;shape=stencil(nZBLDoAgDERP0z3SI/i5B4koRAWC+Lu9kMaIxpW7mfZNkw5gOSvhJHA2B28Huek2KMAKONdGSa9DVIA1YNlZL3tvF9OSdyKRSU12TRd2yrGU4OzIXUPgqE0GFuw3evlP+Df6AKO4P6Ry8t27jTiiJrE+AQ==);strokeColor=#000000;strokeWidth=2;spacingTop=-3;spacingBottom=-3;spacingLeft=-3;spacingRight=-3;points=[];labelBackgroundColor=none;rounded=0;html=1;whiteSpace=wrap;" vertex="1" parent="1">
            <mxGeometry x="1154" y="1126" width="100" height="40" as="geometry" />
          </mxCell>
        </UserObject>
        <UserObject label="" tags="Background" id="1Utzvzuvet02USVJ52bi-55">
          <mxCell style="vsdxID=55;fillColor=#FFFFFF;gradientColor=none;shape=stencil(nZBRDoQgDERP03+WHsHFe5iISyOCQdT19kIaIxq//Jtp3zTpAFaTaUYNUkwx+F6v1EYD+AUpyRkdKCYFqACrzgf9C352LfuxyWRWg1/yhT/nRE5IsZWuZtCSK8CPeI0e/hF+jV7AJM4PO7KWCyr390bSiNtEtQM=);strokeColor=#000000;strokeWidth=2;spacingTop=-3;spacingBottom=-3;spacingLeft=-3;spacingRight=-3;points=[];labelBackgroundColor=none;rounded=0;html=1;whiteSpace=wrap;" vertex="1" parent="1">
            <mxGeometry x="787" y="1289" width="797" height="481" as="geometry" />
          </mxCell>
        </UserObject>
        <UserObject label="&lt;div style=&quot;font-size: 1px&quot;&gt;&lt;p style=&quot;text-align:center;margin-left:0;margin-right:0;margin-top:0px;margin-bottom:0px;text-indent:0;vertical-align:middle;direction:ltr;&quot;&gt;&lt;font style=&quot;font-size:12px;font-family:0;color:#000000;direction:ltr;letter-spacing:0px;line-height:120%;opacity:1&quot;&gt;配件，从库存配件表中查，类型位11的&lt;/font&gt;&lt;/p&gt;&lt;/div&gt;" tags="Background" id="1Utzvzuvet02USVJ52bi-56">
          <mxCell style="verticalAlign=middle;align=center;overflow=width;vsdxID=56;fillColor=#FFFFFF;gradientColor=none;shape=stencil(nZBRDoQgDERP03+WHsHFe5iISyOCQdT19kIaIxq//Jtp3zTpAFaTaUYNUkwx+F6v1EYD+AUpyRkdKCYFqACrzgf9C352LfuxyWRWg1/yhT/nRE5IsZWuZtCSK8CPeI0e/hF+jV7AJM4PO7KWCyr390bSiNtEtQM=);strokeColor=#000000;strokeWidth=2;spacingTop=-3;spacingBottom=-3;spacingLeft=-3;spacingRight=-3;points=[];labelBackgroundColor=none;rounded=0;html=1;whiteSpace=wrap;" vertex="1" parent="1">
            <mxGeometry x="838" y="1386" width="151" height="57" as="geometry" />
          </mxCell>
        </UserObject>
        <UserObject label="&lt;div style=&quot;font-size: 1px&quot;&gt;&lt;p style=&quot;text-align:center;margin-left:0;margin-right:0;margin-top:0px;margin-bottom:0px;text-indent:0;vertical-align:middle;direction:ltr;&quot;&gt;&lt;font style=&quot;font-size:12px;font-family:0;color:#000000;direction:ltr;letter-spacing:0px;line-height:120%;opacity:1&quot;&gt;仓库，下拉&lt;/font&gt;&lt;/p&gt;&lt;/div&gt;" tags="Background" id="1Utzvzuvet02USVJ52bi-57">
          <mxCell style="verticalAlign=middle;align=center;overflow=width;vsdxID=57;fillColor=#FFFFFF;gradientColor=none;shape=stencil(nZBRDoQgDERP03+WHsHFe5iISyOCQdT19kIaIxq//Jtp3zTpAFaTaUYNUkwx+F6v1EYD+AUpyRkdKCYFqACrzgf9C352LfuxyWRWg1/yhT/nRE5IsZWuZtCSK8CPeI0e/hF+jV7AJM4PO7KWCyr390bSiNtEtQM=);strokeColor=#000000;strokeWidth=2;spacingTop=-3;spacingBottom=-3;spacingLeft=-3;spacingRight=-3;points=[];labelBackgroundColor=none;rounded=0;html=1;whiteSpace=wrap;" vertex="1" parent="1">
            <mxGeometry x="838" y="1459" width="151" height="57" as="geometry" />
          </mxCell>
        </UserObject>
        <UserObject label="&lt;div style=&quot;font-size: 1px&quot;&gt;&lt;p style=&quot;text-align:center;margin-left:0;margin-right:0;margin-top:0px;margin-bottom:0px;text-indent:0;vertical-align:middle;direction:ltr;&quot;&gt;&lt;font style=&quot;font-size:12px;font-family:0;color:#000000;direction:ltr;letter-spacing:0px;line-height:120%;opacity:1&quot;&gt;数量&lt;/font&gt;&lt;/p&gt;&lt;/div&gt;" tags="Background" id="1Utzvzuvet02USVJ52bi-58">
          <mxCell style="verticalAlign=middle;align=center;overflow=width;vsdxID=58;fillColor=#FFFFFF;gradientColor=none;shape=stencil(nZBRDoQgDERP03+WHsHFe5iISyOCQdT19kIaIxq//Jtp3zTpAFaTaUYNUkwx+F6v1EYD+AUpyRkdKCYFqACrzgf9C352LfuxyWRWg1/yhT/nRE5IsZWuZtCSK8CPeI0e/hF+jV7AJM4PO7KWCyr390bSiNtEtQM=);strokeColor=#000000;strokeWidth=2;spacingTop=-3;spacingBottom=-3;spacingLeft=-3;spacingRight=-3;points=[];labelBackgroundColor=none;rounded=0;html=1;whiteSpace=wrap;" vertex="1" parent="1">
            <mxGeometry x="838" y="1533" width="151" height="57" as="geometry" />
          </mxCell>
        </UserObject>
        <UserObject label="&lt;div style=&quot;font-size: 1px&quot;&gt;&lt;p style=&quot;text-align:center;margin-left:0;margin-right:0;margin-top:0px;margin-bottom:0px;text-indent:0;vertical-align:middle;direction:ltr;&quot;&gt;&lt;font style=&quot;font-size:12px;font-family:0;color:#000000;direction:ltr;letter-spacing:0px;line-height:120%;opacity:1&quot;&gt;单价，带出平均价，可修改&lt;/font&gt;&lt;/p&gt;&lt;/div&gt;" tags="Background" id="1Utzvzuvet02USVJ52bi-59">
          <mxCell style="verticalAlign=middle;align=center;overflow=width;vsdxID=59;fillColor=#FFFFFF;gradientColor=none;shape=stencil(nZBRDoQgDERP03+WHsHFe5iISyOCQdT19kIaIxq//Jtp3zTpAFaTaUYNUkwx+F6v1EYD+AUpyRkdKCYFqACrzgf9C352LfuxyWRWg1/yhT/nRE5IsZWuZtCSK8CPeI0e/hF+jV7AJM4PO7KWCyr390bSiNtEtQM=);strokeColor=#000000;strokeWidth=2;spacingTop=-3;spacingBottom=-3;spacingLeft=-3;spacingRight=-3;points=[];labelBackgroundColor=none;rounded=0;html=1;whiteSpace=wrap;" vertex="1" parent="1">
            <mxGeometry x="838" y="1607" width="151" height="57" as="geometry" />
          </mxCell>
        </UserObject>
        <UserObject label="&lt;div style=&quot;font-size: 1px&quot;&gt;&lt;p style=&quot;text-align:center;margin-left:0;margin-right:0;margin-top:0px;margin-bottom:0px;text-indent:0;vertical-align:middle;direction:ltr;&quot;&gt;&lt;font style=&quot;font-size:12px;font-family:0;color:#000000;direction:ltr;letter-spacing:0px;line-height:120%;opacity:1&quot;&gt;录入&lt;/font&gt;&lt;/p&gt;&lt;/div&gt;" tags="Background" id="1Utzvzuvet02USVJ52bi-60">
          <mxCell style="verticalAlign=middle;align=center;overflow=width;vsdxID=60;fillColor=#FFFFFF;gradientColor=none;shape=stencil(nZBRDoQgDERP03+WHsHFe5iISyOCQdT19kIaIxq//Jtp3zTpAFaTaUYNUkwx+F6v1EYD+AUpyRkdKCYFqACrzgf9C352LfuxyWRWg1/yhT/nRE5IsZWuZtCSK8CPeI0e/hF+jV7AJM4PO7KWCyr390bSiNtEtQM=);strokeColor=#000000;strokeWidth=2;spacingTop=-3;spacingBottom=-3;spacingLeft=-3;spacingRight=-3;points=[];labelBackgroundColor=none;rounded=0;html=1;whiteSpace=wrap;" vertex="1" parent="1">
            <mxGeometry x="1034" y="1381" width="151" height="57" as="geometry" />
          </mxCell>
        </UserObject>
        <UserObject label="&lt;div style=&quot;font-size: 1px&quot;&gt;&lt;p style=&quot;text-align:center;margin-left:0;margin-right:0;margin-top:0px;margin-bottom:0px;text-indent:0;vertical-align:middle;direction:ltr;&quot;&gt;&lt;font style=&quot;font-size:12px;font-family:0;color:#000000;direction:ltr;letter-spacing:0px;line-height:120%;opacity:1&quot;&gt;数量&lt;/font&gt;&lt;font style=&quot;font-size:12px;font-family:0;color:#323232;direction:ltr;letter-spacing:0px;line-height:120%;opacity:1&quot;&gt;，1位小数，手录&lt;/font&gt;&lt;/p&gt;&lt;/div&gt;" tags="Background" id="1Utzvzuvet02USVJ52bi-61">
          <mxCell style="verticalAlign=middle;align=center;overflow=width;vsdxID=61;fillColor=#FFFFFF;gradientColor=none;shape=stencil(nZBRDoQgDERP03+WHsHFe5iISyOCQdT19kIaIxq//Jtp3zTpAFaTaUYNUkwx+F6v1EYD+AUpyRkdKCYFqACrzgf9C352LfuxyWRWg1/yhT/nRE5IsZWuZtCSK8CPeI0e/hF+jV7AJM4PO7KWCyr390bSiNtEtQM=);strokeColor=#000000;strokeWidth=2;spacingTop=-3;spacingBottom=-3;spacingLeft=-3;spacingRight=-3;points=[];labelBackgroundColor=none;rounded=0;html=1;whiteSpace=wrap;" vertex="1" parent="1">
            <mxGeometry x="1034" y="1533" width="151" height="57" as="geometry" />
          </mxCell>
        </UserObject>
        <UserObject label="&lt;div style=&quot;font-size: 1px&quot;&gt;&lt;p style=&quot;text-align:center;margin-left:0;margin-right:0;margin-top:0px;margin-bottom:0px;text-indent:0;vertical-align:middle;direction:ltr;&quot;&gt;&lt;font style=&quot;font-size:12px;font-family:0;color:#000000;direction:ltr;letter-spacing:0px;line-height:120%;opacity:1&quot;&gt;单价，2位小数，手录&lt;/font&gt;&lt;/p&gt;&lt;/div&gt;" tags="Background" id="1Utzvzuvet02USVJ52bi-62">
          <mxCell style="verticalAlign=middle;align=center;overflow=width;vsdxID=62;fillColor=#FFFFFF;gradientColor=none;shape=stencil(nZBRDoQgDERP03+WHsHFe5iISyOCQdT19kIaIxq//Jtp3zTpAFaTaUYNUkwx+F6v1EYD+AUpyRkdKCYFqACrzgf9C352LfuxyWRWg1/yhT/nRE5IsZWuZtCSK8CPeI0e/hF+jV7AJM4PO7KWCyr390bSiNtEtQM=);strokeColor=#000000;strokeWidth=2;spacingTop=-3;spacingBottom=-3;spacingLeft=-3;spacingRight=-3;points=[];labelBackgroundColor=none;rounded=0;html=1;whiteSpace=wrap;" vertex="1" parent="1">
            <mxGeometry x="1034" y="1619" width="134" height="33" as="geometry" />
          </mxCell>
        </UserObject>
      </root>
    </mxGraphModel>
  </diagram>
</mxfile>
